<svg id="approve" xmlns="http://www.w3.org/2000/svg" xmlns:xlink="http://www.w3.org/1999/xlink" viewBox="0 0 24 24" stroke="currentColor" stroke-linecap="round" stroke-linejoin="round" shape-rendering="geometricPrecision" text-rendering="geometricPrecision">
<style><![CDATA[
#approve{pointer-events: all}#approve #approve-s-path1 {animation: approve-s-path1_s_do 1000ms linear infinite normal backwards}@keyframes approve-s-path1_s_do { 0% {stroke-dashoffset: 54} 40% {stroke-dashoffset: 54} 70% {stroke-dashoffset: 32} 100% {stroke-dashoffset: 32}} #approve #approve-s-path2 {animation: approve-s-path2_s_do 1000ms linear infinite normal backwards}@keyframes approve-s-path2_s_do { 0% {stroke-dashoffset: 63} 40% {stroke-dashoffset: 0} 100% {stroke-dashoffset: 0}}
]]></style>
<g id="approve-s-g1" opacity="0.1"><path id="approve-u-copy-of-path" d="M17.804,3.672C19.476,5.46,20.5,7.86,20.5,10.5c0,5.524-4.476,10-10,10s-10-4.476-10-10s4.476-10,10-10c2.884,0,5.48,1.22,7.304,3.172Z" transform="translate(1.5 1.5)" fill="none"/><path id="approve-u-copy-of-path2" d="M17.8045,3.66797c-.052.06-8.84401,9.94003-8.84401,9.94003l-2.46-3.144" transform="translate(1.5 1.5)" fill="none" stroke-dashoffset="32" stroke-dasharray="18"/></g><path id="approve-s-path1" d="M17.8045,3.66797c-.052.06-8.84401,9.94003-8.84401,9.94003l-2.46-3.144" transform="translate(1.5 1.5)" fill="none" stroke-dashoffset="54" stroke-dasharray="18"/><path id="approve-s-path2" d="M17.804,3.672C19.476,5.46,20.5,7.86,20.5,10.5c0,5.524-4.476,10-10,10s-10-4.476-10-10s4.476-10,10-10c2.884,0,5.48,1.22,7.304,3.172Z" transform="translate(1.5 1.5)" fill="none" stroke-dashoffset="63" stroke-dasharray="63"/></svg>