<svg id="atom" xmlns="http://www.w3.org/2000/svg" xmlns:xlink="http://www.w3.org/1999/xlink" viewBox="0 0 24 24" stroke="currentColor" stroke-linecap="round" stroke-linejoin="round" shape-rendering="geometricPrecision" text-rendering="geometricPrecision">
<style><![CDATA[
#atom{pointer-events: all}#atom #atom-u-copy-path-1_to {animation: atom-u-copy-path-1_to__to 1800ms linear infinite normal backwards}@keyframes atom-u-copy-path-1_to__to { 0% {offset-distance: 0%} 33.333333% {offset-distance: 31.02451%} 61.111111% {offset-distance: 56.440502%} 100% {offset-distance: 100%}} #atom #atom-u-copy-path-2_to {animation: atom-u-copy-path-2_to__to 1800ms linear infinite normal backwards}@keyframes atom-u-copy-path-2_to__to { 0% {offset-distance: 0%} 5.555556% {offset-distance: 5.521875%} 27.777778% {offset-distance: 30.487738%} 55.555556% {offset-distance: 55.441419%} 77.222222% {offset-distance: 80.568137%} 99.444444% {offset-distance: 100%} 100% {offset-distance: 100%}} #atom #atom-u-copy-path-3_to {animation: atom-u-copy-path-3_to__to 1800ms linear infinite normal backwards}@keyframes atom-u-copy-path-3_to__to { 0% {offset-distance: 0%} 22.222222% {offset-distance: 20.057539%} 44.444444% {offset-distance: 45.011277%} 66.666667% {offset-distance: 69.977141%} 94.444444% {offset-distance: 94.930821%} 100% {offset-distance: 100%}} #atom #atom-u-path-1_to {animation: atom-u-path-1_to__to 1800ms linear infinite normal backwards}@keyframes atom-u-path-1_to__to { 0% {offset-distance: 0%} 33.333333% {offset-distance: 31.02451%} 61.111111% {offset-distance: 56.440502%} 100% {offset-distance: 100%}} #atom #atom-u-path-2_to {animation: atom-u-path-2_to__to 1800ms linear infinite normal backwards}@keyframes atom-u-path-2_to__to { 0% {offset-distance: 0%} 5.555556% {offset-distance: 5.521875%} 27.777778% {offset-distance: 30.487738%} 55.555556% {offset-distance: 55.441419%} 77.222222% {offset-distance: 80.568137%} 99.444444% {offset-distance: 100%} 100% {offset-distance: 100%}} #atom #atom-u-path-3_to {animation: atom-u-path-3_to__to 1800ms linear infinite normal backwards}@keyframes atom-u-path-3_to__to { 0% {offset-distance: 0%} 22.222222% {offset-distance: 20.057539%} 44.444444% {offset-distance: 45.011277%} 66.666667% {offset-distance: 69.977141%} 94.444444% {offset-distance: 94.930821%} 100% {offset-distance: 100%}}
]]></style>
<path id="atom-s-path1" d="M10.2035,11.1743c-.11,0-.21996-.0304-.31477-.0835-.311-.1744-.42098-.5689-.24273-.8799.11378-.201.32996-.32613.5651-.32613.11,0,.22.03034.3148.08343.1517.0834.2579.2238.3034.3906s.0265.3414-.0607.4893c-.1138.201-.3299.33-.5613.33l-.0038-.0038Z" transform="translate(1.966456 1.5253)" fill="none"/><g id="atom-u-mask-group" mask="url(#atom-u-masks)"><path id="atom-s-path2" d="M4.34798,10.3519C2.1369,8.40249,0.991535,6.5365,1.58697,5.51248c.49304-.84956,2.08214-.94058,4.19461-.40202" transform="translate(1.966456 1.5253)" fill="none"/><path id="atom-s-path3" d="M11.9519,7.77246c7.7065,4.52844,7.0884,7.41084,6.876,7.77874-.8003,1.373-4.4639.7699-8.5789-1.2895" transform="translate(1.966456 1.5253)" fill="none"/><path id="atom-s-path4" d="M12.6998,16.9715c-.5916,2.1277-1.4753,3.4741-2.4652,3.4779-1.80143.0038-3.27296-4.4564-3.28813-9.9671-.00379-1.72567.0493-3.47409.38685-5.1732C7.52674,4.33438,8.23216,0.5,10.1816,0.5c1.005,0,1.9076,1.38811,2.5144,3.57269" transform="translate(1.966456 1.5253)" fill="none"/><path id="atom-s-path5" d="M11.8098,13.374c-4.79761,2.7042-9.40561,3.6258-10.28928,2.0556-.14792-.2617-1.437397-2.9355,7.08835-7.737C13.4065,4.98843,18.0145,4.06682,18.8982,5.63698s-2.2377,5.00632-7.0884,7.73702Z" transform="translate(1.966456 1.5253)" fill="none"/><mask id="atom-u-masks" mask-type="luminance" x="-150%" y="-150%" height="400%" width="400%"><g id="atom-s-g1"><rect id="atom-s-rect1" width="24" height="24" rx="0" ry="0" fill="#fff" stroke-width="0"/><g id="atom-u-mask-group2" mask="url(#atom-u-masks2)"><g id="atom-u-copy-path-1_to" style="offset-path:path('M20.232497,14.581322C23.245128,19.905227,15.259684,17.717703,10.514699,14.8399C5.06926,11.7362,2.42141,8.169492,3.7,6.9C6.424579,4.194807,18.31661,10.917599,20.232497,14.581322');offset-rotate:0deg"><path id="atom-u-copy-path-1" d="M19.0018,14.1569c-.5942.4077-1.4031.2543-1.8086-.3368s-.2564-1.4062.3347-1.8117s1.4031-.2543,1.8107.3399c.4077.5942.2543,1.4031-.3368,1.8086Z" transform="translate(-18.266043,-13.083217)" stroke-width="0"/></g><mask id="atom-u-masks2" mask-type="luminance" x="-150%" y="-150%" height="400%" width="400%"><g id="atom-u-group"><rect id="atom-u-rectangle" width="24" height="24" rx="0" ry="0" transform="translate(0.000002 0)" fill="#fff" stroke-width="0"/><path id="atom-u-shape-2" d="M15.879153,10.565262c-1.711612-1.572349-4.128002-3.03867-5.55337-3.769891C14.46119,4.802766,18.120799,4.255692,18.8982,5.63698c.585316,1.040108-1.381556,4.006457-3.019047,4.928282Z" transform="matrix(0.5 -0.866025 0.866025 0.5 -2.052195 15.6314)" stroke="#000"/><path id="atom-u-shape-1" d="M11.8098,13.374c-4.79761,2.7042-9.40561,3.6258-10.28928,2.0556-.138013-.244172-1.269789-2.588157,5.504073-6.800956C7.51085,8.326231,9.93145,11.49565,11.8098,13.374Z" transform="translate(1.966456 1.5253)" stroke="#000"/></g></mask></g><g id="atom-u-mask-group3" mask="url(#atom-u-masks3)"><g id="atom-u-copy-path-2_to" style="offset-path:path('M10.341605,3.652006C10.836679,2.664644,11.430388,2.089683,12.073492,2.083513C13.875118,2.066315,15.380902,6.457479,15.434901,12.023725C15.491276,17.530682,14.077278,22.012157,12.275583,22.029398C11.974991,22.032833,9.010772,21.873585,8.914167,12.089239C8.877938,8.547976,9.449714,5.430767,10.341605,3.652006');offset-rotate:0deg"><path id="atom-u-copy-path-2" d="M7.7542,3.36132c-.64925-.31263-.91867-1.09062-.60769-1.73646s1.09224-.922101,1.73807-.61112.91867,1.09063.60605,1.73988-1.09061.91869-1.73643.6077Z" transform="translate(-8.318794,-2.18815)"/></g><mask id="atom-u-masks3" mask-type="luminance" x="-150%" y="-150%" height="400%" width="400%"><g id="atom-s-g2" transform="translate(0.000001 0.000001)"><rect id="atom-u-copy-of-rectangle" width="24" height="24" rx="0" ry="0" fill="#fff" stroke-width="0"/><path id="atom-u-copy-shape-1" d="M11.8098,13.374c-.557935.314483-1.113305.604858-1.660552.870008.027776-.114303.032353-7.222388.063977-7.394102c4.18139-2.037065,7.900528-2.606733,8.684975-1.212926.8836,1.57016-2.2377,5.00632-7.0884,7.73702Z" transform="translate(1.966456 1.5253)" stroke="#000"/><path id="atom-u-copy-shape-2" d="M11.8098,13.374c-.557935.314483-1.113305.604858-1.660552.870008.027776-.114303.032353-7.222388.063977-7.394102c4.18139-2.037065,7.900528-2.606733,8.684975-1.212926.8836,1.57016-2.2377,5.00632-7.0884,7.73702Z" transform="matrix(1 0 0 -1 1.966456 22.591908)" stroke="#000"/></g></mask></g><g id="atom-u-mask-group4" mask="url(#atom-u-masks4)"><g id="atom-u-copy-path-3_to" style="offset-path:path('M3.767579,14.808585C4.485095,13.506421,6.290829,11.630828,10.575326,9.2179C15.372956,6.51373,19.980956,5.59212,20.864656,7.16228C21.748256,8.73244,18.626956,12.1686,13.776256,14.8993C8.978646,17.6035,4.370646,18.5251,3.486976,16.9549C3.413391,16.824714,3.057305,16.097605,3.767579,14.808585');offset-rotate:0deg"><path id="atom-u-copy-path-3" d="M1.17289,14.4219c-.630986-.3481-.857025-1.1397-.510848-1.7674s1.141508-.8604,1.769178-.5142.85702,1.1397.50901,1.7707-1.13967.857-1.76734.5109Z" transform="translate(-1.801419,-13.281806)"/></g><mask id="atom-u-masks4" mask-type="luminance" x="-150%" y="-150%" height="400%" width="400%"><g id="atom-s-g3" transform="translate(-0.000002 0)"><rect id="atom-u-rectangle2" width="24" height="24" rx="0" ry="0" transform="translate(0.000002 0)" fill="#fff" stroke-width="0"/><path id="atom-u-copy-of-path" d="M7.014179,12.433908c-.042632-.631046-.06587-1.283609-.067709-1.951608-.00379-1.72567.0493-3.47409.38685-5.1732" transform="translate(1.966456 1.5253)" fill="none" stroke="#000"/></g></mask></g></g></mask></g><g id="atom-u-mask-group5" transform="translate(0.000001 0)" mask="url(#atom-u-masks5)"><g id="atom-u-path-1_to" style="offset-path:path('M20.232497,14.581322C23.245128,19.905227,15.259684,17.717703,10.514699,14.8399C5.06926,11.7362,2.42141,8.169492,3.7,6.9C6.424579,4.194807,18.31661,10.917599,20.232497,14.581322');offset-rotate:0deg"><path id="atom-u-path-1" d="M19.0018,14.1569c-.5942.4077-1.4031.2543-1.8086-.3368s-.2564-1.4062.3347-1.8117s1.4031-.2543,1.8107.3399c.4077.5942.2543,1.4031-.3368,1.8086Z" transform="translate(-18.266043,-13.083217)" fill="none"/></g><mask id="atom-u-masks5" mask-type="luminance" x="-150%" y="-150%" height="400%" width="400%"><g id="atom-u-group2"><rect id="atom-u-rectangle3" width="24" height="24" rx="0" ry="0" transform="translate(0.000002 0)" fill="#fff" stroke-width="0"/><path id="atom-u-shape-22" d="M15.879153,10.565262c-1.711612-1.572349-4.128002-3.03867-5.55337-3.769891C14.46119,4.802766,18.120799,4.255692,18.8982,5.63698c.585316,1.040108-1.381556,4.006457-3.019047,4.928282Z" transform="matrix(0.5 -0.866025 0.866025 0.5 -2.052195 15.6314)" stroke="#000"/><path id="atom-u-shape-12" d="M13.666771,12.239784c-.146039.082315-2.043172,1.202213-3.140872,1.811699C6.61916,16.220656,2.377291,16.952003,1.52052,15.4296c-.138013-.244172-1.269789-2.588157,5.504073-6.800956.486257-.302413,4.763828,1.732789,6.642178,3.61114Z" transform="translate(1.966456 1.5253)" stroke="#000"/></g></mask></g><g id="atom-u-mask-group6" mask="url(#atom-u-masks6)"><g id="atom-u-path-2_to" style="offset-path:path('M10.341605,3.652006C10.836679,2.664644,11.430388,2.089683,12.073492,2.083513C13.875118,2.066315,15.380902,6.457479,15.434901,12.023725C15.491276,17.530682,14.077278,22.012157,12.275583,22.029398C11.974991,22.032833,9.010772,21.873585,8.914167,12.089239C8.877938,8.547976,9.449714,5.430767,10.341605,3.652006');offset-rotate:0deg"><path id="atom-u-path-2" d="M7.7542,3.36132c-.64925-.31263-.91867-1.09062-.60769-1.73646s1.09224-.922101,1.73807-.61112.91867,1.09063.60605,1.73988-1.09061.91869-1.73643.6077Z" transform="translate(-8.318794,-2.18815)" fill="none"/></g><mask id="atom-u-masks6" mask-type="luminance" x="-150%" y="-150%" height="400%" width="400%"><g id="atom-s-g4"><rect id="atom-u-rectangle4" width="24" height="24" rx="0" ry="0" transform="translate(0.000002 0)" fill="#fff" stroke-width="0"/><path id="atom-u-shape-13" d="M11.8098,13.374c-.557935.314483-1.113305.604858-1.660552.870008.027776-.114303.032353-7.222388.063977-7.394102c4.18139-2.037065,7.900528-2.606733,8.684975-1.212926.8836,1.57016-2.2377,5.00632-7.0884,7.73702Z" transform="translate(1.966456 1.5253)" stroke="#000"/><path id="atom-u-shape-23" d="M11.8098,13.374c-.557935.314483-1.113305.604858-1.660552.870008.027776-.114303.032353-7.222388.063977-7.394102c4.18139-2.037065,7.900528-2.606733,8.684975-1.212926.8836,1.57016-2.2377,5.00632-7.0884,7.73702Z" transform="matrix(1 0 0 -1 1.966456 22.591908)" stroke="#000"/></g></mask></g><g id="atom-u-path-3_to" style="offset-path:path('M3.767579,14.808585C4.485095,13.506421,6.290829,11.630828,10.575326,9.2179C15.372956,6.51373,19.980956,5.59212,20.864656,7.16228C21.748256,8.73244,18.626956,12.1686,13.776256,14.8993C8.978646,17.6035,4.370646,18.5251,3.486976,16.9549C3.413391,16.824714,3.057305,16.097605,3.767579,14.808585');offset-rotate:0deg"><path id="atom-u-path-3" d="M1.17289,14.4219c-.630986-.3481-.857025-1.1397-.510848-1.7674s1.141508-.8604,1.769178-.5142.85702,1.1397.50901,1.7707-1.13967.857-1.76734.5109Z" transform="translate(-1.801419,-13.281806)" fill="none"/></g></svg>