<svg id="bell" xmlns="http://www.w3.org/2000/svg" xmlns:xlink="http://www.w3.org/1999/xlink" viewBox="0 0 24 24" stroke="currentColor" stroke-linecap="round" stroke-linejoin="round" shape-rendering="geometricPrecision" text-rendering="geometricPrecision">
<style><![CDATA[
#bell{pointer-events: all}#bell #bell-s-path1_to {animation: bell-s-path1_to__to 1500ms linear infinite normal backwards}@keyframes bell-s-path1_to__to { 0% {offset-distance: 0%} 4% {offset-distance: 0%} 10.666667% {offset-distance: 5.140187%} 17.333333% {offset-distance: 15.42056%} 24% {offset-distance: 25.700934%} 31.333333% {offset-distance: 35.981307%} 32% {offset-distance: 38.551401%} 39.333333% {offset-distance: 53.971961%} 46.666667% {offset-distance: 69.392521%} 54% {offset-distance: 79.672895%} 54.666667% {offset-distance: 81.30841%} 62.666667% {offset-distance: 87.616822%} 70.666667% {offset-distance: 92.28972%} 78% {offset-distance: 97.429907%;animation-timing-function: cubic-bezier(0.215,0.61,0.355,1)} 86.666667% {offset-distance: 100%} 100% {offset-distance: 100%}} #bell #bell-u-copy-of-group_tr {animation: bell-u-copy-of-group_tr__tr 1500ms linear infinite normal backwards}@keyframes bell-u-copy-of-group_tr__tr { 0% {transform: translate(11.999255px,1.999101px) rotate(0deg);animation-timing-function: cubic-bezier(0.39,0.575,0.565,1)} 6.666667% {transform: translate(11.999255px,1.999101px) rotate(10deg)} 13.333333% {transform: translate(11.999255px,1.999101px) rotate(-10deg)} 20% {transform: translate(11.999255px,1.999101px) rotate(10deg)} 26.666667% {transform: translate(11.999255px,1.999101px) rotate(-10deg);animation-timing-function: cubic-bezier(0.215,0.61,0.355,1)} 33.333333% {transform: translate(11.999255px,1.999101px) rotate(2deg)} 40.666667% {transform: translate(11.999255px,1.999101px) rotate(-2deg)} 46.666667% {transform: translate(11.999255px,1.999101px) rotate(0deg)} 100% {transform: translate(11.999255px,1.999101px) rotate(0deg)}} #bell #bell-s-g2_tr {animation: bell-s-g2_tr__tr 1500ms linear infinite normal backwards}@keyframes bell-s-g2_tr__tr { 0% {transform: translate(11.999255px,1.999101px) rotate(0deg);animation-timing-function: cubic-bezier(0.215,0.61,0.355,1)} 6.666667% {transform: translate(11.999255px,1.999101px) rotate(10deg);animation-timing-function: cubic-bezier(0.215,0.61,0.355,1)} 13.333333% {transform: translate(11.999255px,1.999101px) rotate(-10deg);animation-timing-function: cubic-bezier(0.215,0.61,0.355,1)} 20% {transform: translate(11.999255px,1.999101px) rotate(10deg);animation-timing-function: cubic-bezier(0.215,0.61,0.355,1)} 26.666667% {transform: translate(11.999255px,1.999101px) rotate(-10deg);animation-timing-function: cubic-bezier(0.215,0.61,0.355,1)} 33.333333% {transform: translate(11.999255px,1.999101px) rotate(2deg);animation-timing-function: cubic-bezier(0.215,0.61,0.355,1)} 40.666667% {transform: translate(11.999255px,1.999101px) rotate(-2deg);animation-timing-function: cubic-bezier(0.215,0.61,0.355,1)} 46.666667% {transform: translate(11.999255px,1.999101px) rotate(0deg)} 100% {transform: translate(11.999255px,1.999101px) rotate(0deg)}}
]]></style>
<g id="bell-u-mask-group" transform="translate(0 0.000001)" mask="url(#bell-u-masks)"><g id="bell-s-path1_to" style="offset-path:path('M12.000005,19.94335L10.000005,19.94335L14.000005,19.94335L10.000005,19.94335L14.000005,19.94335L15.000005,19.94335L9.000005,19.94335L15.000005,19.94335L11.000005,19.94335L10.363641,19.94335Q12.000005,19.94335,12.818187,19.94335Q12.818187,19.94335,11.000005,19.94335L13.000005,19.94335L12.000005,19.94335');offset-rotate:0deg"><path id="bell-s-path1" d="M7.90716,20.5018c1.13635,0,2.05754-.9212,2.05754-2.0575s-.92119-2.0576-2.05754-2.0576-2.05755.9212-2.05755,2.0576.92119,2.0575,2.05755,2.0575Z" transform="translate(-7.907155,-18.44425)" fill="none"/></g><mask id="bell-u-masks" mask-type="luminance" x="-150%" y="-150%" height="400%" width="400%"><g id="bell-s-g1"><rect id="bell-s-rect1" width="24" height="24" rx="0" ry="0" fill="#fff" stroke-width="0"/><g id="bell-u-copy-of-group_tr" transform="translate(11.999255,1.999101) rotate(0)"><g id="bell-u-copy-of-group" transform="translate(-11.999255,-1.9991)"><path id="bell-s-path2" d="M7.9064,2.96906c.68181,0,1.23453-.55272,1.23453-1.23453s-.55272-1.23453-1.23453-1.23453-1.23452.55272-1.23452,1.23453.55271,1.23453,1.23452,1.23453Z" transform="translate(4.09285 1.4991)" stroke-width="0" stroke-linecap="round" stroke-linejoin="round"/><path id="bell-s-path3" d="M7.90702,2.96875c3.40728,0,6.17268,2.76534,6.17268,6.17264v6.17261h-12.34532v-6.17261c0-3.4073,2.76534-6.17264,6.17264-6.17264Z" transform="translate(4.09285 1.4991)" stroke-width="0" stroke-linecap="round" stroke-linejoin="round"/><path id="bell-s-path4" d="M14.1621,15.3125h-12.50987c-.63636,0-1.15223.5159-1.15223,1.1522s.51587,1.1523,1.15223,1.1523h12.50987c.6364,0,1.1522-.5159,1.1522-1.1523s-.5158-1.1522-1.1522-1.1522Z" transform="translate(4.09285 1.4991)" stroke-width="0" stroke-linecap="round" stroke-linejoin="round"/></g></g></g></mask></g><g id="bell-s-g2_tr" transform="translate(11.999255,1.999101) rotate(0)"><g id="bell-s-g2" transform="translate(-11.999255,-1.9991)"><path id="bell-s-path5" d="M7.9064,2.96906c.68181,0,1.23453-.55272,1.23453-1.23453s-.55272-1.23453-1.23453-1.23453-1.23452.55272-1.23452,1.23453.55271,1.23453,1.23452,1.23453Z" transform="translate(4.09285 1.4991)" fill="none"/><path id="bell-s-path6" d="M7.90702,2.96875c3.40728,0,6.17268,2.76534,6.17268,6.17264v6.17261h-12.34532v-6.17261c0-3.4073,2.76534-6.17264,6.17264-6.17264Z" transform="translate(4.09285 1.4991)" fill="none"/><path id="bell-s-path7" d="M14.1621,15.3125h-12.50987c-.63636,0-1.15223.5159-1.15223,1.1522s.51587,1.1523,1.15223,1.1523h12.50987c.6364,0,1.1522-.5159,1.1522-1.1523s-.5158-1.1522-1.1522-1.1522Z" transform="translate(4.09285 1.4991)" fill="none"/></g></g></svg>