<svg id="bicycle" xmlns="http://www.w3.org/2000/svg" xmlns:xlink="http://www.w3.org/1999/xlink" viewBox="0 0 24 24" stroke="currentColor" stroke-linecap="round" stroke-linejoin="round" shape-rendering="geometricPrecision" text-rendering="geometricPrecision">
<style><![CDATA[
#bicycle{pointer-events: all}#bicycle #bicycle-s-line1 {animation: bicycle-s-line1_s_do 1000ms linear infinite normal backwards}@keyframes bicycle-s-line1_s_do { 0% {stroke-dashoffset: 12} 100% {stroke-dashoffset: 37}} #bicycle #bicycle-s-path2_tr {animation: bicycle-s-path2_tr__tr 1000ms linear infinite normal backwards}@keyframes bicycle-s-path2_tr__tr { 0% {transform: translate(5.92637px,13.312065px) rotate(0deg)} 100% {transform: translate(5.92637px,13.312065px) rotate(720deg)}} #bicycle #bicycle-s-path4_tr {animation: bicycle-s-path4_tr__tr 1000ms linear infinite normal backwards}@keyframes bicycle-s-path4_tr__tr { 0% {transform: translate(18.07375px,13.312065px) rotate(0deg)} 100% {transform: translate(18.07375px,13.312065px) rotate(720deg)}}
]]></style>
<line id="bicycle-s-line1" x1="-12" y1="0" x2="10" y2="0" transform="translate(13 17.656809)" fill="none" stroke-dashoffset="12" stroke-dasharray="8.5,2,0,2"/><path id="bicycle-s-path1" d="M4.42615,11.032c2.16836,0,3.92616-1.7578,3.92616-3.92616s-1.7578-3.92615-3.92616-3.92615-3.92615,1.7578-3.92615,3.92615s1.7578,3.92616,3.92615,3.92616Z" transform="translate(1.5001 6.234)" fill="none"/><g id="bicycle-s-path2_tr" transform="translate(5.92637,13.312065) rotate(0)"><path id="bicycle-s-path2" d="M0.5,5.604687C0.5,6.94398,1.58571,8.02969,2.924997,8.02969" transform="translate(-2.925,-5.60469)" fill="none"/></g><path id="bicycle-s-path3" d="M16.5736,11.032c2.1684,0,3.9262-1.7578,3.9262-3.92616s-1.7578-3.92615-3.9262-3.92615c-2.1683,0-3.9261,1.7578-3.9261,3.92615s1.7578,3.92616,3.9261,3.92616Z" transform="translate(1.5001 6.234)" fill="none"/><g id="bicycle-s-path4_tr" transform="translate(18.07375,13.312065) rotate(0)"><path id="bicycle-s-path4" d="M0.5,5.604687C0.5,6.94398,1.58571,8.02969,2.924997,8.02969" transform="translate(-2.925,-5.60469)" fill="none"/></g><path id="bicycle-s-path5" d="M12.7617,0.5L16.574,7.10616" transform="translate(1.5001 6.234)" fill="none"/><path id="bicycle-s-path6" d="M6.60156,0.519531L10.0754,6.53799" transform="translate(1.5001 6.234)" fill="none"/><path id="bicycle-s-path7" d="M13.7155,2.19922h-5.88923l-3.4,4.90769h5.88923l3.4-4.90769Z" transform="translate(1.5001 6.234)" fill="none"/><path id="bicycle-s-path8" d="M12.8325,0.5h2.7939c0,0,.1569.227692.1569.52923c0,.26462-.0862.52923-.5785.53231" transform="translate(1.5001 6.234)" fill="none"/><path id="bicycle-s-path9" d="M5.60449,0.5h2.15385" transform="translate(1.5001 6.234)" fill="none"/></svg>