<svg id="binary-code" xmlns="http://www.w3.org/2000/svg" xmlns:xlink="http://www.w3.org/1999/xlink" viewBox="0 0 24 24" stroke="currentColor" stroke-linecap="round" stroke-linejoin="round" shape-rendering="geometricPrecision" text-rendering="geometricPrecision">
<style><![CDATA[
#binary-code{pointer-events: all}#binary-code #binary-code-u-group-1_to {animation: binary-code-u-group-1_to__to 2400ms linear infinite normal backwards}@keyframes binary-code-u-group-1_to__to { 0% {transform: translate(10.487299px,23.474374px)} 100% {transform: translate(10.487299px,-0.048362px)}} #binary-code #binary-code-u-group-2_to {animation: binary-code-u-group-2_to__to 2400ms linear infinite normal backwards}@keyframes binary-code-u-group-2_to__to { 0% {transform: translate(13.512695px,23.474374px)} 50% {transform: translate(13.512695px,-0.046166px);animation-timing-function: step-end} 50.416667% {transform: translate(13.512695px,23.474374px)} 100% {transform: translate(13.512695px,-0.046166px)}}
]]></style>
<g id="binary-code-u-mask-group" transform="translate(0 -0.18791)" mask="url(#binary-code-u-masks)"><g id="binary-code-u-group-1_to" transform="translate(10.487299,23.474374)"><g id="binary-code-u-group-1" transform="translate(-10.487298,-23.474373)"><g id="binary-code-s-g1" transform="translate(1.668519 3.847428)"><rect id="binary-code-s-rect1" width="1.34456" height="2.35297" rx="0.672278" ry="0.672278" transform="translate(2.0957 6.68359)" fill="none"/><rect id="binary-code-s-rect2" width="1.34456" height="2.35297" rx="0.672278" ry="0.672278" transform="translate(2.0957 16.0977)" fill="none"/><rect id="binary-code-s-rect3" width="1.34456" height="2.35297" rx="0.672278" ry="0.672278" transform="translate(2.0957 30.2148)" fill="none"/><path id="binary-code-s-path1" d="M2.0957,12.126l1.00842-.7368v2.353" fill="none" stroke-miterlimit="10"/><path id="binary-code-s-path2" d="M2.0957,21.5401l1.00842-.7368v2.3529" fill="none" stroke-miterlimit="10"/><path id="binary-code-s-path3" d="M2.0957,26.2432l1.00842-.7368v2.353" fill="none" stroke-miterlimit="10"/><path id="binary-code-s-path4" d="M2.0957,26.2432l1.00842-.7368v2.353" transform="translate(0 9.406171)" fill="none" stroke-miterlimit="10"/></g><g id="binary-code-s-g2" transform="translate(1.66852 3.847429)"><rect id="binary-code-s-rect4" width="1.34456" height="2.35297" rx="0.672278" ry="0.672278" transform="translate(8.14648 16.0977)" fill="none"/><rect id="binary-code-s-rect5" width="1.34456" height="2.35297" rx="0.672278" ry="0.672278" transform="translate(8.14648 25.5078)" fill="none"/><path id="binary-code-s-path5" d="M8.14648,7.4229L9.1549,6.68609v2.35297" fill="none" stroke-miterlimit="10"/><path id="binary-code-s-path6" d="M8.14648,12.1299l1.00842-.7368v2.353" fill="none" stroke-miterlimit="10"/><path id="binary-code-s-path7" d="M8.14648,30.9542l1.00842-.7369v2.353" fill="none" stroke-miterlimit="10"/><path id="binary-code-s-path8" d="M8.14648,21.5401l1.00842-.7368v2.3529" fill="none" stroke-miterlimit="10"/><path id="binary-code-s-path9" d="M8.14648,21.5401l1.00842-.7368v2.3529" transform="translate(0 14.10927)" fill="none" stroke-miterlimit="10"/></g><g id="binary-code-s-g3" transform="translate(1.668519 3.847429)"><rect id="binary-code-s-rect6" width="1.34456" height="2.35297" rx="0.672278" ry="0.672278" transform="translate(14.1973 11.3906)" fill="none"/><rect id="binary-code-s-rect7" width="1.34456" height="2.35297" rx="0.672278" ry="0.672278" transform="translate(14.1973 16.0977)" fill="none"/><rect id="binary-code-u-rectangle" width="1.34456" height="2.35297" rx="0.672278" ry="0.672278" transform="translate(14.1973 34.91257)" fill="none"/><path id="binary-code-s-path10" d="M14.1973,7.4229l1.0084-.73681v2.35297" fill="none" stroke-miterlimit="10"/><path id="binary-code-s-path11" d="M14.1973,21.5401l1.0084-.7368v2.3529" fill="none" stroke-miterlimit="10"/><path id="binary-code-s-path12" d="M14.1973,26.2471l1.0084-.7368v2.353" fill="none" stroke-miterlimit="10"/><path id="binary-code-s-path13" d="M14.1973,30.9542l1.0084-.7369v2.353" fill="none" stroke-miterlimit="10"/></g></g></g><g id="binary-code-u-group-2_to" transform="translate(13.512695,23.474374)"><g id="binary-code-u-group-2" transform="translate(-13.512695,-23.474373)"><g id="binary-code-s-g4" transform="translate(1.668519 3.847429)"><rect id="binary-code-s-rect8" width="1.34456" height="2.35297" rx="0.672278" ry="0.672278" transform="translate(5.12109 11.3906)" fill="none"/><rect id="binary-code-s-rect9" width="1.34456" height="2.35297" rx="0.672278" ry="0.672278" transform="translate(5.12109 20.8047)" fill="none"/><rect id="binary-code-s-rect10" width="1.34456" height="2.35297" rx="0.672278" ry="0.672278" transform="translate(5.12109 25.5078)" fill="none"/><rect id="binary-code-u-rectangle2" width="1.34456" height="2.35297" rx="0.672278" ry="0.672278" transform="translate(5.12109 34.91257)" fill="none"/><path id="binary-code-s-path14" d="M5.12109,7.4229l1.00842-.73681v2.35297" fill="none" stroke-miterlimit="10"/><path id="binary-code-s-path15" d="M5.12109,16.8331l1.00842-.7369v2.353" fill="none" stroke-miterlimit="10"/><path id="binary-code-s-path16" d="M5.12109,30.9542l1.00842-.7369v2.353" fill="none" stroke-miterlimit="10"/></g><g id="binary-code-s-g5" transform="translate(1.66852 3.847428)"><rect id="binary-code-s-rect11" width="1.34456" height="2.35297" rx="0.672278" ry="0.672278" transform="translate(11.1719 6.68359)" fill="none"/><rect id="binary-code-s-rect12" width="1.34456" height="2.35297" rx="0.672278" ry="0.672278" transform="translate(11.1719 16.0977)" fill="none"/><rect id="binary-code-s-rect13" width="1.34456" height="2.35297" rx="0.672278" ry="0.672278" transform="translate(11.1719 30.2148)" fill="none"/><rect id="binary-code-s-rect14" width="1.34456" height="2.35297" rx="0.672278" ry="0.672278" transform="translate(11.1719 25.5078)" fill="none"/><path id="binary-code-s-path17" d="M11.1719,12.126l1.0084-.7368v2.353" fill="none" stroke-miterlimit="10"/><path id="binary-code-s-path18" d="M11.1719,21.5401l1.0084-.7368v2.3529" fill="none" stroke-miterlimit="10"/><path id="binary-code-s-path19" d="M11.1719,21.5401l1.0084-.7368v2.3529" transform="translate(0 14.109271)" fill="none" stroke-miterlimit="10"/></g><g id="binary-code-s-g6" transform="translate(1.66852 3.847428)"><rect id="binary-code-s-rect15" width="1.34456" height="2.35297" rx="0.672278" ry="0.672278" transform="translate(17.2227 6.68359)" fill="none"/><rect id="binary-code-s-rect16" width="1.34456" height="2.35297" rx="0.672278" ry="0.672278" transform="translate(17.2227 20.8008)" fill="none"/><rect id="binary-code-s-rect17" width="1.34456" height="2.35297" rx="0.672278" ry="0.672278" transform="translate(17.2227 30.2148)" fill="none"/><path id="binary-code-s-path20" d="M17.2227,12.126l1.0084-.7368v2.353" fill="none" stroke-miterlimit="10"/><path id="binary-code-s-path21" d="M17.2227,16.8331l1.0084-.7369v2.353" fill="none" stroke-miterlimit="10"/><path id="binary-code-s-path22" d="M17.2227,26.2432l1.0084-.7368v2.353" fill="none" stroke-miterlimit="10"/><path id="binary-code-s-path23" d="M17.2227,26.2432l1.0084-.7368v2.353" transform="translate(0 9.406171)" fill="none" stroke-miterlimit="10"/></g></g></g><mask id="binary-code-u-masks" mask-type="luminance" x="-150%" y="-150%" height="400%" width="400%"><path id="binary-code-s-path24" d="M20.566406,5.33984h-20v10.31946h20v-10.31946Z" transform="translate(1.433594 3.5)" fill="#fff"/></mask></g><path id="binary-code-s-path25" d="M1.478077,0.5h18.043846c.259771,0,.509307.104203.691417.285718s.28666.430262.28666.689082v14.454c0,.2588-.10455.5075-.28666.6891s-.431646.2857-.691417.2857h-18.043846c-.25969,0-.509274-.1042-.691399-.2857s-.286678-.4303-.286678-.6891v-14.454c0-.25882.104553-.507567.286678-.689082s.431709-.285718.691399-.285718Z" transform="translate(1.5 3.31209)" fill="none"/><path id="binary-code-s-path26" d="M2.43184,2.65234c-.08907,0-.17479.0353-.23698.09916s-.09916.14791-.09916.23698.0353.17479.09916.23698.14791.09916.23698.09916.17479-.03529.23698-.09916.09916-.1479.09916-.23698-.03529-.17479-.09916-.23698-.1479-.09916-.23698-.09916Z" transform="translate(1.483398 3.31209)" fill="none"/><path id="binary-code-s-path27" d="M3.77755,2.65234c-.08908,0-.1748.0353-.23698.09916s-.09916.14791-.09916.23698.03529.17479.09916.23698.1479.09916.23698.09916.17479-.03529.23697-.09916.09916-.1479.09916-.23698-.03529-.17479-.09916-.23698-.1479-.09916-.23697-.09916Z" transform="translate(2.022455 3.31209)" fill="none"/><path id="binary-code-s-path28" d="M5.1213,2.65234c-.08908,0-.1748.0353-.23698.09916s-.09916.14791-.09916.23698.03529.17479.09916.23698.1479.09916.23698.09916.17479-.03529.23697-.09916.09916-.1479.09916-.23698-.03529-.17479-.09916-.23698-.1479-.09916-.23697-.09916Z" transform="translate(2.491618 3.31209)" fill="none"/><line id="binary-code-s-line1" x1="-10" y1="0" x2="10" y2="0" transform="translate(12 8.65193)" fill="none"/><line id="binary-code-s-line2" x1="-10" y1="0" x2="10" y2="0" transform="translate(12 18.97139)" fill="none"/></svg>