<svg id="brain-gear" xmlns="http://www.w3.org/2000/svg" xmlns:xlink="http://www.w3.org/1999/xlink" viewBox="0 0 24 24" fill="none" stroke="currentColor" stroke-linecap="round" stroke-linejoin="round" shape-rendering="geometricPrecision" text-rendering="geometricPrecision">
<style><![CDATA[
#brain-gear{pointer-events: all}#brain-gear #brain-gear-s-path1 {animation: brain-gear-s-path1_s_do 1000ms linear infinite normal backwards}@keyframes brain-gear-s-path1_s_do { 0% {stroke-dashoffset: 0} 100% {stroke-dashoffset: 36}} #brain-gear #brain-gear-s-path5 {animation: brain-gear-s-path5_s_do 1000ms linear infinite normal backwards}@keyframes brain-gear-s-path5_s_do { 0% {stroke-dashoffset: 0} 70% {stroke-dashoffset: 18} 100% {stroke-dashoffset: 18}} #brain-gear #brain-gear-s-path6 {animation: brain-gear-s-path6_s_do 1000ms linear infinite normal backwards}@keyframes brain-gear-s-path6_s_do { 0% {stroke-dashoffset: 12} 50% {stroke-dashoffset: 0} 100% {stroke-dashoffset: 0}} #brain-gear #brain-gear-s-path7 {animation: brain-gear-s-path7_s_do 1000ms linear infinite normal backwards}@keyframes brain-gear-s-path7_s_do { 0% {stroke-dashoffset: 6} 30% {stroke-dashoffset: 6} 90% {stroke-dashoffset: 0} 100% {stroke-dashoffset: 0}} #brain-gear #brain-gear-s-path8 {animation: brain-gear-s-path8_s_do 1000ms linear infinite normal backwards}@keyframes brain-gear-s-path8_s_do { 0% {stroke-dashoffset: 0} 50% {stroke-dashoffset: 0} 100% {stroke-dashoffset: 13}} #brain-gear #brain-gear-s-path11_tr {animation: brain-gear-s-path11_tr__tr 1000ms linear infinite normal backwards}@keyframes brain-gear-s-path11_tr__tr { 0% {transform: translate(12.499999px,12px) rotate(270deg)} 100% {transform: translate(12.499999px,12px) rotate(360deg)}}
]]></style>
<path id="brain-gear-s-path1" d="M21.850236,25.886711l-.209208.213049c-.776483.799942-.941436,2.021963-.317835,2.998776.760391,1.189863,2.397845,1.579784,3.661139.860239.812693-.462278,1.247202-1.262219,1.267318-2.094319v-14.173839c0-1.410952-1.194899-2.560617-2.691541-2.560617-.615554,0-1.291457.245208-1.762175.62709" transform="translate(-14.770432 -8.724999)" stroke-dasharray="32,2,0,2"/><path id="brain-gear-s-path2" d="M24.87,20.545647c-1.145833-.26095-2.299708.30511-2.75,1.296718" transform="translate(-15.458352 -14.322365)"/><path id="brain-gear-s-path3" d="M21.812526,43.7c-.052254.692316.301468,1.436958.996855,1.928019.510486.362259,1.113423.523262,1.668124.487036" transform="translate(-15.275857 -28.2)"/><path id="brain-gear-s-path4" d="M28.34,42.523076c.270241-.471277,1.201967-.64851,1.698081-.394745.354944.181261.657452.535726.641319.894219" transform="translate(-19.178352 -27.19255)"/><path id="brain-gear-s-path5" d="M12.065536,25.63c0,0-3.837339,3.149922-.333857,6.376182c0,0-1.001569,4.250788,2.835769,4.483818" transform="translate(-8.475801 -17.4)" stroke-dasharray="14,2,0,2"/><path id="brain-gear-s-path6" d="M28.12,34.806563c0,0-2.708664.687563-3.85-1.266563" transform="translate(-16.748352 -22.13)" stroke-dashoffset="12" stroke-dasharray="6,2,0,2"/><path id="brain-gear-s-path7" d="M21.05,35.471526c0,0-1.802744,1.374821-3.27-.141526" transform="translate(-12.838352 -23.2)" stroke-dashoffset="6" stroke-dasharray="2,2,0,2"/><path id="brain-gear-s-path8" d="M18.77,17.731326C18.448125,16.701937,17.442266,15.95,16.247305,15.95C14.794844,15.95,13.62,17.059811,13.62,18.430989c0,.49459.152891.95299.414414,1.339011" transform="translate(-10.348352 -11.62)" stroke-dasharray="9,2,0,2"/><path id="brain-gear-s-path9" d="M30.42,25.65c0,0-1.469219,1.17-2.41,1.17" transform="translate(-18.948352 -17.41)"/><path id="brain-gear-s-path10" d="M14.5,24.74c0,0,.590748-.463087.86-.6" transform="translate(-10.878352 -16.51)"/><g id="brain-gear-u-mask-group" mask="url(#brain-gear-u-masks)"><g id="brain-gear-s-path11_tr" transform="translate(12.499999,12) rotate(270)"><path id="brain-gear-s-path11" d="M22.076625,12.08l-.418733,2.544939c-.667484.169939-1.297655.431064-1.878077.775087L17.66957,13.903735l-1.915389,1.914921l1.496657,2.10973c-.344107.580279-.605296,1.206152-.775277,1.877617L13.93,20.224634v2.710732c0,0,2.545561.418631,2.545561.418631.169981.67561.435316,1.309773.783569,1.890052l-1.504949,2.097295l1.915389,1.914921l2.097808-1.504581c.576275.344023,1.206447.605148,1.873931.779232L22.076625,31.08h2.80675c0,0,.435316-2.549084.435316-2.549084.667484-.169939,1.297656-.435209,1.873931-.779232l2.097808,1.504581l1.915389-1.914921-1.504949-2.097295c.348253-.580279.613588-1.214442.783569-1.890052L33.03,22.935366v-2.710732l-2.545561-.418631c-.169981-.667321-.43117-1.297338-.775277-1.877617l1.496657-2.10973-1.915389-1.914921-2.110245,1.496291c-.576276-.344023-1.206447-.605148-1.878077-.775087L24.883375,12.08h-2.80675Z" transform="translate(-23.48,-21.58)"/></g><path id="brain-gear-s-path12" d="M32.4,33.71c-1.77364,0-3.26-1.436755-3.26-3.215s1.48636-3.215,3.26-3.215s3.26,1.436755,3.26,3.215-1.48636,3.215-3.26,3.215Z" transform="translate(-19.900001 -18.495)"/><mask id="brain-gear-u-masks" mask-type="alpha" x="-150%" y="-150%" height="400%" width="400%"><rect id="brain-gear-s-rect1" width="9.5" height="15.2703" rx="0" ry="0" transform="matrix(1.210527 0 0 1.571678 12.552348 0.000003)" fill="#fff" stroke-width="0"/></mask></g></svg>