<svg id="circles-flow" xmlns="http://www.w3.org/2000/svg" xmlns:xlink="http://www.w3.org/1999/xlink" viewBox="0 0 24 24" stroke="currentColor" stroke-linecap="round" stroke-linejoin="round" shape-rendering="geometricPrecision" text-rendering="geometricPrecision">
<style><![CDATA[
#circles-flow{pointer-events: all}#circles-flow #circles-flow-s-g1_tr {animation: circles-flow-s-g1_tr__tr 1000ms linear infinite normal backwards}@keyframes circles-flow-s-g1_tr__tr { 0% {transform: translate(12.000001px,12px) rotate(0deg)} 100% {transform: translate(12.000001px,12px) rotate(360deg)}}
]]></style>
<g id="circles-flow-s-g1_tr" transform="translate(12.000001,12) rotate(0)"><g id="circles-flow-s-g1" transform="translate(-12,-11.999999)"><path id="circles-flow-u-ellipse" d="M-7.633673,-2.40027c.718217-2.286437,2.43532-4.130491,4.639854-5.020712" transform="translate(12 12)" fill="none"/><path id="circles-flow-u-ellipse2" d="M5.588141,-5.724748C7.076183,-4.271995,8,-2.243882,8,0c0,.27381-.013756.544407-.040614.811138" transform="translate(12 12)" fill="none"/><path id="circles-flow-u-ellipse3" d="M1.312301,7.892888C0.885322,7.963349,0.446941,8,0,8c-2.062018,0-3.941825-.780137-5.360369-2.061357" transform="translate(12 12)" fill="none"/><path id="circles-flow-s-path1" d="M1.893,12.9204c1.33209-.769,3.03541-.3126,3.80449,1.0195s.31268,3.0354-1.01941,3.8045-3.0354.3127-3.804488-1.0194-.31267-3.0354,1.019408-3.8046Z" transform="translate(1.499946 0.331317)" fill="none"/><path id="circles-flow-s-path2" d="M15.3227,17.7444c-1.3321-.7691-1.7885-2.4725-1.0194-3.8045s2.4725-1.7885,3.8044-1.0195c1.3321.7692,1.7886,2.4725,1.0195,3.8046s-2.4724,1.7884-3.8045,1.0194Z" transform="translate(2.499266 0.331317)" fill="none"/><path id="circles-flow-s-path3" d="M10.352,6.07109c1.5384,0,2.7855-1.24713,2.7855-2.78555s-1.2471-2.78554-2.7855-2.78554-2.78559,1.24713-2.78559,2.78554s1.24713,2.78555,2.78559,2.78555Z" transform="translate(1.648045 1.499999)" fill="none"/></g></g></svg>