<svg id="coffee-love" xmlns="http://www.w3.org/2000/svg" xmlns:xlink="http://www.w3.org/1999/xlink" viewBox="0 0 24 24" stroke="currentColor" stroke-linecap="round" stroke-linejoin="round" shape-rendering="geometricPrecision" text-rendering="geometricPrecision">
<style><![CDATA[
#coffee-love{pointer-events: all}#coffee-love #coffee-love-s-path5 {animation: coffee-love-s-path5_s_do 4000ms linear infinite normal backwards}@keyframes coffee-love-s-path5_s_do { 0% {stroke-dashoffset: 22} 45% {stroke-dashoffset: 22;animation-timing-function: cubic-bezier(0,0,0.58,1)} 100% {stroke-dashoffset: 66}} #coffee-love #coffee-love-s-path6 {animation: coffee-love-s-path6_s_do 4000ms linear infinite normal backwards}@keyframes coffee-love-s-path6_s_do { 0% {stroke-dashoffset: 4.17} 45% {stroke-dashoffset: 4.17} 62.5% {stroke-dashoffset: 1.39} 100% {stroke-dashoffset: 1.39}} #coffee-love #coffee-love-s-path7 {animation: coffee-love-s-path7_s_do 4000ms linear infinite normal backwards}@keyframes coffee-love-s-path7_s_do { 0% {stroke-dashoffset: 23.1} 52.5% {stroke-dashoffset: 23.1;animation-timing-function: cubic-bezier(0,0,0.58,1)} 77.5% {stroke-dashoffset: 7.7} 100% {stroke-dashoffset: 7.7}} #coffee-love #coffee-love-s-path8 {animation: coffee-love-s-path8_s_do 4000ms linear infinite normal backwards}@keyframes coffee-love-s-path8_s_do { 0% {stroke-dashoffset: 16.83;animation-timing-function: cubic-bezier(0,0,0.58,1)} 50% {stroke-dashoffset: 50.49} 100% {stroke-dashoffset: 50.49}}
]]></style>
<path id="coffee-love-s-path1" d="M2.753,20.5001c-1.13317,0-2.253-1.5431-2.253-1.5431h13.9113c0,0-.9866,1.5431-2.1197,1.5431h-9.5386Z" transform="translate(4.3494 1.499951)" fill="none"/><path id="coffee-love-s-path2" d="M12.3282,13.0977h.4566c1.1132,0,2.0164.8465,2.0164,1.8897s-.9032,1.8864-2.0164,1.8864h-.4566" transform="translate(4.3494 1.499951)" fill="none"/><path id="coffee-love-s-path3" d="M2.57635,17.3078v-5.7258h9.75525v7.3289" transform="translate(4.349401 1.499951)" fill="none"/><path id="coffee-love-s-path4" d="M4.39609,13.4102v2.6029" transform="translate(4.3494 1.499951)" fill="none"/><path id="coffee-love-s-path5" d="M8.30884,6.89878c1.69976-1.07984,3.13286-3.19619,1.83306-4.496-.71656-.71989-1.90638-.70656-2.63961.02667c0,0-.42327.42327-.45326.44993L6.5991,2.42945c-.73323-.73323-1.91972-.74656-2.63961-.02667s-.76656,1.77974.01999,2.74626c0,0,.39661.63658,1.33647,1.36647s2.09969,1.38979,2.19301,2.12302c.04333.33661,0,.70989-.20997,1.16982" transform="translate(4.3494 1.499951)" fill="none" stroke-dashoffset="22" stroke-dasharray="22"/><path id="coffee-love-s-path6" d="M4.7627,8.08597c-.21997-.15998-.4466-.32329-.6599-.48993-.11665-.08998-.2633-.20997-.42661-.34995" transform="translate(4.3494 1.499951)" fill="none" stroke-dashoffset="4.17" stroke-dasharray="1.39"/><path id="coffee-love-s-path7" d="M2.5497,6.00918c-1.20982-1.48311-1.17983-3.32284.07332-4.57599C3.22293,0.833284,4.02614,0.5,4.88602,0.5h.03332" transform="translate(4.349399 1.499951)" fill="none" stroke-dashoffset="23.1" stroke-dasharray="7.7"/><path id="coffee-love-s-path8" d="M11.1284,4.32812h-5.13588c-.65657,0-1.19316.58658-1.19316,1.24315s.53659,1.24315,1.19316,1.24315h2.30299c.50992,0,.92653.44327.92653.95319s-.41661.95653-.92653.95653h-1.00985c-.50992,0-.92653.4166-.92653.92653v.15664" transform="translate(4.349401 1.499951)" fill="none" stroke-dashoffset="16.83" stroke-dasharray="16.83"/></svg>