<svg id="confetti" xmlns="http://www.w3.org/2000/svg" xmlns:xlink="http://www.w3.org/1999/xlink" viewBox="0 0 24 24" stroke="currentColor" stroke-linecap="round" stroke-linejoin="round" shape-rendering="geometricPrecision" text-rendering="geometricPrecision">
<style><![CDATA[
#confetti{pointer-events: all}#confetti #confetti-s-g1_to {animation: confetti-s-g1_to__to 1000ms linear infinite normal backwards}@keyframes confetti-s-g1_to__to { 0% {transform: translate(1.977827px,21.972179px);animation-timing-function: cubic-bezier(0.55,0.055,0.675,0.19)} 10% {transform: translate(1.478936px,22.470638px);animation-timing-function: cubic-bezier(0.215,0.61,0.355,1)} 20% {transform: translate(1.977827px,21.972179px)} 100% {transform: translate(1.977827px,21.972179px)}} #confetti #confetti-s-g1_ts {animation: confetti-s-g1_ts__ts 1000ms linear infinite normal backwards}@keyframes confetti-s-g1_ts__ts { 0% {transform: scale(1,1);animation-timing-function: cubic-bezier(0.55,0.055,0.675,0.19)} 10% {transform: scale(0.9,0.9);animation-timing-function: cubic-bezier(0.215,0.61,0.355,1)} 20% {transform: scale(1,1)} 100% {transform: scale(1,1)}} #confetti #confetti-s-path1 {animation: confetti-s-path1__m 1000ms linear infinite normal backwards}@keyframes confetti-s-path1__m { 0% {d: path('M0.499817,24.7893C0.499817,24.7893,3.339233,17.780083,3.339233,17.780083C3.339233,17.780083,5.6896,11.9781,5.6896,11.9781C5.6896,11.9781,8.00318,13.1091,10.2661,15.372C12.5289,17.6348,13.3111,19.5995,13.3111,19.5995C13.3111,19.5995,7.460428,21.969583,7.460428,21.969583C7.460428,21.969583,0.499817,24.7893,0.499817,24.7893Z');animation-timing-function: cubic-bezier(0.55,0.055,0.675,0.19)} 10% {d: path('M0.499817,24.7893C0.499817,24.7893,2.385219,20.925274,3.464958,18.316891C4.572849,15.640499,5.6896,11.9781,5.6896,11.9781C5.6896,11.9781,7.184154,13.929592,9.447074,16.192492C11.709874,18.455292,13.3111,19.5995,13.3111,19.5995C13.3111,19.5995,9.087139,20.925274,7.244046,21.705142C5.129892,22.599704,0.499817,24.7893,0.499817,24.7893Z');animation-timing-function: cubic-bezier(0.215,0.61,0.355,1)} 20% {d: path('M0.499817,24.7893C0.499817,24.7893,1.725433,20.474453,2.805172,17.866068C3.913063,15.189679,5.6896,11.9781,5.6896,11.9781C5.6896,11.9781,8.00318,13.1091,10.2661,15.372C12.5289,17.6348,13.3111,19.5995,13.3111,19.5995C13.3111,19.5995,9.267096,21.704077,7.424003,22.483945C5.309849,23.378507,0.499817,24.7893,0.499817,24.7893Z');animation-timing-function: cubic-bezier(0.215,0.61,0.355,1)} 30% {d: path('M0.499817,24.7893C0.499817,24.7893,3.339233,17.780083,3.339233,17.780083C3.339233,17.780083,5.6896,11.9781,5.6896,11.9781C5.6896,11.9781,8.00318,13.1091,10.2661,15.372C12.5289,17.6348,13.3111,19.5995,13.3111,19.5995C13.3111,19.5995,7.460428,21.969583,7.460428,21.969583C7.460428,21.969583,0.499817,24.7893,0.499817,24.7893Z')} 100% {d: path('M0.499817,24.7893C0.499817,24.7893,3.339233,17.780083,3.339233,17.780083C3.339233,17.780083,5.6896,11.9781,5.6896,11.9781C5.6896,11.9781,8.00318,13.1091,10.2661,15.372C12.5289,17.6348,13.3111,19.5995,13.3111,19.5995C13.3111,19.5995,7.460428,21.969583,7.460428,21.969583C7.460428,21.969583,0.499817,24.7893,0.499817,24.7893Z')}} #confetti #confetti-u-copy-of-path {animation: confetti-u-copy-of-path__m 1000ms linear infinite normal backwards}@keyframes confetti-u-copy-of-path__m { 0% {d: path('M0.499817,24.7893C0.499817,24.7893,3.339233,17.780083,3.339233,17.780083C3.339233,17.780083,5.6896,11.9781,5.6896,11.9781C5.6896,11.9781,8.00318,13.1091,10.2661,15.372C12.5289,17.6348,13.3111,19.5995,13.3111,19.5995C13.3111,19.5995,7.460428,21.969583,7.460428,21.969583C7.460428,21.969583,0.499817,24.7893,0.499817,24.7893Z');animation-timing-function: cubic-bezier(0.55,0.055,0.675,0.19)} 10% {d: path('M0.499817,24.7893C0.499817,24.7893,2.385219,20.925274,3.464958,18.316891C4.572849,15.640499,5.6896,11.9781,5.6896,11.9781C5.6896,11.9781,7.184154,13.929592,9.447074,16.192492C11.709874,18.455292,13.3111,19.5995,13.3111,19.5995C13.3111,19.5995,9.087139,20.925274,7.244046,21.705142C5.129892,22.599704,0.499817,24.7893,0.499817,24.7893Z');animation-timing-function: cubic-bezier(0.215,0.61,0.355,1)} 20% {d: path('M0.499817,24.7893C0.499817,24.7893,1.725433,20.474453,2.805172,17.866068C3.913063,15.189679,5.6896,11.9781,5.6896,11.9781C5.6896,11.9781,8.00318,13.1091,10.2661,15.372C12.5289,17.6348,13.3111,19.5995,13.3111,19.5995C13.3111,19.5995,9.267096,21.704077,7.424003,22.483945C5.309849,23.378507,0.499817,24.7893,0.499817,24.7893Z');animation-timing-function: cubic-bezier(0.215,0.61,0.355,1)} 30% {d: path('M0.499817,24.7893C0.499817,24.7893,3.339233,17.780083,3.339233,17.780083C3.339233,17.780083,5.6896,11.9781,5.6896,11.9781C5.6896,11.9781,8.00318,13.1091,10.2661,15.372C12.5289,17.6348,13.3111,19.5995,13.3111,19.5995C13.3111,19.5995,7.460428,21.969583,7.460428,21.969583C7.460428,21.969583,0.499817,24.7893,0.499817,24.7893Z')} 100% {d: path('M0.499817,24.7893C0.499817,24.7893,3.339233,17.780083,3.339233,17.780083C3.339233,17.780083,5.6896,11.9781,5.6896,11.9781C5.6896,11.9781,8.00318,13.1091,10.2661,15.372C12.5289,17.6348,13.3111,19.5995,13.3111,19.5995C13.3111,19.5995,7.460428,21.969583,7.460428,21.969583C7.460428,21.969583,0.499817,24.7893,0.499817,24.7893Z')}} #confetti #confetti-s-path2 {animation: confetti-s-path2_s_do 1000ms linear infinite normal backwards}@keyframes confetti-s-path2_s_do { 0% {stroke-dashoffset: 39.54} 20% {stroke-dashoffset: 39.54} 80% {stroke-dashoffset: 13.18} 100% {stroke-dashoffset: 13.18}} #confetti #confetti-s-path3 {animation: confetti-s-path3_s_do 1000ms linear infinite normal backwards}@keyframes confetti-s-path3_s_do { 0% {stroke-dashoffset: 7.58} 20% {stroke-dashoffset: 7.58} 80% {stroke-dashoffset: 22.74} 100% {stroke-dashoffset: 22.74}} #confetti #confetti-s-path4 {animation: confetti-s-path4_s_do 1000ms linear infinite normal backwards}@keyframes confetti-s-path4_s_do { 0% {stroke-dashoffset: 7.58} 20% {stroke-dashoffset: 7.58} 80% {stroke-dashoffset: 22.74} 100% {stroke-dashoffset: 22.74}} #confetti #confetti-s-circle1_ts {animation: confetti-s-circle1_ts__ts 1000ms linear infinite normal backwards}@keyframes confetti-s-circle1_ts__ts { 0% {transform: translate(14.507107px,4.237556px) rotate(-45deg) scale(0,0)} 20% {transform: translate(14.507107px,4.237556px) rotate(-45deg) scale(0,0);animation-timing-function: cubic-bezier(0.55,0.055,0.675,0.19)} 50% {transform: translate(14.507107px,4.237556px) rotate(-45deg) scale(1,1);animation-timing-function: cubic-bezier(0.215,0.61,0.355,1)} 80% {transform: translate(14.507107px,4.237556px) rotate(-45deg) scale(0,0)} 100% {transform: translate(14.507107px,4.237556px) rotate(-45deg) scale(0,0)}} #confetti #confetti-s-circle2_ts {animation: confetti-s-circle2_ts__ts 1000ms linear infinite normal backwards}@keyframes confetti-s-circle2_ts__ts { 0% {transform: translate(19.178928px,8.760956px) rotate(-45deg) scale(0,0)} 20% {transform: translate(19.178928px,8.760956px) rotate(-45deg) scale(0,0);animation-timing-function: cubic-bezier(0.55,0.055,0.675,0.19)} 50% {transform: translate(19.178928px,8.760956px) rotate(-45deg) scale(1,1);animation-timing-function: cubic-bezier(0.215,0.61,0.355,1)} 80% {transform: translate(19.178928px,8.760956px) rotate(-45deg) scale(0,0)} 100% {transform: translate(19.178928px,8.760956px) rotate(-45deg) scale(0,0)}}
]]></style>
<g id="confetti-s-g1_to" transform="translate(1.977827,21.972179)"><g id="confetti-s-g1_ts" transform="scale(1,1)"><g id="confetti-s-g1" transform="translate(-1.896713,-21.903388)"><path id="confetti-s-path1" d="M0.499817,24.7893c0,0,2.839416-7.009217,2.839416-7.009217s2.350367-5.801983,2.350367-5.801983s2.31358,1.131,4.5765,3.3939c2.2628,2.2628,3.045,4.2275,3.045,4.2275s-5.850672,2.370083-5.850672,2.370083-6.960611,2.819717-6.960611,2.819717Z" transform="translate(1.419069 -2.88591)" fill="none"/><g id="confetti-u-mask-group" mask="url(#confetti-u-masks)"><path id="confetti-u-ellipse" d="M-4.444304,-1.444304c.338656-1.318198,1.716865-2.783135,3-3" transform="matrix(0 1 -1 0 2.779937 21.042339)" fill="none"/><path id="confetti-u-ellipse2" d="M-4.54215,0.45785c.354198-1.866637,3.078207-4.860204,5.216765-5.221645" transform="matrix(0 1 -1 0 6.102348 17.364749)" fill="none"/><mask id="confetti-u-masks" mask-type="luminance" x="-150%" y="-150%" height="400%" width="400%"><path id="confetti-u-copy-of-path" d="M0.499817,24.7893c0,0,2.839416-7.009217,2.839416-7.009217s2.350367-5.801983,2.350367-5.801983s2.31358,1.131,4.5765,3.3939c2.2628,2.2628,3.045,4.2275,3.045,4.2275s-5.850672,2.370083-5.850672,2.370083-6.960611,2.819717-6.960611,2.819717Z" transform="translate(1.419069 -2.88591)" fill="#fff" stroke-linecap="round" stroke-linejoin="round"/></mask></g></g></g></g><path id="confetti-s-path2" d="M10.9033,13.7513l.0091-.0021.0091-.0021.0091-.0021.0091-.0022.009-.0021.0091-.0022.0091-.0022.009-.0021.0091-.0022.009-.0022.009-.0022.009-.0023.009-.0022.009-.0022.009-.0023.009-.0023.0089-.0023.0089-.0022.009-.0024.0089-.0023.0089-.0023.0088-.0024.0089-.0023.0089-.0024.0088-.0024.0088-.0024.0088-.0025.0088-.0024.0088-.0025.0087-.0024.0087-.0025.0088-.0026.0087-.0025.0086-.0025.0087-.0026.0086-.0026.0087-.0026.0086-.0026.0085-.0027.0086-.0026.0086-.0027.0085-.0027.0085-.0028.0085-.0027.0084-.0028.0084-.0028.0085-.0028.0083-.0029.0084-.0028.0084-.0029.0083-.0029.0083-.003.0082-.0029.0083-.003.0082-.003.0082-.003.0082-.0031.0081-.0031.0082-.0031.0081-.0031.008-.0032.0081-.0032.008-.0032.008-.0032.0079-.0033.008-.0033.0079-.0033.0079-.0033.0078-.0034.0079-.0034.0078-.0035.0077-.0034.0078-.0035.0077-.0035.0077-.0036.0076-.0036.0076-.0036.0076-.0036.0076-.0037.0075-.0037.0075-.0037.0075-.0038.0074-.0038.0074-.0038.0074-.0038.0073-.0039.0074-.0039.0072-.004.0073-.004.0072-.004.0072-.004.0071-.0041.0072-.0041.007-.0042.0071-.0041.007-.0043.007-.0042.007-.0043.0069-.0043.0069-.0043.0068-.0044.0068-.0044.0068-.0045.0068-.0044.0067-.0046.0067-.0045.0066-.0046.0066-.0046.0066-.0047.0066-.0046.0065-.0048.0064-.0047.0065-.0048.0064-.0048.0063-.0049.0064-.0049.0063-.0049.0062-.005.0063-.005.0062-.0051.0061-.005.0061-.0051.0061-.0052.0061-.0052.006-.0052.0059-.0052.006-.0053.0059-.0054.0059-.0053.0058-.0054.0058-.0055.0057-.0054.0058-.0055.0057-.0056.0056-.0056.0056-.0056.0056-.0056.0056-.0057.0055-.0057.0054-.0058.0055-.0058.0054-.0058.0053-.0059.0054-.0059.0052-.0059.0053-.006.0052-.006.0052-.0061.0052-.006.0051-.0062.005-.0061.0051-.0062.005-.0062.005-.0063.0049-.0063.0049-.0063.0049-.0064.0048-.0064.0048-.0064.0047-.0065.0048-.0065.0046-.0066.0047-.0065.0046-.0066.0046-.0067.0045-.0067.0046-.0067.0044-.0067.0045-.0068.0044-.0068.0044-.0069.0043-.0069.0043-.0069.0043-.007.0043-.0069.0042-.0071.0041-.007.0042-.0071.0041-.0071.0041-.0072.004-.0072.004-.0072.004-.0072.004-.0073.0039-.0073.0039-.0074.0038-.0073.0039-.0074.0038-.0075.0037-.0074.0037-.0075.0037-.0076.0037-.0075.0037-.0076.0036-.0076.0035-.0077.0036-.0077.0035-.0077.0035-.0077.0035-.0078.0034-.0078.0034-.0078.0034-.0079.0033-.0079.0034-.0079.0033-.0079.0032-.008.0033-.008.0032-.008.0032-.008.0031-.0081.0032-.0081.0031-.0081.003-.0082.0031-.0081.003-.0082.003-.0082.003-.0083.003-.0083.0029-.0083.0029-.0083.0029-.0083.0029-.0084.0028-.0084.0028-.0084.0028-.0084.0028-.0085.0028-.0085.0027-.0085.0027-.0085.0027-.0085.0027-.0086.0026-.0086.0026-.0086.0026-.0086.0026-.0086.0026-.0087.0026-.0087.0025-.0087.0025-.0087.0025-.0087.0025-.0088.0024-.0087.0025-.0088.0024-.0088.0024-.0088.0024-.0089.0024-.0088.0024-.0089.0023-.0089.0024-.0089.0023-.0089.0023-.0089.0023-.0089.0023-.009.0022-.0089.0023-.009.0022-.009.0023-.009.0022-.009.0022-.009.0022-.0091.0022-.009.0022-.0091.0022-.009.0021-.0091.0022-.0091.0021-.0091.0021-.009.0022-.0092.0021-.0091.0021-.0091.0021-.0091.0021-.0091.0021-.0092.0021-.0091.0021-.0092.002-.0091.0021-.0092.0021-.0092.002-.0091.0021-.0092.002-.0092.0021-.0092.002-.0091.0021-.0092.002-.0092.0021-.0092.002-.0092.0021-.0092.002-.0092.0021-.0091.002-.0092.002-.0092.0021-.0092.002-.0092.0021-.0092.002-.0092.0021-.0091.002-.0092.0021-.0092.0021-.0091.002-.0092.0021-.0092.0021-.0091.002-.0092.0021-.0091.0021-.0092.0021-.0091.0021-.0091.0021-.0091.0021-.0092.0022-.0091.0021-.0091.0022-.009.0021-.0091.0022-.0091.0021-.0091.0022-.009.0022-.0091.0022-.009.0022-.009.0022-.009.0023-.009.0022-.009.0023-.009.0022-.0089.0023-.009.0023-.0089.0023-.0089.0023-.0089.0024-.0089.0023-.0089.0024-.0089.0024-.0088.0024-.0089.0024-.0088.0024-.0088.0025-.0088.0024-.0087.0025-.0088.0025-.0087.0025-.0087.0025-.0087.0026-.0087.0026-.0087.0025-.0086.0027-.0087.0026-.0086.0026-.0085.0027-.0086.0027-.0085.0027-.0086.0027-.0085.0028-.0084.0028-.0085.0027-.0084.0029-.0085.0028-.0083.0029-.0084.0029-.0084.0029-.0083.0029-.0083.003-.0082.0029-.0083.003-.0082.0031-.0082.003-.0082.0031-.0081.0031-.0082.0032-.0081.0031-.008.0032-.0081.0032-.008.0033-.008.0032-.008.0033-.0079.0033-.0079.0034-.0079.0034-.0078.0034-.0079.0034-.0078.0035-.0077.0034-.0078.0036-.0077.0035-.0077.0036-.0076.0036-.0076.0036-.0076.0037-.0076.0037-.0075.0037-.0075.0038-.0075.0038-.0074.0038-.0074.0039-.0074.0039-.0074.0039-.0073.0039-.0073.004-.0072.004-.0072.0041-.0072.004-.0072.0042-.0071.0041-.0071.0042-.007.0042-.007.0042-.007.0043-.007.0043-.0069.0044-.0069.0043-.0068.0044-.0069.0045-.0067.0045-.0068.0045-.0067.0045-.0067.0046-.0066.0046-.0067.0047-.0065.0047-.0066.0047-.0065.0047-.0065.0048-.0064.0049-.0064.0048-.0064.0049-.0063.005-.0063.0049-.0063.005-.0062.0051-.0062.005-.0061.0052-.0062.0051-.006.0052-.0061.0052-.006.0053-.006.0052-.0059.0054-.0059.0053-.0059.0054-.0058.0055-.0058.0054-.0058.0055-.0057.0056-.0057.0056-.0057.0056-.0056.0056-.0056.0057-.0055.0057-.0055.0058-.0055.0058-.0054.0058-.0054.0059-.0054.0059-.0053.0059-.0053.006-.0053.006-.0052.0061-.0052.006-.0051.0062-.0051.0061-.0051.0062-.005.0062-.005.0063-.005.0063-.0049.0063-.0049.0064-.0049.0064-.0048.0064-.0048.0065-.0048.0065-.0047.0065-.0047.0066-.0047.0066-.0046.0067-.0046.0067-.0045.0067-.0045.0067-.0045.0068-.0045.0068-.0044.0069-.0043.0069-.0044.0069-.0043.0069-.0043.007-.0042.007-.0042.0071-.0042.0071-.0042.0071-.0041.0071-.0041.0072-.004.0072-.004.0073-.004.0073-.0039.0073-.004.0073-.0039.0074-.0038.0074-.0038.0074-.0038.0075-.0038.0075-.0037.0075-.0037.0076-.0037.0076-.0036.0076-.0036.0077-.0036.0076-.0036.0078-.0035.0077-.0035.0078-.0035.0078-.0034.0078-.0034.0078-.0034.0079-.0033.0079-.0033.008-.0033.0079-.0033.008-.0032.008-.0033.0081-.0031.008-.0032.0081-.0031.0082-.0032.0081-.003.0082-.0031.0082-.003.0082-.003.0083-.003.0082-.003.0083-.0029.0083-.0029.0084-.0029.0083-.0029.0084-.0028.0084-.0028.0085-.0028.0084-.0028.0085-.0028.0085-.0027.0085-.0027.0086-.0027.0085-.0027.0086-.0026.0086-.0026.0086-.0026.0087-.0026.0086-.0026.0087-.0026.0087-.0025.0087-.0025.0088-.0025.0087-.0025.0088-.0024.0088-.0025.0088-.0024.0088-.0024.0088-.0024.0089-.0024.0088-.0024.0089-.0023.0089-.0024.0089-.0023.0089-.0023.009-.0023.0089-.0023.009-.0022.009-.0023.0089-.0023.009-.0022.009-.0022.0091-.0022.009-.0022.009-.0022.0091-.0022.0091-.0022.009-.0021.0091-.0022.0091-.0021.0091-.0021.0091-.0022.0091-.0021.0091-.0021.0092-.0021.0091-.0021.0091-.0021.0092-.0021.0091-.0021.0092-.002.0091-.0021.0092-.0021.0092-.002.0091-.0021.0092-.002.0092-.0021.0092-.002.0092-.0021.0091-.002.0092-.0021.0092-.002.0092-.0021.0092-.002.0092-.0021.0092-.002.0092-.002.0091-.0021.0092-.002.0092-.0021.0092-.002.0092-.0021.0091-.002.0092-.0021.0092-.0021.0092-.002.0091-.0021.0092-.0021.0091-.002.0092-.0021.0091-.0021.0091-.0021.0092-.0021.0091-.0021.0091-.0022.0091-.0021.0091-.0021.0091-.0022.0091-.0021.009-.0022.0091-.0021.0091-.0022.009-.0022.009-.0022.009-.0022.0091-.0022.009-.0023.0089-.0022.009-.0023.009-.0022.0089-.0023.009-.0023.0089-.0023.0089-.0023.0089-.0024.0089-.0023.0088-.0024.0089-.0024.0088-.0024.0088-.0024.0088-.0024.0088-.0025.0088-.0024.0087-.0025.0088-.0025.0087-.0025.0087-.0025.0087-.0026.0086-.0026.0087-.0025.0086-.0027.0086-.0026.0086-.0026.0086-.0027.0085-.0027.0085-.0027.0085-.0027.0085-.0028.0085-.0027.0084-.0028.0084-.0029.0084-.0028.0084-.0029.0083-.0028.0083-.003.0083-.0029.0083-.0029.0082-.003.0083-.003.0082-.0031.0081-.003.0082-.0031.0081-.0031.0081-.0031.0081-.0032.008-.0032.0081-.0032.0079-.0032.008-.0033.008-.0033.0079-.0033.0078-.0034.0079-.0033.0078-.0034.0078-.0035.0078-.0034.0077-.0035.0077-.0035.0077-.0036.0077-.0036.0076-.0036.0076-.0036.0076-.0037.0075-.0037.0075-.0037.0075-.0038.0074-.0038.0074-.0038.0074-.0038.0073-.0039.0073-.0039.0073-.004.0073-.004.0072-.00399.0072-.00404.0071-.00408.0072-.00411.007-.00415.0071-.00417.007-.00421.007-.00424.007-.00428.0069-.00431.0069-.00434.0068-.00438.0068-.00441.0068-.00444.0068-.00448.0067-.00451.0067-.00455.0066-.00458.0066-.00462.0066-.00465.0066-.00469.0065-.00472.0065-.00475.0064-.0048.0064-.00482.0064-.00486.0063-.0049.0063-.00493.0063-.00497.0062-.005.0062-.00504.0061-.00508.0062-.00511.006-.00514.0061-.00518.006-.00522.006-.00525.0059-.00529.0059-.00533.0059-.00536.0058-.0054.0058-.00543.0058-.00547.0057-.00551.0057-.00554.0057-.00558.0056-.00561.0056-.00565.0055-.00569.0055-.00572.0055-.00576.0054-.00579.0054-.00583.0054-.00587.0053-.0059.0053-.00594.0053-.00597.0052-.00601.0052-.00605.0051-.00608.0051-.00612.0051-.00615.005-.00619.0051-.00622.0049-.00626.005-.0063.0049-.00633.0048-.00636.0049-.0064.0047-.00644.0048-.00647.0047-.00651.0047-.00654.0047-.00658.0046-.00661.0046-.00664.0045-.00668.0045-.00672.0045-.00675.0045-.00678.0044-.00682.0044-.00685.0043-.00688.0043-.00692.0043-.00695.0043-.00699.0042-.00702.0041-.00705.0042-.00709.0041-.00711.0041-.00715.004-.00719.004-.00721.004-.00725.004-.00728.0039-.00731.0039-.00734.0038-.00738.0039-.0074.0038-.00744.0037-.00747.0038-.0075.0037-.00753.0036-.00755.0037-.00759.0036-.00762.0036-.00765.0035-.00768.0035-.00771.0035-.00774.0035-.00777.0034-.00779.0034-.00782.0034-.00786.0034-.00788.0033-.0079.0033-.00794.0033-.00796.0032-.00799.0032-.00802.0032-.00804.0032-.00807.0031-.0081.0031-.00812.0031-.00815.003-.00817.0031-.0082.003-.00822.003-.00825.0029-.00827.003-.00829.0029-.00832.0029-.00835.0028-.00836.0029-.00839.0028-.00841.0028-.00843.0028-.00846.0027-.00848.0027-.0085.0028-.00852.0026-.00854.0027-.00856.0027-.00858.0026-.0086.0026-.00862.0026-.00864.0026-.00866.0025-.00868.0025-.0087.0026-.00871.0025-.00874.0024-.00875.0025-.00877.0024-.00878.0025-.0088.0024-.00882.0024-.00883.0024-.00885.0023-.00886.0024-.00888.0023-.00889.0024-.00891.0023-.00892.0023-.00894.0022-.00895.0023-.00896.0023-.00897.0022-.00899.0022-.00899.0023-.00901.0022-.00902.0022-.00903.0022-.00904.0021-.00905.0022-.00907.0022-.00907.0021-.00908.0022-.00908.0021-.0091.0021-.0091.0022-.00912.0021-.00912.0021-.00912.0021-.00913.0021-.00914.002-.00915.0021-.00915.0021-.00915.0021-.00916.002-.00917.0021-.00917.0021-.00917.002-.00917.0021-.00918.002-.00918.0021-.00919.002-.00918.0021-.00919.002-.00918.002-.00919.0021-.00919.002-.00919.0021-.00919.002-.00919.0021-.00918.002-.00919.002-.00918.0021-.00918.002-.00918.0021-.00918.0021-.00917.002-.00917.0021-.00916.0021-.00916.002-.00916.0021-.00915.0021-.00915.0021-.00914.0021-.00913.0021-.00913.0021-.00912.0021-.00911.0021-.0091.0022-.0091.0021-.00909.0022-.00908.0021-.00907.0022-.00906.0022-.00906.0022-.00904.0022-.00903.0022-.00902.0022-.00901.0022-.009.0023-.00899.0022-.00897.0023-.00896.0023-.00895.0023-.00894.0023-.00892.0023-.00891.0023-.00889.0024-.00888.0024-.00887.0023-.00885.0024-.00883.0024-.00882.0025-.00881.0024-.00878.0025-.00877.0025-.00875.0024-.00874.0026-.00872.0025-.00869.0025-.00868.0026-.00867.0026-.00864.0026-.00862.0026-.00861.0027-.00858.0026-.00856.0027-.00855.0027-.00852.0028-.0085.0027-.00848.0028-.00846.0028-.00843.0028-.00842.0029-.00839.0028-.00837.0029-.00834.0029-.00832.0029-.0083.003-.00828.003-.00824.003-.00823.003-.0082.0031-.00818.0031-.00815.0031-.00812.0031-.0081.0031-.00807.0032-.00805.0032-.00802.0033-.00799.0032-.00796.0033-.00794.0034-.00791.0033-.00789.0034-.00785.0034-.00783.0034-.0078.0035-.00777.0035-.00774.0035-.00771.0035-.00768.0036-.00765.0036-.00763.0037-.00759.0036-.00756.0037-.00754.0038-.0075.0037-.00747.0038-.00744.0038-.00741.0039-.00738.0039-.00734.0039-.00732.0039-.00728.004-.00725.004-.00722.0041-.00718.004-.00716.0042-.00712.0041-.00709.0042-.00705.0042-.00703.0042-.00698.0043-.00696.0043-.00692.0043-.00689.0044-.00686.0044-.00682.0045-.00678.0045-.00675.0045-.00672.0045-.00669.0046-.00665.0046-.00661.0047-.00658.0046-.00655.0048-.00651.0047-.00647.0048-.00644.0048-.00641.0049-.00637.0049-.00633.0049-.0063.005-.00626.005-.00623.005-.0062.0051-.00615.0051-.00612.0052-.00609.0051-.00605.0053-.00601.0052-.00598.0053-.00594.0053-.00591.0054-.00587.0054-.00583.0054-.0058.0055-.00576.0055-.00573.0055-.00569.0056-.00565.0056-.00562.0057-.00558.0057-.00555.0057-.0055.0057-.00548.0058-.00544.0059-.0054.0058-.00536.0059-.00533.006-.00529.0059-.00526.006-.00522.0061-.00519.0061-.00515.0061-.00511.0061-.00508.0062-.00504.0063-.00501.0062-.00497.0063-.00494.0063-.0049.0064-.00486.0064-.00483.0064-.0048.0065-.00476.0065-.00472.0066-.00469.0065-.00466.0066-.00462.0067-.00458.0067-.00455.0067-.00452.0067-.00448.0068-.00445.0068-.00441.0069-.00439.0069-.00434.0069-.00431.0069-.00428.007-.00425.007-.00421.0071-.00418.0071-.00415.0071-.00411.0071-.00408.0072-.00405.0072-.00402.0073-.00398.0073-.00395.0073-.00392.0073-.00389.0074-.00386.0074-.00382.0074-.0038.0075-.00376.0075-.00373.0075-.00371.0076-.00367.0076-.00364.0076-.00361.0076-.00358.0077-.00355.0077-.00353.0078-.00349.0077-.00347.0078-.00343.0078-.00341.0079-.00338.0079-.00335.0079-.00332.0079-.0033.008-.00327.008-.00324.008-.00321.008-.00319.0081-.00316.0081-.00314.0081-.00311.0082-.00308.0081-.00306.0082-.00303.0083-.00301.0082-.00298.0083-.00296.0083-.00294.0083-.00291.0083-.00289.0084-.00287.0084-.00284.0084-.00282.0084-.0028.0085-.00277.0085-.00276.0085-.00273.0085-.00271.0085-.00269.0086-.00267.0086-.00265.0086-.00263.0086-.00261.0086-.00259.0087-.00257.0087-.00255.0087-.00253.0087-.00252.0087-.0025.0088-.00248.0087-.00246.0088-.00245.0088-.00243.0088-.00241.0089-.0024.0088-.00238.0089-.00237.0088-.00235.0089-.00234.0089-.00232.009-.00231.0089-.0023.0089-.00228.009-.00227.009-.00226.009-.00225.009-.00223.009-.00222.009-.00221.009-.0022.0091-.00219.009-.00218.0091-.00217.009-.00216.0091-.00216.0091-.00214.0091-.00213.0091-.00213.0091-.00212.0091-.00211.0092-.0021.0091-.0021.0091-.00209.0092-.00209.0091-.00208.0092-.00208.0092-.00207.0091-.00206.0092-.00207.0092-.00205.0091-.00206.0092-.00205.0092-.00205.0092-.00205.0092-.00205.0091-.00204.0092-.00204.0092-.00204.0092-.00205.0092-.00204.0092-.00204.0092-.00204.0092-.00205.0091-.00204.0092-.00205.0092-.00205.0092-.00205.0092-.00206.0091-.00206.0092-.00206.0092-.00206.0091-.00207.0092-.00208.0091-.00208.0092-.00208.0091-.00209.0092-.0021.0091-.00211.0091-.00211.0091-.00211.0091-.00213.0091-.00213.0091-.00214.0091-.00215.0091-.00216.009-.00217.0091-.00218.009-.00219.0091-.0022.009-.00221.009-.00222.009-.00223.009-.00224.0089-.00226.009-.00227.009-.00228.0089-.00229.0089-.00231.0089-.00232.0089-.00234.0089-.00235.0089-.00236.0088-.00238.0089-.0024.0088-.00241.0088-.00243.0088-.00244.0087-.00246.0088-.00248.0087-.0025.0087-.00251.0087-.00253.0087-.00255.0087-.00257.0086-.00259.0086-.00261.0086-.00262.0086-.00265.0086-.00266.0085-.00269.0086-.00271.0085-.00273.0084-.00275.0085-.00277.0084-.0028.0085-.00281.0083-.00284.0084-.00287.0084-.00288.0083-.00291.0083-.00293.0083-.00296.0082-.00298.0082-.003.0082-.00303.0082-.00306.0082-.00308.0081-.0031.0081-.00314.0081-.00315.008-.00319.008-.00321.008-.00324.008-.00326.0079-.00329.0079-.00332.0079-.00335.0079-.00337.0078-.00341.0078-.00343.0078-.00346.0077-.00349.0077-.00352.0077-.00355.0077-.00357.0076-.00361.0076-.00364.0075-.00367.0076-.00369.0075-.00373.0074-.00376.0075-.00379.0074-.00382.0074-.00385.0073-.00389.0073-.00391.0073-.00395.0073-.00398.0072-.00401.0072-.00405.0071-.00407.0071-.00411.0071-.00414.0071-.00418.007-.00421.007-.00424.007-.00427.0069-.00431.0069-.00434.0068-.00438.0068-.00441.0068-.00444.0068-.00448.0067-.00451.0067-.00454.0066-.00459.0067-.00461.0065-.00465.0066-.00469.0065-.00472.0065-.00475.0064-.00479.0064-.00482.0064-.00487.0063-.00489.0063-.00493.0063-.00497.0062-.005.0062-.00504.0062-.00507.0061-.00511.0061-.00514.006-.00518.006-.00522.006-.00525.006-.00529.0059-.00532.0058-.00536.0059-.0054.0058-.00543.0057-.00547.0058-.00551.0056-.00554.0057-.00557.0056-.00561.0056-.00565.0055-.00569.0056-.00572.0054-.00576.0055-.00579.0054-.00583.0053-.00586.0054-.0059.0053-.00594.0052-.00597.0052-.00601.0052-.00605.0052-.00608.0051-.00611.0051-.00615.005-.00619.005-.00623.005-.00625.0049-.0063.0049-.00633.0049-.00636.0048-.0064.0048-.00644.0048-.00647.0047-.0065.0047-.00654.0047-.00658.0046-.00661.0046-.00664.0045-.00668.0045-.00672.0045-.00674.0045-.00678.0044-.00682.0044-.00685.0043-.00688.0043-.00692.0043-.00695.0042-.00699.0043-.00701.0041-.00705.0042-.00709.0041-.00712.0041-.00714.004-.00719.004-.00721.004-.00725.004-.00727.0039-.00731.0039-.00735.0039-.00737.0038-.0074.0038-.00744.0037-.00747.0038-.00749.0037-.00753.0036-.00756.0037-.00759.0036-.00762.0036-.00765.0035-.00768.0036-.0077.0035-.00774.0034-.00776.0035-.0078.0034-.00782.0033-.00785.0034-.00788.0033-.00791.0033-.00793.0033-.00797.0032-.00798.0032-.00802.0032-.00804.0032-.00807.0031-.0081.0031-.00812.0031-.00814.0031-.00817.003-.0082.003-.00822.003-.00825.003-.00827.0029-.00829.0029-.00832.0029-.00834.0029-.00837.0028-.00839.0028-.00841.0028-.00843.0028-.00845.0028-.00848.0027-.0085.0027-.00852.0027-.00854.0027-.00856.0026-.00858.0026-.0086.0027-.00862.0025-.00864.0026-.00866.0026-.00868.0025-.0087.0025-.00871.0025-.00873.0025-.00875.0025-.00877.0024-.00878.0024-.0088.0025-.00882.0024-.00883.0023-.00885.0024-.00886.0024-.00888.0023-.00889.0023-.00891.0023-.00892.0023-.00894.0023-.00894.0023-.00896.0022-.00898.0023-.00898.0022-.009.0022-.00901.0022-.00902.0022-.00903.0022-.00904.0022-.00905.0022-.00906.0021-.00907.0022-.00908.0021-.00909.0022-.00909.0021-.00911.0021-.00911.0021-.00912.0021-.00912.0021-.00914.0021-.00913" transform="translate(1.41907 -2.88591)" fill="none" stroke-miterlimit="10" stroke-dashoffset="39.54" stroke-dasharray="13.18"/><path id="confetti-s-path3" d="M9.22883,4.98252c1.88357,1.88355,1.88357,4.93739,0,6.82098" transform="translate(1.358492 -2.642521)" fill="none" stroke-dashoffset="7.58" stroke-dasharray="7.58"/><path id="confetti-s-path4" d="M19.8616,15.8888c-1.8835-1.8836-4.9373-1.8836-6.8209,0" transform="translate(1.41907 -2.88591)" fill="none" stroke-dashoffset="7.58" stroke-dasharray="7.58"/><g id="confetti-s-circle1_ts" transform="translate(14.507107,4.237556) rotate(-45) scale(0,0)"><circle id="confetti-s-circle1" r="0.5" transform="translate(0,0)" fill="none"/></g><g id="confetti-s-circle2_ts" transform="translate(19.178928,8.760956) rotate(-45) scale(0,0)"><circle id="confetti-s-circle2" r="0.5" transform="translate(0,0)" fill="none"/></g></svg>