<svg id="crown" xmlns="http://www.w3.org/2000/svg" xmlns:xlink="http://www.w3.org/1999/xlink" viewBox="0 0 24 24" stroke="currentColor" stroke-linecap="round" stroke-linejoin="round" shape-rendering="geometricPrecision" text-rendering="geometricPrecision">
<style><![CDATA[
#crown{pointer-events: all}#crown #crown-s-g1_to {animation: crown-s-g1_to__to 1200ms linear infinite normal backwards}@keyframes crown-s-g1_to__to { 0% {offset-distance: 0%;animation-timing-function: cubic-bezier(0.6,-0.28,0.735,0.045)} 25% {offset-distance: 19.336473%;animation-timing-function: cubic-bezier(0.175,0.885,0.32,1.275)} 50% {offset-distance: 58.009418%;animation-timing-function: cubic-bezier(0.222722,0.622407,0.416289,0.978979)} 75% {offset-distance: 88.672946%;animation-timing-function: cubic-bezier(0.271036,-0.082361,0.598151,0.242248)} 100% {offset-distance: 100%}} #crown #crown-s-g1_tr {animation: crown-s-g1_tr__tr 1200ms linear infinite normal backwards}@keyframes crown-s-g1_tr__tr { 0% {transform: rotate(0deg);animation-timing-function: cubic-bezier(0.6,-0.28,0.735,0.045)} 25% {transform: rotate(-6deg);animation-timing-function: cubic-bezier(0.175,0.885,0.32,1.275)} 50% {transform: rotate(5deg);animation-timing-function: cubic-bezier(0.175,0.885,0.32,1.275)} 75% {transform: rotate(-5deg);animation-timing-function: cubic-bezier(0.175,0.885,0.32,1.275)} 100% {transform: rotate(0deg)}} #crown #crown-s-g1_ts {animation: crown-s-g1_ts__ts 1200ms linear infinite normal backwards}@keyframes crown-s-g1_ts__ts { 0% {transform: scale(1,1);animation-timing-function: cubic-bezier(0.6,-0.28,0.735,0.045)} 33.333333% {transform: scale(1,1.2);animation-timing-function: cubic-bezier(0.175,0.885,0.32,1.275)} 100% {transform: scale(1,1)}} #crown #crown-s-path4_ts {animation: crown-s-path4_ts__ts 1200ms linear infinite normal backwards}@keyframes crown-s-path4_ts__ts { 0% {transform: translate(5.483575px,3.31407px) scale(0,0)} 41.666667% {transform: translate(5.483575px,3.31407px) scale(0,0);animation-timing-function: cubic-bezier(0.175,0.885,0.32,1.275)} 58.333333% {transform: translate(5.483575px,3.31407px) scale(1,1);animation-timing-function: cubic-bezier(0.175,0.885,0.32,1.275)} 75% {transform: translate(5.483575px,3.31407px) scale(0,0)} 100% {transform: translate(5.483575px,3.31407px) scale(0,0)}} #crown #crown-s-path5_ts {animation: crown-s-path5_ts__ts 1200ms linear infinite normal backwards}@keyframes crown-s-path5_ts__ts { 0% {transform: translate(17.191276px,4.81407px) scale(0,0)} 50% {transform: translate(17.191276px,4.81407px) scale(0,0);animation-timing-function: cubic-bezier(0.175,0.885,0.32,1.275)} 66.666667% {transform: translate(17.191276px,4.81407px) scale(1,1);animation-timing-function: cubic-bezier(0.175,0.885,0.32,1.275)} 83.333333% {transform: translate(17.191276px,4.81407px) scale(0,0)} 100% {transform: translate(17.191276px,4.81407px) scale(0,0)}} #crown #crown-s-path6_ts {animation: crown-s-path6_ts__ts 1200ms linear infinite normal backwards}@keyframes crown-s-path6_ts__ts { 0% {transform: translate(21px,2.31407px) scale(0,0)} 58.333333% {transform: translate(21px,2.31407px) scale(0,0);animation-timing-function: cubic-bezier(0.175,0.885,0.32,1.275)} 75% {transform: translate(21px,2.31407px) scale(1,1);animation-timing-function: cubic-bezier(0.175,0.885,0.32,1.275)} 91.666667% {transform: translate(21px,2.31407px) scale(0,0)} 100% {transform: translate(21px,2.31407px) scale(0,0)}}
]]></style>
<g id="crown-s-g1_to" style="offset-path:path('M12.000005,20.500014L12.000005,18.500014L12.000005,22.500014C12.000005,21.166681,12.000005,20.500014,12.000005,19.32844Q12.000005,20.500014,12.000005,20.500014');offset-rotate:0deg"><g id="crown-s-g1_tr" transform="rotate(0)"><g id="crown-s-g1_ts" transform="scale(1,1)"><g id="crown-s-g1" transform="translate(-12.000005,-20.500013)"><path id="crown-s-path1" d="M0.511722,5.289711c-.094463-.434137.364033-.777202.749097-.56051L5.79311,7.279757c.24533.138065.55525.050861.694126-.195319l3.567338-6.323705c.19616-.347656.693287-.347656.889417,0l3.567368,6.323705c.138835.24618.448734.333384.694075.195319l4.532362-2.550556c.384995-.216692.843552.126373.749017.56051l-2.267512,10.421c-.029874.137334-.111518.256109-.233166.324775-3.461374,1.952672-11.512373,1.952672-14.973716,0-.121678-.068666-.203322-.187441-.233187-.324775l-2.26751-10.421Z" transform="translate(1.500725 3.000008)" fill="none"/><path id="crown-s-path2" d="M1.98241,0.72267c.19791-.296866.63414-.296866.83205.000001L4.21354,2.82128c.11196.16795.11196.38675,0,.5547L2.81446,5.4746c-.19791.29686-.63414.29686-.83205,0L0.583337,3.37598c-.111966-.16795-.111966-.38675.000001-.5547L1.98241,0.72267Z" transform="translate(9.601564 11.499978)" fill="none"/></g></g></g></g><g id="crown-s-path4_ts" transform="translate(5.483575,3.31407) scale(0,0)"><path id="crown-s-path4" d="M14.522475,0.5c.041668,0,.09166.016667.125005.041667s.049991.066666.066689.108333l.216665.758332c.049991.166668.133328.316669.249959.433335s.433329.249999.433329.249999l.758352.21667c.041669.016662.083337.03333.108358.066664s.041668.083332.041668.125-.016697.083331-.041668.116666-.066689.066669-.108358.075003l-.758352.216665c-.166622.041668-.316648.141667-.433329.258333s-.199968.258333-.249959.425001l-.216665.766665c-.016698.041668-.033345.075003-.066689.099999s-.083337.041668-.125005.041668-.083337-.016667-.116681-.041668-.066639-.058331-.074963-.099999l-.216665-.766665c-.041668-.166668-.141702-.308335-.258333-.425001s-.258333-.216665-.425006-.258333l-.758351-.216665c-.041669-.008334-.083337-.041668-.108308-.075003s-.041668-.074998-.041668-.116666.016647-.091665.041668-.125.066639-.050002.108308-.066664l.758351-.21667c.166673-.049997.308325-.133333.425006-.249999s.216665-.266667.258333-.433335L14.330831,0.65c.008324-.041667.041668-.083333.074963-.108333s.075013-.041667.116681-.041667Z" transform="translate(-14.5225,-2.5)" clip-rule="evenodd" fill="none" fill-rule="evenodd"/></g><g id="crown-s-path5_ts" transform="translate(17.191276,4.81407) scale(0,0)"><path id="crown-s-path5" d="M14.022481,0.5c.031251,0,.068745.0125.093754.03125s.037493.05.050017.08125l.162499.568749c.037493.125001.099996.237502.187469.325001s.324997.1875.324997.1875l.568764.162502c.031251.012497.062502.024998.081268.049998s.031251.062499.031251.09375-.012523.062498-.031251.087499-.050017.050002-.081268.056253l-.568764.162499c-.124967.031251-.237486.10625-.324997.193749s-.149976.19375-.187469.318751l-.162499.574999c-.012524.031251-.025009.056252-.050017.074999s-.062503.031251-.093754.031251-.062502-.0125-.08751-.031251-.04998-.043748-.056223-.074999l-.162498-.574999C13.684999,2.69375,13.609973,2.5875,13.5225,2.5s-.19375-.162498-.318755-.193749l-.568763-.162499c-.031252-.006251-.062503-.031251-.081231-.056253s-.031251-.056248-.031251-.087499.012485-.068749.031251-.09375.049979-.037501.081231-.049998l.568763-.162502c.125005-.037498.231244-.1.318755-.1875s.162499-.2.19375-.325001l.162498-.568749c.006243-.03125.031251-.0625.056223-.08125s.056259-.03125.08751-.03125Z" transform="translate(-14.0225,-2)" clip-rule="evenodd" fill="none" fill-rule="evenodd"/></g><g id="crown-s-path6_ts" transform="translate(21,2.31407) scale(0,0)"><path id="crown-s-path6" d="M13.522487,0.5c.020834,0,.04583.008333.062503.020833s.024995.033334.033345.054167l.108332.379166c.024996.083334.066664.158335.12498.216667s.216664.125.216664.125l.379176.108335c.020834.008331.041668.016665.054179.033332s.020834.041666.020834.0625-.008349.041665-.020834.058333-.033345.033334-.054179.037502l-.379176.108332c-.083311.020834-.158324.070834-.216664.129166s-.099984.129167-.12498.212501l-.108332.383333c-.00835.020834-.016673.037501-.033345.049999s-.041669.020834-.062503.020834-.041668-.008333-.05834-.020834-.03332-.029165-.037482-.049999l-.108332-.383333c-.020834-.083334-.070851-.154167-.129166-.212501s-.129167-.108332-.212504-.129166l-.379175-.108332c-.020835-.004168-.041669-.020834-.054154-.037502s-.020834-.037499-.020834-.058333.008323-.045833.020834-.0625.033319-.025001.054154-.033332l.379175-.108335c.083337-.024998.154163-.066666.212504-.125s.108332-.133333.129166-.216667L13.426665,0.575c.004162-.020833.020834-.041667.037482-.054167s.037506-.020833.05834-.020833Z" transform="translate(-13.5225,-1.5)" clip-rule="evenodd" fill="none" fill-rule="evenodd"/></g></svg>