<svg id="day-night" xmlns="http://www.w3.org/2000/svg" xmlns:xlink="http://www.w3.org/1999/xlink" viewBox="0 0 24 24" stroke="currentColor" stroke-linecap="round" stroke-linejoin="round" shape-rendering="geometricPrecision" text-rendering="geometricPrecision">
<style><![CDATA[
#day-night{pointer-events: all}#day-night #day-night-s-g1_tr {animation: day-night-s-g1_tr__tr 5400ms linear infinite normal backwards}@keyframes day-night-s-g1_tr__tr { 0% {transform: translate(12px,12.000001px) rotate(0deg)} 100% {transform: translate(12px,12.000001px) rotate(360deg)}} #day-night #day-night-s-g1 {animation: day-night-s-g1_c_o 5400ms linear infinite normal backwards}@keyframes day-night-s-g1_c_o { 0% {opacity: 1} 20.37037% {opacity: 1} 37.037037% {opacity: 0} 83.333333% {opacity: 0} 100% {opacity: 1}} #day-night #day-night-s-path9_ts {animation: day-night-s-path9_ts__ts 5400ms linear infinite normal backwards}@keyframes day-night-s-path9_ts__ts { 0% {transform: translate(14.000125px,10.052687px) scale(0,0)} 37.037037% {transform: translate(14.000125px,10.052687px) scale(0,0);animation-timing-function: cubic-bezier(0.645,0.045,0.355,1)} 44.444444% {transform: translate(14.000125px,10.052687px) scale(1,1)} 51.851852% {transform: translate(14.000125px,10.052687px) scale(0.8,0.8)} 59.259259% {transform: translate(14.000125px,10.052687px) scale(1,1)} 66.666667% {transform: translate(14.000125px,10.052687px) scale(0.8,0.8)} 74.074074% {transform: translate(14.000125px,10.052687px) scale(1,1)} 81.481481% {transform: translate(14.000125px,10.052687px) scale(0,0)} 100% {transform: translate(14.000125px,10.052687px) scale(0,0)}} #day-night #day-night-s-path10_ts {animation: day-night-s-path10_ts__ts 5400ms linear infinite normal backwards}@keyframes day-night-s-path10_ts__ts { 0% {transform: translate(16.14085px,7.499947px) scale(0,0)} 35.185185% {transform: translate(16.14085px,7.499947px) scale(0,0);animation-timing-function: cubic-bezier(0.645,0.045,0.355,1)} 42.592593% {transform: translate(16.14085px,7.499947px) scale(1,1)} 50% {transform: translate(16.14085px,7.499947px) scale(0.8,0.8)} 57.407407% {transform: translate(16.14085px,7.499947px) scale(1,1)} 64.814815% {transform: translate(16.14085px,7.499947px) scale(0.8,0.8)} 72.222222% {transform: translate(16.14085px,7.499947px) scale(1,1)} 79.62963% {transform: translate(16.14085px,7.499947px) scale(0,0)} 100% {transform: translate(16.14085px,7.499947px) scale(0,0)}} #day-night #day-night-u-ellipse {animation: day-night-u-ellipse__m 5400ms linear infinite normal backwards}@keyframes day-night-u-ellipse__m { 0% {d: path('M4.5,0C4.5,2.485281,2.485281,4.5,0,4.5C-2.485281,4.5,-4.5,2.485281,-4.5,0C-4.5,-2.485281,-2.485281,-4.5,0,-4.5C1.230119,-4.5,2.344956,-4.00642,3.157268,-3.206503C3.986118,-2.390301,4.5,-1.255162,4.5,0Z')} 33.333333% {d: path('M4.5,0C4.5,2.485281,2.485281,4.5,0,4.5C-2.485281,4.5,-4.5,2.485281,-4.5,0C-4.5,-2.485281,-2.485281,-4.5,0,-4.5C1.230119,-4.5,2.344956,-4.00642,3.157268,-3.206503C3.986118,-2.390301,4.5,-1.255162,4.5,0Z');animation-timing-function: cubic-bezier(0.215,0.61,0.23,1.2)} 42.592593% {d: path('M4.5,0C4.5,2.485281,2.485281,4.5,0,4.5C-2.485281,4.5,-4.5,2.485281,-4.5,0C-4.5,-2.485281,-2.485281,-4.5,0,-4.5C-1.205533,-3.577166,-1.37993,-1.257486,-0.064978,0.000001C1.432445,1.431985,3.577192,1.206046,4.5,0Z')} 81.481481% {d: path('M4.5,0C4.5,2.485281,2.485281,4.5,0,4.5C-2.485281,4.5,-4.5,2.485281,-4.5,0C-4.5,-2.485281,-2.485281,-4.5,0,-4.5C-1.205533,-3.577166,-1.37993,-1.257486,-0.064978,0.000001C1.432445,1.431985,3.577192,1.206046,4.5,0Z');animation-timing-function: cubic-bezier(0.215,0.61,0.23,1.2)} 90.740741% {d: path('M4.5,0C4.5,2.485281,2.485281,4.5,0,4.5C-2.485281,4.5,-4.5,2.485281,-4.5,0C-4.5,-2.485281,-2.485281,-4.5,0,-4.5C1.230119,-4.5,2.344956,-4.00642,3.157268,-3.206503C3.986118,-2.390301,4.5,-1.255162,4.5,0Z')} 100% {d: path('M4.5,0C4.5,2.485281,2.485281,4.5,0,4.5C-2.485281,4.5,-4.5,2.485281,-4.5,0C-4.5,-2.485281,-2.485281,-4.5,0,-4.5C1.230119,-4.5,2.344956,-4.00642,3.157268,-3.206503C3.986118,-2.390301,4.5,-1.255162,4.5,0Z')}}
]]></style>
<g id="day-night-s-g1_tr" transform="translate(12,12.000001) rotate(0)"><g id="day-night-s-g1" transform="translate(-12,-12)"><path id="day-night-s-path1" d="M3.42993,3.42969L5.35659,5.35634" transform="translate(1.5001 1.49995)" fill="none"/><path id="day-night-s-path2" d="M3.42993,17.5692l1.92666-1.9266" transform="translate(1.5001 1.49995)" fill="none"/><path id="day-night-s-path3" d="M17.57,17.5692l-1.9267-1.9266" transform="translate(1.5001 1.49995)" fill="none"/><path id="day-night-s-path4" d="M17.57,3.42969L15.6433,5.35634" transform="translate(1.5001 1.49995)" fill="none"/><path id="day-night-s-path5" d="M10.5,0.5v2.72665" transform="translate(1.5001 1.49995)" fill="none"/><path id="day-night-s-path6" d="M0.5,10.5h2.72665" transform="translate(1.5001 1.49995)" fill="none"/><path id="day-night-s-path7" d="M10.5,20.5001v-2.7267" transform="translate(1.5001 1.49995)" fill="none"/><path id="day-night-s-path8" d="M20.4998,10.5h-2.7266" transform="translate(1.5001 1.49995)" fill="none"/></g></g><g id="day-night-s-path9_ts" transform="translate(14.000125,10.052687) scale(0,0)"><path id="day-night-s-path9" d="M1.499997,5.0918c.022916,0,.041667.008333.060416.020833.016667.012499.029167.03125.035417.052083l.108332.379168c.022917.081251.066665.156251.127083.216662s.216667.127089.216667.127089l.379167.108334c.020838.006252.03958.018755.052083.035412C2.491665,6.050136,2.5,6.070974,2.5,6.0918c0,.022922-.008335.043748-.020838.060419-.012503.018754-.031245.029173-.052083.035412l-.379167.108334c-.081244.022922-.156249.06667-.216667.127089s-.104166.135411-.127083.216668l-.108332.379169c-.00625.020826-.01875.03958-.035417.052083-.018749.012504-.039582.020826-.060416.020826-.022917,0-.04375-.008322-.060416-.020826s-.029168-.031257-.035417-.052083l-.108333-.379169c-.022917-.081257-.066667-.15625-.127083-.216668s-.135416-.104167-.216666-.127089l-.379166-.108334c-.020833-.006239-.039583-.016658-.052083-.035412C0.508333,6.135548,0.5,6.114722,0.5,6.0918c0-.020826.008333-.041664.020833-.060419.0125-.016657.03125-.02916.052083-.035412l.379166-.108334c.08125-.022922.156249-.06667.216666-.127089s.104166-.135411.127083-.216662l.108333-.379168c.006249-.020833.016666-.039584.035417-.052083.016666-.0125.037499-.020833.060416-.020833Z" transform="translate(-1.5,-6.0918)" clip-rule="evenodd" fill="none" fill-rule="evenodd"/></g><g id="day-night-s-path10_ts" transform="translate(16.14085,7.499947) scale(0,0)"><path id="day-night-s-path10" d="M14.022481,0.5c.031251,0,.068745.0125.093754.03125s.037494.05.050017.08125l.162498.568749c.037494.125001.099996.237502.18747.325001s.324997.1875.324997.1875l.568764.162502c.031251.012497.062502.024997.081268.049998s.031251.062499.031251.09375-.012523.062499-.031251.0875-.050017.050001-.081268.056252l-.568764.162498c-.124967.031251-.237487.10625-.324997.19375s-.149976.19375-.18747.318751l-.162498.574999c-.012523.031251-.025009.056252-.050017.074999s-.062503.031251-.093754.031251-.062502-.0125-.087511-.031251-.049979-.043748-.056222-.074999l-.162498-.574999C13.684999,2.69375,13.609973,2.5875,13.5225,2.5s-.19375-.162499-.318754-.19375l-.568764-.162498c-.031252-.006251-.062503-.031252-.081231-.056252s-.031251-.056249-.031251-.0875.012485-.068749.031251-.09375.049979-.037501.081231-.049998l.568764-.162502c.125004-.037498.231243-.1.318754-.1875s.162499-.2.19375-.325001l.162498-.568749c.006243-.03125.031252-.0625.056222-.08125s.05626-.03125.087511-.03125Z" transform="translate(-14.0225,-2)" clip-rule="evenodd" fill="none" fill-rule="evenodd"/></g><path id="day-night-u-ellipse" d="M4.5,0C4.5,2.485281,2.485281,4.5,0,4.5s-4.5-2.014719-4.5-4.5s2.014719-4.5,4.5-4.5c1.230119,0,2.344956.49358,3.157268,1.293497C3.986118,-2.390301,4.5,-1.255162,4.5,0Z" transform="translate(12 12)" fill="none"/></svg>