<svg id="deny" xmlns="http://www.w3.org/2000/svg" xmlns:xlink="http://www.w3.org/1999/xlink" viewBox="0 0 24 24" stroke="currentColor" stroke-linecap="round" stroke-linejoin="round" shape-rendering="geometricPrecision" text-rendering="geometricPrecision">
<style><![CDATA[
#deny{pointer-events: all}#deny #deny-s-path1 {animation: deny-s-path1_s_do 1000ms linear infinite normal backwards}@keyframes deny-s-path1_s_do { 0% {stroke-dashoffset: 63} 40% {stroke-dashoffset: 0} 100% {stroke-dashoffset: 0}} #deny #deny-s-line1 {animation: deny-s-line1_s_do 1000ms linear infinite normal backwards}@keyframes deny-s-line1_s_do { 0% {stroke-dashoffset: 12} 60% {stroke-dashoffset: 12} 90% {stroke-dashoffset: 0} 100% {stroke-dashoffset: 0}} #deny #deny-s-line2 {animation: deny-s-line2_s_do 1000ms linear infinite normal backwards}@keyframes deny-s-line2_s_do { 0% {stroke-dashoffset: 45} 40% {stroke-dashoffset: 45} 80% {stroke-dashoffset: 25} 100% {stroke-dashoffset: 25}}
]]></style>
<g id="deny-s-g1" opacity="0.1"><path id="deny-u-copy-of-path" d="M17.804,3.672C19.476,5.46,20.5,7.86,20.5,10.5c0,5.524-4.476,10-10,10s-10-4.476-10-10s4.476-10,10-10c2.884,0,5.48,1.22,7.304,3.172Z" transform="translate(1.5 1.5)" fill="none"/><line id="deny-u-copy-of-line" x1="-5.567975" y1="0" x2="4.432025" y2="0" transform="matrix(0.707107 0.707107 -0.707107 0.707107 12.401619 12.401619)" fill="none"/><line id="deny-u-copy-of-line2" x1="-9.567975" y1="0" x2="5.432025" y2="0" transform="matrix(-0.707107 0.707107 -0.707107 -0.707107 12.305488 11.694512)" fill="none" stroke-dashoffset="25" stroke-dasharray="15"/></g><path id="deny-s-path1" d="M17.804,3.672C19.476,5.46,20.5,7.86,20.5,10.5c0,5.524-4.476,10-10,10s-10-4.476-10-10s4.476-10,10-10c2.884,0,5.48,1.22,7.304,3.172Z" transform="translate(1.5 1.5)" fill="none" stroke-dashoffset="63" stroke-dasharray="63"/><line id="deny-s-line1" x1="-5.567975" y1="0" x2="4.432025" y2="0" transform="matrix(0.707107 0.707107 -0.707107 0.707107 12.401619 12.401619)" fill="none" stroke-dashoffset="12" stroke-dasharray="12"/><line id="deny-s-line2" x1="-9.567975" y1="0" x2="5.432025" y2="0" transform="matrix(-0.707107 0.707107 -0.707107 -0.707107 12.305488 11.694512)" fill="none" stroke-dashoffset="45" stroke-dasharray="15"/></svg>