<svg id="dog-love" xmlns="http://www.w3.org/2000/svg" xmlns:xlink="http://www.w3.org/1999/xlink" viewBox="0 0 24 24" stroke="currentColor" stroke-linecap="round" stroke-linejoin="round" shape-rendering="geometricPrecision" text-rendering="geometricPrecision">
<style><![CDATA[
#dog-love{pointer-events: all}#dog-love #dog-love-s-g1_ts {animation: dog-love-s-g1_ts__ts 3000ms linear infinite normal backwards}@keyframes dog-love-s-g1_ts__ts { 0% {transform: translate(12px,12px) scale(1,1);animation-timing-function: cubic-bezier(0.445,0.05,0.55,0.95)} 6.666667% {transform: translate(12px,12px) scale(0.8,0.8);animation-timing-function: cubic-bezier(0.445,0.05,0.55,0.95)} 16.666667% {transform: translate(12px,12px) scale(1,1);animation-timing-function: cubic-bezier(0.445,0.05,0.55,0.95)} 26.666667% {transform: translate(12px,12px) scale(0.8,0.8);animation-timing-function: cubic-bezier(0.445,0.05,0.55,0.95)} 40% {transform: translate(12px,12px) scale(1,1);animation-timing-function: cubic-bezier(0.445,0.05,0.55,0.95)} 53.333333% {transform: translate(12px,12px) scale(0.8,0.8);animation-timing-function: cubic-bezier(0.39,0.575,0.565,1)} 73.333333% {transform: translate(12px,12px) scale(1,1)} 100% {transform: translate(12px,12px) scale(1,1)}} #dog-love #dog-love-u-copy-of-path_to {animation: dog-love-u-copy-of-path_to__to 3000ms linear infinite normal backwards}@keyframes dog-love-u-copy-of-path_to__to { 0% {transform: translate(12px,7.763188px)} 10% {transform: translate(12px,7.763188px)} 18.666667% {transform: translate(12px,4.763188px)} 28.666667% {transform: translate(12px,1.763188px)} 100% {transform: translate(12px,1.763188px)}} #dog-love #dog-love-u-copy-of-path_ts {animation: dog-love-u-copy-of-path_ts__ts 3000ms linear infinite normal backwards}@keyframes dog-love-u-copy-of-path_ts__ts { 0% {transform: scale(0,0)} 10% {transform: scale(0,0)} 18.666667% {transform: scale(1.1,1.1)} 28.666667% {transform: scale(0,0)} 100% {transform: scale(0,0)}} #dog-love #dog-love-u-copy-of-path2_to {animation: dog-love-u-copy-of-path2_to__to 3000ms linear infinite normal backwards}@keyframes dog-love-u-copy-of-path2_to__to { 0% {transform: translate(6.790598px,11.208947px)} 10% {transform: translate(6.790598px,11.208947px)} 18.666667% {transform: translate(4.790598px,11.208947px)} 28.666667% {transform: translate(1.790598px,11.208947px)} 100% {transform: translate(1.790598px,11.208947px)}} #dog-love #dog-love-u-copy-of-path2_ts {animation: dog-love-u-copy-of-path2_ts__ts 3000ms linear infinite normal backwards}@keyframes dog-love-u-copy-of-path2_ts__ts { 0% {transform: scale(0,0)} 10% {transform: scale(0,0)} 18.666667% {transform: scale(1.1,1.1)} 28.666667% {transform: scale(0,0)} 100% {transform: scale(0,0)}} #dog-love #dog-love-u-copy-of-path3_to {animation: dog-love-u-copy-of-path3_to__to 3000ms linear infinite normal backwards}@keyframes dog-love-u-copy-of-path3_to__to { 0% {transform: translate(7.96775px,14.75265px)} 10% {transform: translate(7.96775px,14.75265px)} 18.666667% {transform: translate(5.96775px,16.75265px)} 28.666667% {transform: translate(3.96775px,18.75265px)} 100% {transform: translate(3.96775px,18.75265px)}} #dog-love #dog-love-u-copy-of-path3_ts {animation: dog-love-u-copy-of-path3_ts__ts 3000ms linear infinite normal backwards}@keyframes dog-love-u-copy-of-path3_ts__ts { 0% {transform: scale(0,0)} 10% {transform: scale(0,0)} 18.666667% {transform: scale(1.1,1.1)} 28.666667% {transform: scale(0,0)} 100% {transform: scale(0,0)}} #dog-love #dog-love-u-copy-of-path4_to {animation: dog-love-u-copy-of-path4_to__to 3000ms linear infinite normal backwards}@keyframes dog-love-u-copy-of-path4_to__to { 0% {transform: translate(12px,17.2368px)} 10% {transform: translate(12px,17.2368px)} 18.666667% {transform: translate(12px,19.2368px)} 28.666667% {transform: translate(12px,22.2368px)} 100% {transform: translate(12px,22.2368px)}} #dog-love #dog-love-u-copy-of-path4_ts {animation: dog-love-u-copy-of-path4_ts__ts 3000ms linear infinite normal backwards}@keyframes dog-love-u-copy-of-path4_ts__ts { 0% {transform: scale(0,0)} 10% {transform: scale(0,0)} 18.666667% {transform: scale(1.1,1.1)} 28.666667% {transform: scale(0,0)} 100% {transform: scale(0,0)}} #dog-love #dog-love-u-copy-of-path5_to {animation: dog-love-u-copy-of-path5_to__to 3000ms linear infinite normal backwards}@keyframes dog-love-u-copy-of-path5_to__to { 0% {transform: translate(15.8857px,14.89915px)} 10% {transform: translate(15.8857px,14.89915px)} 18.666667% {transform: translate(17.8857px,16.89915px)} 28.666667% {transform: translate(19.8857px,18.89915px)} 100% {transform: translate(19.8857px,18.89915px)}} #dog-love #dog-love-u-copy-of-path5_ts {animation: dog-love-u-copy-of-path5_ts__ts 3000ms linear infinite normal backwards}@keyframes dog-love-u-copy-of-path5_ts__ts { 0% {transform: scale(0,0)} 10% {transform: scale(0,0)} 18.666667% {transform: scale(1.1,1.1)} 28.666667% {transform: scale(0,0)} 100% {transform: scale(0,0)}} #dog-love #dog-love-u-copy-of-path6_to {animation: dog-love-u-copy-of-path6_to__to 3000ms linear infinite normal backwards}@keyframes dog-love-u-copy-of-path6_to__to { 0% {transform: translate(17.210533px,11.208947px)} 10% {transform: translate(17.210533px,11.208947px)} 18.666667% {transform: translate(19.210533px,11.208947px)} 28.666667% {transform: translate(23.210533px,11.208947px)} 100% {transform: translate(23.210533px,11.208947px)}} #dog-love #dog-love-u-copy-of-path6_ts {animation: dog-love-u-copy-of-path6_ts__ts 3000ms linear infinite normal backwards}@keyframes dog-love-u-copy-of-path6_ts__ts { 0% {transform: scale(0,0)} 10% {transform: scale(0,0)} 18.666667% {transform: scale(1.1,1.1)} 28.666667% {transform: scale(0,0)} 100% {transform: scale(0,0)}} #dog-love #dog-love-u-copy-of-path7_to {animation: dog-love-u-copy-of-path7_to__to 3000ms linear infinite normal backwards}@keyframes dog-love-u-copy-of-path7_to__to { 0% {transform: translate(16.483066px,7.871404px)} 10% {transform: translate(16.483066px,7.871404px)} 18.666667% {transform: translate(18.483066px,5.871404px)} 28.666667% {transform: translate(21.483066px,2.871404px)} 100% {transform: translate(21.483066px,2.871404px)}} #dog-love #dog-love-u-copy-of-path7_ts {animation: dog-love-u-copy-of-path7_ts__ts 3000ms linear infinite normal backwards}@keyframes dog-love-u-copy-of-path7_ts__ts { 0% {transform: scale(0,0)} 10% {transform: scale(0,0)} 18.666667% {transform: scale(1.1,1.1)} 28.666667% {transform: scale(0,0)} 100% {transform: scale(0,0)}} #dog-love #dog-love-u-copy-of-path8_to {animation: dog-love-u-copy-of-path8_to__to 3000ms linear infinite normal backwards}@keyframes dog-love-u-copy-of-path8_to__to { 0% {transform: translate(7.562239px,7.871404px)} 10% {transform: translate(7.562239px,7.871404px)} 18.666667% {transform: translate(5.562239px,5.871404px)} 28.666667% {transform: translate(2.562239px,2.871404px)} 100% {transform: translate(2.562239px,2.871404px)}} #dog-love #dog-love-u-copy-of-path8_ts {animation: dog-love-u-copy-of-path8_ts__ts 3000ms linear infinite normal backwards}@keyframes dog-love-u-copy-of-path8_ts__ts { 0% {transform: scale(0,0)} 10% {transform: scale(0,0)} 18.666667% {transform: scale(1.1,1.1)} 28.666667% {transform: scale(0,0)} 100% {transform: scale(0,0)}} #dog-love #dog-love-s-path2_to {animation: dog-love-s-path2_to__to 3000ms linear infinite normal backwards}@keyframes dog-love-s-path2_to__to { 0% {transform: translate(7.562239px,7.871404px)} 10% {transform: translate(7.562239px,7.871404px)} 18.666667% {transform: translate(5.562239px,5.871404px)} 28.666667% {transform: translate(2.562239px,2.871404px)} 100% {transform: translate(2.562239px,2.871404px)}} #dog-love #dog-love-s-path2_ts {animation: dog-love-s-path2_ts__ts 3000ms linear infinite normal backwards}@keyframes dog-love-s-path2_ts__ts { 0% {transform: scale(0,0)} 10% {transform: scale(0,0)} 18.666667% {transform: scale(1.1,1.1)} 28.666667% {transform: scale(0,0)} 100% {transform: scale(0,0)}} #dog-love #dog-love-s-path3_to {animation: dog-love-s-path3_to__to 3000ms linear infinite normal backwards}@keyframes dog-love-s-path3_to__to { 0% {transform: translate(6.790598px,11.208947px)} 10% {transform: translate(6.790598px,11.208947px)} 18.666667% {transform: translate(4.790598px,11.208947px)} 28.666667% {transform: translate(1.790598px,11.208947px)} 100% {transform: translate(1.790598px,11.208947px)}} #dog-love #dog-love-s-path3_ts {animation: dog-love-s-path3_ts__ts 3000ms linear infinite normal backwards}@keyframes dog-love-s-path3_ts__ts { 0% {transform: scale(0,0)} 10% {transform: scale(0,0)} 18.666667% {transform: scale(1.1,1.1)} 28.666667% {transform: scale(0,0)} 100% {transform: scale(0,0)}} #dog-love #dog-love-s-path4_to {animation: dog-love-s-path4_to__to 3000ms linear infinite normal backwards}@keyframes dog-love-s-path4_to__to { 0% {transform: translate(7.96775px,14.75265px)} 10% {transform: translate(7.96775px,14.75265px)} 18.666667% {transform: translate(5.96775px,16.75265px)} 28.666667% {transform: translate(3.96775px,18.75265px)} 100% {transform: translate(3.96775px,18.75265px)}} #dog-love #dog-love-s-path4_ts {animation: dog-love-s-path4_ts__ts 3000ms linear infinite normal backwards}@keyframes dog-love-s-path4_ts__ts { 0% {transform: scale(0,0)} 10% {transform: scale(0,0)} 18.666667% {transform: scale(1.1,1.1)} 28.666667% {transform: scale(0,0)} 100% {transform: scale(0,0)}} #dog-love #dog-love-s-path5_to {animation: dog-love-s-path5_to__to 3000ms linear infinite normal backwards}@keyframes dog-love-s-path5_to__to { 0% {transform: translate(12px,17.2368px)} 10% {transform: translate(12px,17.2368px)} 18.666667% {transform: translate(12px,19.2368px)} 28.666667% {transform: translate(12px,22.2368px)} 100% {transform: translate(12px,22.2368px)}} #dog-love #dog-love-s-path5_ts {animation: dog-love-s-path5_ts__ts 3000ms linear infinite normal backwards}@keyframes dog-love-s-path5_ts__ts { 0% {transform: scale(0,0)} 10% {transform: scale(0,0)} 18.666667% {transform: scale(1.1,1.1)} 28.666667% {transform: scale(0,0)} 100% {transform: scale(0,0)}} #dog-love #dog-love-s-path6_to {animation: dog-love-s-path6_to__to 3000ms linear infinite normal backwards}@keyframes dog-love-s-path6_to__to { 0% {transform: translate(15.8857px,14.89915px)} 10% {transform: translate(15.8857px,14.89915px)} 18.666667% {transform: translate(17.8857px,16.89915px)} 28.666667% {transform: translate(19.8857px,18.89915px)} 100% {transform: translate(19.8857px,18.89915px)}} #dog-love #dog-love-s-path6_ts {animation: dog-love-s-path6_ts__ts 3000ms linear infinite normal backwards}@keyframes dog-love-s-path6_ts__ts { 0% {transform: scale(0,0)} 10% {transform: scale(0,0)} 18.666667% {transform: scale(1.1,1.1)} 28.666667% {transform: scale(0,0)} 100% {transform: scale(0,0)}} #dog-love #dog-love-s-path7_to {animation: dog-love-s-path7_to__to 3000ms linear infinite normal backwards}@keyframes dog-love-s-path7_to__to { 0% {transform: translate(17.210533px,11.208947px)} 10% {transform: translate(17.210533px,11.208947px)} 18.666667% {transform: translate(19.210533px,11.208947px)} 28.666667% {transform: translate(23.210533px,11.208947px)} 100% {transform: translate(23.210533px,11.208947px)}} #dog-love #dog-love-s-path7_ts {animation: dog-love-s-path7_ts__ts 3000ms linear infinite normal backwards}@keyframes dog-love-s-path7_ts__ts { 0% {transform: scale(0,0)} 10% {transform: scale(0,0)} 18.666667% {transform: scale(1.1,1.1)} 28.666667% {transform: scale(0,0)} 100% {transform: scale(0,0)}} #dog-love #dog-love-s-path8_to {animation: dog-love-s-path8_to__to 3000ms linear infinite normal backwards}@keyframes dog-love-s-path8_to__to { 0% {transform: translate(16.483066px,7.871404px)} 10% {transform: translate(16.483066px,7.871404px)} 18.666667% {transform: translate(18.483066px,5.871404px)} 28.666667% {transform: translate(21.483066px,2.871404px)} 100% {transform: translate(21.483066px,2.871404px)}} #dog-love #dog-love-s-path8_ts {animation: dog-love-s-path8_ts__ts 3000ms linear infinite normal backwards}@keyframes dog-love-s-path8_ts__ts { 0% {transform: scale(0,0)} 10% {transform: scale(0,0)} 18.666667% {transform: scale(1.1,1.1)} 28.666667% {transform: scale(0,0)} 100% {transform: scale(0,0)}} #dog-love #dog-love-s-path9_to {animation: dog-love-s-path9_to__to 3000ms linear infinite normal backwards}@keyframes dog-love-s-path9_to__to { 0% {transform: translate(12px,7.763188px)} 10% {transform: translate(12px,7.763188px)} 18.666667% {transform: translate(12px,4.763188px)} 28.666667% {transform: translate(12px,1.763188px)} 100% {transform: translate(12px,1.763188px)}} #dog-love #dog-love-s-path9_ts {animation: dog-love-s-path9_ts__ts 3000ms linear infinite normal backwards}@keyframes dog-love-s-path9_ts__ts { 0% {transform: scale(0,0)} 10% {transform: scale(0,0)} 18.666667% {transform: scale(1.1,1.1)} 28.666667% {transform: scale(0,0)} 100% {transform: scale(0,0)}}
]]></style>
<g id="dog-love-u-mask-group" mask="url(#dog-love-u-masks)"><g id="dog-love-s-g1_ts" transform="translate(12,12) scale(1,1)"><g id="dog-love-s-g1" transform="translate(-9.5,-8.1843)"><path id="dog-love-s-path1" d="M10.5,17.58c0,0,10-5.434091,10-11.918925C20.5,2.132794,17.698778,0.5,15.5,0.5c-3.218333,0-5,1.802777-5,1.802777s-1.781667-1.802777-5-1.802777c-2.198767,0-5,1.632794-5,5.161075C0.5,12.145909,10.5,17.58,10.5,17.58Z" transform="translate(-1 -0.8557)" fill="none"/><path id="dog-love-u-dog" d="M10.943764,13.998726c-.322746-1.164804-.640705-2.437242-.30324-4.267563h2.533649c0,0,1.457568-.161496,1.540693-2.760179L12.11771,5.835599c0,0-.083236-1.380095-1.623896-1.703088c0,0-3.570549-1.380095-4.783552,2.51548c0,0-1.540716,4.688358.811931,4.933113c0,0,2.920024.866176,2.029834-4.61012" transform="translate(-0.464866 -0.764425)" fill="none"/></g></g><mask id="dog-love-u-masks" mask-type="luminance" x="-150%" y="-150%" height="400%" width="400%"><g id="dog-love-s-g2"><rect id="dog-love-s-rect1" width="24" height="24" rx="0" ry="0" fill="#fff" stroke-width="0"/><g id="dog-love-u-copy-of-path_to" transform="translate(12,7.763188)"><g id="dog-love-u-copy-of-path_ts" transform="scale(0,0)"><path id="dog-love-u-copy-of-path" d="M12.9065,5.07913c.1913.12066.4326.12066.6238,0c.7269-.45615,2.4808-1.70687,2.4808-3.14006c0-.985865-.7828-1.43907-1.3949-1.43907-.8975,0-1.3948.79164-1.3948.79164s-.4974-.79164-1.3949-.79164c-.6121,0-1.3949.456148-1.3949,1.43907c0,1.43319,1.751,2.68391,2.4808,3.14006h-.0059Z" transform="translate(-13.22135,-2.834813)" stroke-linecap="round" stroke-linejoin="round"/></g></g><g id="dog-love-u-copy-of-path2_to" transform="translate(6.790598,11.208947)"><g id="dog-love-u-copy-of-path2_ts" transform="scale(0,0)"><path id="dog-love-u-copy-of-path2" d="M2.97484,11.7744c.19128.1207.43259.1207.62386,0c.72686-.4561,2.48073-1.7068,2.48073-3.14002c0-.98586-.78277-1.43907-1.39486-1.43907-.89753,0-1.39485.79164-1.39485.79164s-.49733-.79164-1.39486-.79164C1.28277,7.19531,0.5,7.65146,0.5,8.63438c0,1.43322,1.75093,2.68392,2.48073,3.14002h-.00589Z" transform="translate(-3.289715,-9.530117)" stroke-linecap="round" stroke-linejoin="round"/></g></g><g id="dog-love-u-copy-of-path3_to" transform="translate(7.96775,14.75265)"><g id="dog-love-u-copy-of-path3_ts" transform="scale(0,0)"><path id="dog-love-u-copy-of-path3" d="M4.15258,16.6299c.19127.1207.43258.1207.62386,0c.72685-.4561,2.48073-1.7069,2.48073-3.14c0-.9859-.78277-1.4391-1.39486-1.4391-.89754,0-1.39486.7916-1.39486.7916s-.49732-.7916-1.39486-.7916c-.61209,0-1.39486.4561-1.39486,1.4391c0,1.4331,1.75093,2.6839,2.48073,3.14h-.00588Z" transform="translate(-4.46745,-14.385612)" stroke-linecap="round" stroke-linejoin="round"/></g></g><g id="dog-love-u-copy-of-path4_to" transform="translate(12,17.2368)"><g id="dog-love-u-copy-of-path4_ts" transform="scale(0,0)"><path id="dog-love-u-copy-of-path4" d="M7.68383,19.5528c.19127.1206.43258.1206.62386,0c.72685-.4562,2.48071-1.7069,2.48071-3.1401c0-.9859-.7828-1.4391-1.39484-1.4391-.89754,0-1.39486.7917-1.39486.7917s-.49732-.7917-1.39486-.7917c-.61209,0-1.39486.4562-1.39486,1.4391c0,1.4332,1.75093,2.6839,2.48073,3.1401h-.00588Z" transform="translate(-7.99869,-17.308425)" stroke-linecap="round" stroke-linejoin="round"/></g></g><g id="dog-love-u-copy-of-path5_to" transform="translate(15.8857,14.89915)"><g id="dog-love-u-copy-of-path5_ts" transform="scale(0,0)"><path id="dog-love-u-copy-of-path5" d="M16.0705,16.7764c.1913.1207.4326.1207.6239,0c.7269-.4561,2.4807-1.7069,2.4807-3.1401c0-.9858-.7827-1.439-1.3948-1.439-.8976,0-1.3949.7916-1.3949.7916s-.4973-.7916-1.3948-.7916c-.6121,0-1.3949.4561-1.3949,1.439c0,1.4332,1.7509,2.684,2.4807,3.1401h-.0059Z" transform="translate(-16.3854,-14.532112)" stroke-linecap="round" stroke-linejoin="round"/></g></g><g id="dog-love-u-copy-of-path6_to" transform="translate(17.210533,11.208947)"><g id="dog-love-u-copy-of-path6_ts" transform="scale(0,0)"><path id="dog-love-u-copy-of-path6" d="M17.3948,11.7744c.1912.1207.4325.1207.6238,0c.7269-.4561,2.4808-1.7068,2.4808-3.14002c0-.98586-.7828-1.43907-1.3949-1.43907-.8975,0-1.3949.79164-1.3949.79164s-.4973-.79164-1.3948-.79164c-.6121,0-1.3949.45615-1.3949,1.43907c0,1.43322,1.751,2.68392,2.4808,3.14002h-.0059Z" transform="translate(-17.70965,-9.530117)" stroke-linecap="round" stroke-linejoin="round"/></g></g><g id="dog-love-u-copy-of-path7_to" transform="translate(16.483066,7.871404)"><g id="dog-love-u-copy-of-path7_ts" transform="scale(0,0)"><path id="dog-love-u-copy-of-path7" d="M16.512,6.62405c.1912.12066.4325.12066.6238,0c.7269-.45614,2.4807-1.70687,2.4807-3.14006c0-.98586-.7827-1.43907-1.3948-1.43907-.8976,0-1.3949.79164-1.3949.79164s-.4973-.79164-1.3948-.79164c-.6121,0-1.3949.45615-1.3949,1.43907c0,1.43319,1.7509,2.68392,2.4807,3.14006h-.0058Z" transform="translate(-16.8268,-4.379733)" stroke-linecap="round" stroke-linejoin="round"/></g></g><g id="dog-love-u-copy-of-path8_to" transform="translate(7.562239,7.871404)"><g id="dog-love-u-copy-of-path8_ts" transform="scale(0,0)"><path id="dog-love-u-copy-of-path8" d="M4.15258,6.62405c.19127.12066.43258.12066.62386,0c.72685-.45614,2.48073-1.70687,2.48073-3.14006c0-.98586-.78277-1.43907-1.39486-1.43907-.89754,0-1.39486.79164-1.39486.79164s-.49732-.79164-1.39486-.79164c-.61209,0-1.39486.45615-1.39486,1.43907c0,1.43319,1.75093,2.68392,2.48073,3.14006h-.00588Z" transform="translate(-4.46745,-4.379733)" stroke-linecap="round" stroke-linejoin="round"/></g></g></g></mask></g><g id="dog-love-s-path2_to" transform="translate(7.562239,7.871404)"><g id="dog-love-s-path2_ts" transform="scale(0,0)"><path id="dog-love-s-path2" d="M4.15258,6.62405c.19127.12066.43258.12066.62386,0c.72685-.45614,2.48073-1.70687,2.48073-3.14006c0-.98586-.78277-1.43907-1.39486-1.43907-.89754,0-1.39486.79164-1.39486.79164s-.49732-.79164-1.39486-.79164c-.61209,0-1.39486.45615-1.39486,1.43907c0,1.43319,1.75093,2.68392,2.48073,3.14006h-.00588Z" transform="translate(-4.46745,-4.379733)" fill="none"/></g></g><g id="dog-love-s-path3_to" transform="translate(6.790598,11.208947)"><g id="dog-love-s-path3_ts" transform="scale(0,0)"><path id="dog-love-s-path3" d="M2.97484,11.7744c.19128.1207.43259.1207.62386,0c.72686-.4561,2.48073-1.7068,2.48073-3.14002c0-.98586-.78277-1.43907-1.39486-1.43907-.89753,0-1.39485.79164-1.39485.79164s-.49733-.79164-1.39486-.79164C1.28277,7.19531,0.5,7.65146,0.5,8.63438c0,1.43322,1.75093,2.68392,2.48073,3.14002h-.00589Z" transform="translate(-3.289715,-9.530117)" fill="none"/></g></g><g id="dog-love-s-path4_to" transform="translate(7.96775,14.75265)"><g id="dog-love-s-path4_ts" transform="scale(0,0)"><path id="dog-love-s-path4" d="M4.15258,16.6299c.19127.1207.43258.1207.62386,0c.72685-.4561,2.48073-1.7069,2.48073-3.14c0-.9859-.78277-1.4391-1.39486-1.4391-.89754,0-1.39486.7916-1.39486.7916s-.49732-.7916-1.39486-.7916c-.61209,0-1.39486.4561-1.39486,1.4391c0,1.4331,1.75093,2.6839,2.48073,3.14h-.00588Z" transform="translate(-4.46745,-14.385612)" fill="none"/></g></g><g id="dog-love-s-path5_to" transform="translate(12,17.2368)"><g id="dog-love-s-path5_ts" transform="scale(0,0)"><path id="dog-love-s-path5" d="M7.68383,19.5528c.19127.1206.43258.1206.62386,0c.72685-.4562,2.48071-1.7069,2.48071-3.1401c0-.9859-.7828-1.4391-1.39484-1.4391-.89754,0-1.39486.7917-1.39486.7917s-.49732-.7917-1.39486-.7917c-.61209,0-1.39486.4562-1.39486,1.4391c0,1.4332,1.75093,2.6839,2.48073,3.1401h-.00588Z" transform="translate(-7.99869,-17.308425)" fill="none"/></g></g><g id="dog-love-s-path6_to" transform="translate(15.8857,14.89915)"><g id="dog-love-s-path6_ts" transform="scale(0,0)"><path id="dog-love-s-path6" d="M16.0705,16.7764c.1913.1207.4326.1207.6239,0c.7269-.4561,2.4807-1.7069,2.4807-3.1401c0-.9858-.7827-1.439-1.3948-1.439-.8976,0-1.3949.7916-1.3949.7916s-.4973-.7916-1.3948-.7916c-.6121,0-1.3949.4561-1.3949,1.439c0,1.4332,1.7509,2.684,2.4807,3.1401h-.0059Z" transform="translate(-16.3854,-14.532112)" fill="none"/></g></g><g id="dog-love-s-path7_to" transform="translate(17.210533,11.208947)"><g id="dog-love-s-path7_ts" transform="scale(0,0)"><path id="dog-love-s-path7" d="M17.3948,11.7744c.1912.1207.4325.1207.6238,0c.7269-.4561,2.4808-1.7068,2.4808-3.14002c0-.98586-.7828-1.43907-1.3949-1.43907-.8975,0-1.3949.79164-1.3949.79164s-.4973-.79164-1.3948-.79164c-.6121,0-1.3949.45615-1.3949,1.43907c0,1.43322,1.751,2.68392,2.4808,3.14002h-.0059Z" transform="translate(-17.70965,-9.530117)" fill="none"/></g></g><g id="dog-love-s-path8_to" transform="translate(16.483066,7.871404)"><g id="dog-love-s-path8_ts" transform="scale(0,0)"><path id="dog-love-s-path8" d="M16.512,6.62405c.1912.12066.4325.12066.6238,0c.7269-.45614,2.4807-1.70687,2.4807-3.14006c0-.98586-.7827-1.43907-1.3948-1.43907-.8976,0-1.3949.79164-1.3949.79164s-.4973-.79164-1.3948-.79164c-.6121,0-1.3949.45615-1.3949,1.43907c0,1.43319,1.7509,2.68392,2.4807,3.14006h-.0058Z" transform="translate(-16.8268,-4.379733)" fill="none"/></g></g><g id="dog-love-s-path9_to" transform="translate(12,7.763188)"><g id="dog-love-s-path9_ts" transform="scale(0,0)"><path id="dog-love-s-path9" d="M12.9065,5.07913c.1913.12066.4326.12066.6238,0c.7269-.45615,2.4808-1.70687,2.4808-3.14006c0-.985865-.7828-1.43907-1.3949-1.43907-.8975,0-1.3948.79164-1.3948.79164s-.4974-.79164-1.3949-.79164c-.6121,0-1.3949.456148-1.3949,1.43907c0,1.43319,1.751,2.68391,2.4808,3.14006h-.0059Z" transform="translate(-13.22135,-2.834813)" fill="none"/></g></g></svg>