<svg id="fire" xmlns="http://www.w3.org/2000/svg" xmlns:xlink="http://www.w3.org/1999/xlink" viewBox="0 0 24 24" stroke="currentColor" stroke-linecap="round" stroke-linejoin="round" shape-rendering="geometricPrecision" text-rendering="geometricPrecision">
<style><![CDATA[
#fire{pointer-events: all}#fire #fire-s-path8 {animation: fire-s-path8__m 900ms linear infinite normal backwards}@keyframes fire-s-path8__m { 0% {d: path('M28.49869,8.928918C28.520687,9.666955,28.011706,9.90407,27.489949,9.557035C26.968193,9.21,26.983796,8.535404,27.338953,6.630008C27.694109,4.724612,24.595714,3.48,24.595714,3.48C24.595714,3.48,25.30906,5.417742,24.121197,6.630008C23.084175,7.688386,21.239532,9.111072,21.239532,11.02997C21.239532,11.504198,21.098119,13.774842,24.639709,14.94')} 33.333333% {d: path('M28.49869,8.928918C28.520687,9.666955,27.912853,9.891222,27.390407,9.083431C26.867961,8.27564,29.37432,6.750447,27.699319,5.627494C26.024318,4.504541,26.106733,3.227023,26.106733,3.227023C26.106733,3.227023,23.408028,4.491736,23.408028,6.188971C23.408028,10.031343,21.239532,9.111072,21.239532,11.02997C21.239532,11.504198,21.098119,13.774842,24.639709,14.94')} 66.666667% {d: path('M28.49869,8.928918C28.489494,9.41741,28.024321,9.555665,27.690514,8.928918C27.356707,8.302171,28.904466,7.509562,27.699319,6.188971C26.494173,4.86838,26.106733,3.227023,26.106733,3.227023C26.106733,3.227023,24.463942,4.963868,23.289325,6.188971C21.984383,7.550001,21.239532,9.111072,21.239532,11.02997C21.239532,11.504198,21.098119,13.774842,24.639709,14.94')} 100% {d: path('M28.49869,8.928918C28.520687,9.666955,28.011706,9.90407,27.489949,9.557035C26.968193,9.21,26.983796,8.535404,27.338953,6.630008C27.694109,4.724612,24.595714,3.48,24.595714,3.48C24.595714,3.48,25.30906,5.417742,24.121197,6.630008C23.084175,7.688386,21.239532,9.111072,21.239532,11.02997C21.239532,11.504198,21.098119,13.774842,24.639709,14.94')}} #fire #fire-s-path9 {animation: fire-s-path9__m 900ms linear infinite normal backwards}@keyframes fire-s-path9__m { 0% {d: path('M36.73,23.84C39.005051,23.199728,40.005299,22.055427,40.355384,20.855618C40.972931,18.73917,39.567402,16.45,39.567402,16.45')} 33.333333% {d: path('M36.73,23.84C39.660107,23.386887,38.823941,22.447859,39.68,21.71C42.171701,19.562339,40.096813,17.649244,40.096813,17.649244')} 66.666667% {d: path('M36.73,23.84C39.660107,23.386887,40.164808,22.438931,40.555946,21.425282C41.306346,19.480593,39.84474,17.142101,39.84474,17.142101')} 100% {d: path('M36.73,23.84C39.005051,23.199728,40.005299,22.055427,40.355384,20.855618C40.972931,18.73917,39.567402,16.45,39.567402,16.45')}} #fire #fire-s-path10 {animation: fire-s-path10__m 900ms linear infinite normal backwards}@keyframes fire-s-path10__m { 0% {d: path('M33.11,19.935665C33.423659,19.197439,34.041567,18.61,34.041567,18.61C33.699679,20.227814,34.762982,21.019443,34.762982,21.019443C35.735324,21.839345,35.848241,22.433066,35.801193,23.048778C35.754144,23.661348,35.562812,24.515805,34.248581,25.32')} 33.333333% {d: path('M33.11,19.935665C33.579625,19.446984,33.928258,18.171308,33.928258,18.171308C33.58637,19.789122,34.450396,20.24,34.844313,20.89C35.498065,21.968752,35.548134,22.294313,35.501086,22.910025C35.454037,23.522595,35.078182,24.367255,34.248581,25.32')} 66.666667% {d: path('M33.11,19.935665C33.236501,18.947894,33.724675,17.889562,33.724675,17.889562C33.724675,19.463512,34.43951,20.246723,34.844313,20.89C35.294113,21.604782,35.270519,22.288928,35.223471,22.90464C35.176422,23.51721,34.744503,24.228846,34.248581,25.32')} 100% {d: path('M33.11,19.935665C33.423659,19.197439,34.041567,18.61,34.041567,18.61C33.699679,20.227814,34.762982,21.019443,34.762982,21.019443C35.735324,21.839345,35.848241,22.433066,35.801193,23.048778C35.754144,23.661348,35.562812,24.515805,34.248581,25.32')}} #fire #fire-s-path11 {animation: fire-s-path11__m 900ms linear infinite normal backwards}@keyframes fire-s-path11__m { 0% {d: path('M29.618765,26.475281C29.697176,25.00608,28.219919,23.809999,28.219919,23.809999C28.219919,23.809999,28.809567,24.736098,28.047416,25.633943C28.047416,25.633943,27.382493,26.459584,27.790229,27.366847C27.790229,27.366847,28.169736,28.352593,29.047936,28.879999')} 33.333333% {d: path('M29.618765,26.475281C28.854961,25.442784,28.670636,24.459999,28.670636,24.459999C28.670636,24.459999,27.790229,24.812338,27.691423,25.659999C27.636701,26.129459,27.691423,26.759999,28.085867,27.517099C28.31711,27.96095,28.620463,28.342765,29.047936,28.879999')} 66.666667% {d: path('M29.748168,26.849518C29.795386,25.692249,28.918406,24.979969,28.918406,24.979969C28.918406,24.979969,28.156498,25.345232,28.057692,26.192893C28.00297,26.662353,28.057692,26.929984,28.452136,27.798845C28.659021,28.25456,28.452137,27.798845,29.047936,28.879999')} 100% {d: path('M29.618765,26.475281C29.697176,25.00608,28.219919,23.809999,28.219919,23.809999C28.219919,23.809999,28.809567,24.736098,28.047416,25.633943C28.047416,25.633943,27.382493,26.459584,27.790229,27.366847C27.790229,27.366847,28.169736,28.352593,29.047936,28.879999')}}
]]></style>
<g id="fire-u-wood" transform="translate(5.930925 13.488371)"><path id="fire-s-path1" d="M3.27641,4.52991L1.05343,3.16982c-.538905-.3304-.712125-1.04252-.381725-1.58143L1.0021,1.0527c.3304-.538907,1.04253-.712127,1.58143-.381728L6.04791,2.7913" fill="none"/><path id="fire-s-path2" d="M8.90054,4.53308L11.0882,5.87393c.5389.33039.7122,1.04252.3818,1.58142l-.3304.53891c-.3304.5389-1.0426.71212-1.58147.38172L6.09375,6.25565" fill="none"/><path id="fire-s-path3" d="M3.40733,2.89389L0.927734,1.37341" fill="none"/><path id="fire-s-path4" d="M10.0684,6.96781L8.83984,6.21399" fill="none"/><path id="fire-s-path5" d="M1.05056,5.87391L9.55388,0.669196c.54172-.331574,1.25182-.160701,1.58342.381014l.3299.53898c.3315.54172.1607,1.25182-.381,1.5834L2.58284,8.3773c-.54172.33157-1.25182.1607-1.583393-.38102l-.3299-.53898c-.331574-.54172-.160701-1.25182.381013-1.58339Z" fill="none"/><path id="fire-s-path6" d="M10.0684,2.07593L7.47656,3.66377" fill="none"/><path id="fire-s-path7" d="M6.30074,4.37915L0.927734,7.66711" fill="none"/></g><g id="fire-u-flame"><path id="fire-s-path8" d="M28.49869,8.928918c.021997.738037-.486984.975152-1.008741.628117s-.506153-1.021631-.150996-2.927027-2.743239-3.150008-2.743239-3.150008.713346,1.937742-.474517,3.150008c-1.037022,1.058378-2.881665,2.481064-2.881665,4.399962c0,.474228-.141413,2.744872,3.400177,3.91003" transform="translate(-13.589321 -1.51)" fill="none"/><path id="fire-s-path9" d="M36.73,23.84c2.275051-.640272,3.275299-1.784573,3.625384-2.984382.617547-2.116448-.787982-4.405618-.787982-4.405618" transform="translate(-24.18 -10.41)" fill="none"/><path id="fire-s-path10" d="M33.11,19.935665c.313659-.738226.931567-1.325665.931567-1.325665-.341888,1.617814.721415,2.409443.721415,2.409443.972342.819902,1.085259,1.413623,1.038211,2.029335-.047049.61257-.238381,1.467027-1.552612,2.271222" transform="translate(-21.7 -11.89)" fill="none"/><path id="fire-s-path11" d="M29.618765,26.475281c.078411-1.469201-1.398846-2.665282-1.398846-2.665282s.589648.926099-.172503,1.823944c0,0-.664923.825641-.257187,1.732904c0,0,.379507.985746,1.257707,1.513152" transform="translate(-17.971522 -15.459999)" fill="none"/></g></svg>