<svg id="gear" xmlns="http://www.w3.org/2000/svg" xmlns:xlink="http://www.w3.org/1999/xlink" viewBox="0 0 24 24" stroke="currentColor" stroke-linecap="round" stroke-linejoin="round" shape-rendering="geometricPrecision" text-rendering="geometricPrecision">
<style><![CDATA[
#gear{pointer-events: all}#gear #gear-s-path2_tr {animation: gear-s-path2_tr__tr 1500ms linear infinite normal backwards}@keyframes gear-s-path2_tr__tr { 0% {transform: translate(12px,12px) rotate(0deg);animation-timing-function: cubic-bezier(0.9,-0.405,0.12,1.4)} 100% {transform: translate(12px,12px) rotate(360deg)}}
]]></style>
<path id="gear-s-path1" d="M10.5,13.5c1.6569,0,3-1.3431,3-3s-1.3431-3-3-3-3,1.34315-3,3s1.34315,3,3,3Z" transform="translate(1.5 1.5)" fill="none"/><g id="gear-s-path2_tr" transform="translate(12,12) rotate(0)"><path id="gear-s-path2" d="M17.2273,13.2273c-.121.2742-.1571.5783-.1037.8732s.1941.5671.4037.7813l.0545.0546c.1691.1688.3032.3693.3947.5901.0915.2207.1386.4573.1386.6962c0,.239-.0471.4756-.1386.6963s-.2256.4212-.3947.5901c-.1688.169-.3694.3031-.5901.3946s-.4573.1386-.6962.1386-.4756-.0471-.6963-.1386-.4212-.2256-.5901-.3946l-.0546-.0546c-.2142-.2095-.4863-.3501-.7812-.4036s-.5991-.0174-.8733.1036c-.2689.1153-.4982.3066-.6597.5505s-.2482.5297-.2494.8223v.1545c0,.4822-.1915.9447-.5325,1.2857-.341.3409-.8035.5325-1.2857.5325s-.94465-.1916-1.28562-.5325c-.34098-.341-.53253-.8035-.53253-1.2857v-.0818c-.00704-.3009-.10444-.5927-.27954-.8375s-.4198-.4313-.70228-.5352c-.2742-.121-.57836-.1571-.87326-.1037s-.56703.1941-.78129.4037l-.05454.0545c-.16886.1691-.36939.3032-.59011.3947s-.45732.1386-.69626.1386-.47553-.0471-.69625-.1386-.42125-.2256-.59011-.3947c-.16905-.1688-.30316-.3694-.39465-.5901s-.1386-.4573-.1386-.6962.0471-.4756.1386-.6963.2256-.4212.39465-.5901l.05454-.0546c.20958-.2142.35017-.4863.40365-.7812s.01737-.5991-.10365-.8733c-.11523-.2689-.30658-.4982-.55048-.6597s-.52971-.2482-.82224-.2494h-.15455c-.48221,0-.94467-.1915-1.28565-.5325s-.53253-.8035-.53253-1.2857.191558-.94465.53253-1.28562.80344-.53253,1.28565-.53253h.08182c.3009-.00704.59273-.10444.83754-.27954s.43129-.4198.53519-.70228c.12101-.2742.15711-.57836.10364-.87326s-.19406-.56703-.40364-.78129l-.05455-.05454c-.16905-.16886-.30315-.36939-.39465-.59011s-.1386-.45732-.1386-.69626.0471-.47553.1386-.69625.2256-.42125.39465-.59011c.16886-.16905.36939-.30316.59011-.39465s.45732-.1386.69626-.1386.47553.0471.69625.1386.42125.2256.59011.39465l.05454.05454c.21426.20958.48638.35017.78129.40365s.59906.01737.87326-.10365h.07273c.26888-.11523.49819-.30658.65972-.55048s.2482-.52971.24937-.82224v-.15455c0-.48221.19156-.94467.53253-1.28565s.80345-.53253,1.28565-.53253.9447.191558,1.2856.53253.5326.80344.5326,1.28565v.08182c.0011.29253.0878.57834.2494.82224s.3908.43525.6597.55049c.2742.12101.5783.15711.8732.10364s.5671-.19406.7813-.40364l.0546-.05455c.1688-.16905.3693-.30315.5901-.39465.2207-.0915.4573-.1386.6962-.1386.239,0,.4756.0471.6963.1386s.4212.2256.5901.39465c.169.16886.3031.36939.3946.59011s.1386.45732.1386.69626-.0471.47553-.1386.69625-.2256.42125-.3946.59011l-.0546.05454c-.2095.21426-.3501.48638-.4036.78129s-.0174.59906.1036.87326v.07273c.1153.26888.3066.49819.5505.65972s.5297.2482.8223.24937h.1545c.4822,0,.9447.19156,1.2857.53253.3409.34098.5325.80345.5325,1.28565s-.1916.9447-.5325,1.2856c-.341.341-.8035.5326-1.2857.5326h-.0818c-.2925.0011-.5783.0878-.8222.2494s-.4353.3908-.5505.6597Z" transform="translate(-10.5,-10.5)" fill="none"/></g></svg>