<svg id="globe-team" xmlns="http://www.w3.org/2000/svg" xmlns:xlink="http://www.w3.org/1999/xlink" viewBox="0 0 24 24" stroke="currentColor" stroke-linecap="round" stroke-linejoin="round" shape-rendering="geometricPrecision" text-rendering="geometricPrecision">
<style><![CDATA[
#globe-team{pointer-events: all}#globe-team #globe-team-s-path3 {animation: globe-team-s-path3__m 3000ms linear infinite normal backwards}@keyframes globe-team-s-path3__m { 0% {d: path('M4.7,8.9C2.3795,8.9,0.5,7.0205,0.5,4.7C0.5,2.3795,2.3795,0.5,4.7,0.5')} 16.666667% {d: path('M4.7,8.9C3.87677,7.90182,3.193578,6.509429,3.193578,4.699999C3.193578,2.890569,3.93038,1.509819,4.7,0.5')} 33.333333% {d: path('M4.7,8.9C5.530007,7.745854,6.327048,6.509429,6.327048,4.699999C6.327048,2.890569,5.513524,1.663316,4.7,0.5')} 50% {d: path('M4.7,8.9C6.496994,8.9,8.900001,7.393409,8.900001,4.699999C8.900001,2.006589,6.8,0.5,4.7,0.5')} 100% {d: path('M4.7,8.9C6.496994,8.9,8.900001,7.393409,8.900001,4.699999C8.900001,2.006589,6.8,0.5,4.7,0.5')}} #globe-team #globe-team-s-path4 {animation: globe-team-s-path4__m 3000ms linear infinite normal backwards}@keyframes globe-team-s-path4__m { 0% {d: path('M4.7,8.9C2.3795,8.9,0.5,7.0205,0.5,4.7C0.5,2.3795,2.3795,0.5,4.7,0.5')} 16.666667% {d: path('M4.7,8.9C2.3795,8.9,0.5,7.0205,0.5,4.7C0.5,2.3795,2.3795,0.5,4.7,0.5')} 33.333333% {d: path('M4.7,8.9C3.87677,7.90182,3.193578,6.509429,3.193578,4.699999C3.193578,2.890569,3.93038,1.509819,4.7,0.5')} 50% {d: path('M4.7,8.9C5.530007,7.745854,6.327048,6.509429,6.327048,4.699999C6.327048,2.890569,5.513524,1.663316,4.7,0.5')} 66.666667% {d: path('M4.7,8.9C6.496994,8.9,8.900001,7.393409,8.900001,4.699999C8.900001,2.006589,6.8,0.5,4.7,0.5')} 100% {d: path('M4.7,8.9C6.496994,8.9,8.900001,7.393409,8.900001,4.699999C8.900001,2.006589,6.8,0.5,4.7,0.5')}} #globe-team #globe-team-s-path5 {animation: globe-team-s-path5__m 3000ms linear infinite normal backwards}@keyframes globe-team-s-path5__m { 0% {d: path('M4.7,8.9C2.3795,8.9,0.5,7.0205,0.5,4.7C0.5,2.3795,2.3795,0.5,4.7,0.5')} 33.333333% {d: path('M4.7,8.9C2.3795,8.9,0.5,7.0205,0.5,4.7C0.5,2.3795,2.3795,0.5,4.7,0.5')} 50% {d: path('M4.7,8.9C3.87677,7.90182,3.193578,6.509429,3.193578,4.699999C3.193578,2.890569,3.93038,1.509819,4.7,0.5')} 66.666667% {d: path('M4.7,8.9C5.530007,7.745854,6.327048,6.509429,6.327048,4.699999C6.327048,2.890569,5.513524,1.663316,4.7,0.5')} 83.333333% {d: path('M4.7,8.9C6.496994,8.9,8.900001,7.393409,8.900001,4.699999C8.900001,2.006589,6.8,0.5,4.7,0.5')} 100% {d: path('M4.7,8.9C6.496994,8.9,8.900001,7.393409,8.900001,4.699999C8.900001,2.006589,6.8,0.5,4.7,0.5')}} #globe-team #globe-team-s-path6 {animation: globe-team-s-path6__m 3000ms linear infinite normal backwards}@keyframes globe-team-s-path6__m { 0% {d: path('M4.7,8.9C2.3795,8.9,0.5,7.0205,0.5,4.7C0.5,2.3795,2.3795,0.5,4.7,0.5')} 50% {d: path('M4.7,8.9C2.3795,8.9,0.5,7.0205,0.5,4.7C0.5,2.3795,2.3795,0.5,4.7,0.5')} 66.666667% {d: path('M4.7,8.9C3.87677,7.90182,3.193578,6.509429,3.193578,4.699999C3.193578,2.890569,3.93038,1.509819,4.7,0.5')} 83.333333% {d: path('M4.7,8.9C5.530007,7.745854,6.327048,6.509429,6.327048,4.699999C6.327048,2.890569,5.513524,1.663316,4.7,0.5')} 100% {d: path('M4.7,8.9C6.496994,8.9,8.900001,7.393409,8.900001,4.699999C8.900001,2.006589,6.8,0.5,4.7,0.5')}} #globe-team #globe-team-s-path7 {animation: globe-team-s-path7__m 3000ms linear infinite normal backwards}@keyframes globe-team-s-path7__m { 0% {d: path('M4.7,8.9C2.3795,8.9,0.5,7.0205,0.5,4.7C0.5,2.3795,2.3795,0.5,4.7,0.5')} 66.666667% {d: path('M4.7,8.9C2.3795,8.9,0.5,7.0205,0.5,4.7C0.5,2.3795,2.3795,0.5,4.7,0.5')} 83.333333% {d: path('M4.7,8.9C3.87677,7.90182,3.193578,6.509429,3.193578,4.699999C3.193578,2.890569,3.93038,1.509819,4.7,0.5')} 100% {d: path('M4.7,8.9C5.530007,7.745854,6.327048,6.509429,6.327048,4.699999C6.327048,2.890569,5.513524,1.663316,4.7,0.5')}} #globe-team #globe-team-s-path8 {animation: globe-team-s-path8__m 3000ms linear infinite normal backwards}@keyframes globe-team-s-path8__m { 0% {d: path('M4.7,8.9C2.3795,8.9,0.5,7.0205,0.5,4.7C0.5,2.3795,2.3795,0.5,4.7,0.5')} 83.333333% {d: path('M4.7,8.9C2.3795,8.9,0.5,7.0205,0.5,4.7C0.5,2.3795,2.3795,0.5,4.7,0.5')} 100% {d: path('M4.7,8.9C3.87677,7.90182,3.193578,6.509429,3.193578,4.699999C3.193578,2.890569,3.93038,1.509819,4.7,0.5')}} #globe-team #globe-team-s-path9 {animation: globe-team-s-path9__m 3000ms linear infinite normal backwards}@keyframes globe-team-s-path9__m { 0% {d: path('M4.7,8.9C3.87677,7.90182,3.193578,6.509429,3.193578,4.699999C3.193578,2.890569,3.93038,1.509819,4.7,0.5')} 16.666667% {d: path('M4.7,8.9C5.530007,7.745854,6.327048,6.509429,6.327048,4.699999C6.327048,2.890569,5.513524,1.663316,4.7,0.5')} 33.333333% {d: path('M4.7,8.9C6.496994,8.9,8.900001,7.393409,8.900001,4.699999C8.900001,2.006589,6.8,0.5,4.7,0.5')} 100% {d: path('M4.7,8.9C6.496994,8.9,8.900001,7.393409,8.900001,4.699999C8.900001,2.006589,6.8,0.5,4.7,0.5')}} #globe-team #globe-team-s-path10 {animation: globe-team-s-path10__m 3000ms linear infinite normal backwards}@keyframes globe-team-s-path10__m { 0% {d: path('M4.7,8.9C5.530007,7.745854,6.327048,6.509429,6.327048,4.699999C6.327048,2.890569,5.513524,1.663316,4.7,0.5')} 16.666667% {d: path('M4.7,8.9C6.496994,8.9,8.900001,7.393409,8.900001,4.699999C8.900001,2.006589,6.8,0.5,4.7,0.5')} 100% {d: path('M4.7,8.9C6.496994,8.9,8.900001,7.393409,8.900001,4.699999C8.900001,2.006589,6.8,0.5,4.7,0.5')}} #globe-team #globe-team-u-user_to {animation: globe-team-u-user_to__to 3000ms linear infinite normal backwards}@keyframes globe-team-u-user_to__to { 0% {offset-distance: 0%} 25% {offset-distance: 25%} 50% {offset-distance: 50%} 75% {offset-distance: 75%} 100% {offset-distance: 100%}} #globe-team #globe-team-u-user2_to {animation: globe-team-u-user2_to__to 3000ms linear infinite normal backwards}@keyframes globe-team-u-user2_to__to { 0% {offset-distance: 0%} 25% {offset-distance: 25%} 50% {offset-distance: 50%} 75% {offset-distance: 75%} 100% {offset-distance: 100%}} #globe-team #globe-team-u-user3_to {animation: globe-team-u-user3_to__to 3000ms linear infinite normal backwards}@keyframes globe-team-u-user3_to__to { 0% {offset-distance: 0%} 25% {offset-distance: 25%} 50% {offset-distance: 50%} 75% {offset-distance: 75%} 100% {offset-distance: 100%}} #globe-team #globe-team-u-user4_to {animation: globe-team-u-user4_to__to 3000ms linear infinite normal backwards}@keyframes globe-team-u-user4_to__to { 0% {offset-distance: 0%} 25% {offset-distance: 25%} 50% {offset-distance: 50%} 75% {offset-distance: 75%} 100% {offset-distance: 100%}} #globe-team #globe-team-s-ellipse1_tr {animation: globe-team-s-ellipse1_tr__tr 3000ms linear infinite normal backwards}@keyframes globe-team-s-ellipse1_tr__tr { 0% {transform: translate(12px,12px) rotate(70deg)} 100% {transform: translate(12px,12px) rotate(430deg)}}
]]></style>
<g id="globe-team-u-globe" transform="translate(7.3 7.3)"><path id="globe-team-s-path1" d="M8.9,4.7c0,2.3205-1.8795,4.2-4.2,4.2s-4.2-1.8795-4.2-4.2s1.8795-4.2,4.2-4.2s4.2,1.8795,4.2,4.2Z" fill="none"/><path id="globe-team-s-path2" d="M8.9,4.69995h-8.4" fill="none"/><path id="globe-team-s-path3" d="M4.7,8.9c-2.3205,0-4.2-1.8795-4.2-4.2s1.8795-4.2,4.2-4.2" fill="none"/><path id="globe-team-s-path4" d="M4.7,8.9c-2.3205,0-4.2-1.8795-4.2-4.2s1.8795-4.2,4.2-4.2" fill="none"/><path id="globe-team-s-path5" d="M4.7,8.9c-2.3205,0-4.2-1.8795-4.2-4.2s1.8795-4.2,4.2-4.2" fill="none"/><path id="globe-team-s-path6" d="M4.7,8.9c-2.3205,0-4.2-1.8795-4.2-4.2s1.8795-4.2,4.2-4.2" fill="none"/><path id="globe-team-s-path7" d="M4.7,8.9c-2.3205,0-4.2-1.8795-4.2-4.2s1.8795-4.2,4.2-4.2" fill="none"/><path id="globe-team-s-path8" d="M4.7,8.9c-2.3205,0-4.2-1.8795-4.2-4.2s1.8795-4.2,4.2-4.2" fill="none"/><path id="globe-team-s-path9" d="M4.7,8.9c-.82323-.99818-1.506422-2.390571-1.506422-4.200001s.736802-3.19018,1.506422-4.199999" fill="none"/><path id="globe-team-s-path10" d="M4.7,8.9c.830007-1.154146,1.627048-2.390571,1.627048-4.200001s-.813524-3.036683-1.627048-4.199999" fill="none"/></g><g id="globe-team-u-outer" transform="translate(2.5601 2.5001)"><g id="globe-team-u-user_to" style="offset-path:path('M3.429492,3.489492C6.748949,0.170036,12.130851,0.170036,15.450308,3.489492C18.769764,6.808949,18.769764,12.190851,15.450308,15.510308C12.130851,18.829764,6.748949,18.829764,3.429492,15.510308C0.110036,12.190851,0.110036,6.808949,3.429492,3.489492');offset-rotate:0deg"><g id="globe-team-u-user" transform="translate(-2.71559,-2.59992)"><path id="globe-team-s-path11" d="M0.5,4.69984c0-.86038.62234-1.17665,1.42491-1.17665h1.51334c.80258,0,1.49293.31967,1.49293,1.17665" fill="none"/><path id="globe-team-s-path12" d="M3.8305,2.05073c0,.62233-.50331,1.13243-1.11545,1.13243s-1.11544-.5101-1.11544-1.13243v-.4183c0-.62232.5033-1.13243,1.11544-1.13243s1.11545.51011,1.11545,1.13243v.4183Z" fill="none"/></g></g><g id="globe-team-u-user2_to" style="offset-path:path('M15.450308,3.489492C18.769764,6.808949,18.769764,12.190851,15.450308,15.510308C12.130851,18.829764,6.748949,18.829764,3.429492,15.510308C0.110036,12.190851,0.110036,6.808949,3.429492,3.489492C6.748949,0.170036,12.130851,0.170036,15.450308,3.489492');offset-rotate:0deg"><g id="globe-team-u-user2" transform="translate(-2.71559,-2.59992)"><path id="globe-team-s-path13" d="M0.5,4.69984c0-.86038.62234-1.17665,1.42491-1.17665h1.51334c.80258,0,1.49293.31967,1.49293,1.17665" fill="none"/><path id="globe-team-s-path14" d="M3.8305,2.05073c0,.62233-.50331,1.13243-1.11545,1.13243s-1.11544-.5101-1.11544-1.13243v-.4183c0-.62232.5033-1.13243,1.11544-1.13243s1.11545.51011,1.11545,1.13243v.4183Z" fill="none"/></g></g><g id="globe-team-u-user3_to" style="offset-path:path('M15.450308,15.510308C12.130851,18.829764,6.748949,18.829764,3.429492,15.510308C0.110036,12.190851,0.110036,6.808949,3.429492,3.489492C6.748949,0.170036,12.130851,0.170036,15.450308,3.489492C18.769764,6.808949,18.769764,12.190851,15.450308,15.510308');offset-rotate:0deg"><g id="globe-team-u-user3" transform="translate(-2.71559,-2.59992)"><path id="globe-team-s-path15" d="M0.5,4.69984c0-.86038.62234-1.17665,1.42491-1.17665h1.51334c.80258,0,1.49293.31967,1.49293,1.17665" fill="none"/><path id="globe-team-s-path16" d="M3.8305,2.05073c0,.62233-.50331,1.13243-1.11545,1.13243s-1.11544-.5101-1.11544-1.13243v-.4183c0-.62232.5033-1.13243,1.11544-1.13243s1.11545.51011,1.11545,1.13243v.4183Z" fill="none"/></g></g><g id="globe-team-u-user4_to" style="offset-path:path('M3.429492,15.510308C0.110036,12.190851,0.110036,6.808949,3.429492,3.489492C6.748949,0.170036,12.130851,0.170036,15.450308,3.489492C18.769764,6.808949,18.769764,12.190851,15.450308,15.510308C12.130851,18.829764,6.748949,18.829764,3.429492,15.510308');offset-rotate:0deg"><g id="globe-team-u-user4" transform="translate(-2.71559,-2.59992)"><path id="globe-team-s-path17" d="M0.5,4.69984c0-.86038.62234-1.17665,1.42491-1.17665h1.51334c.80258,0,1.49293.31967,1.49293,1.17665" fill="none"/><path id="globe-team-s-path18" d="M3.8305,2.05073c0,.62233-.50331,1.13243-1.11545,1.13243s-1.11544-.5101-1.11544-1.13243v-.4183c0-.62232.5033-1.13243,1.11544-1.13243s1.11545.51011,1.11545,1.13243v.4183Z" fill="none"/></g></g></g><g id="globe-team-s-ellipse1_tr" transform="translate(12,12) rotate(70)"><ellipse id="globe-team-s-ellipse1" rx="7.5" ry="7.5" transform="translate(0,0)" fill="none" stroke-dashoffset="47.12" stroke-dasharray="3,9"/></g></svg>