<svg id="globe" xmlns="http://www.w3.org/2000/svg" xmlns:xlink="http://www.w3.org/1999/xlink" viewBox="0 0 24 24" stroke="currentColor" stroke-linecap="round" stroke-linejoin="round" shape-rendering="geometricPrecision" text-rendering="geometricPrecision">
<style><![CDATA[
#globe{pointer-events: all}#globe #globe-s-path3 {animation: globe-s-path3__m 500ms linear infinite normal backwards}@keyframes globe-s-path3__m { 0% {d: path('M10.5,20.5C12.492546,17.599038,14.372,14.608136,14.372,10.5C14.372,6.391864,12.203813,2.929426,10.5,0.5')} 100% {d: path('M10.5,20.5C16.766005,20.446452,20.5,15.387965,20.5,10.5C20.5,5.612035,16.676241,0.5,10.5,0.5')}} #globe #globe-s-path4 {animation: globe-s-path4__m 500ms linear infinite normal backwards}@keyframes globe-s-path4__m { 0% {d: path('M10.5,20.5C8.281472,17.692617,6.91211,14.608136,6.91211,10.5C6.91211,6.391864,8.554153,3.147777,10.5,0.5')} 100% {d: path('M10.5,20.5C12.492546,17.599038,14.372,14.608136,14.372,10.5C14.372,6.391864,12.203813,2.929426,10.5,0.5')}} #globe #globe-s-path5 {animation: globe-s-path5__m 500ms linear infinite normal backwards}@keyframes globe-s-path5__m { 0% {d: path('M10.5,20.5C4.975,20.5,0.5,16.025,0.5,10.5C0.5,4.975,4.975,0.5,10.5,0.5')} 100% {d: path('M10.5,20.5C8.281472,17.692617,6.91211,14.608136,6.91211,10.5C6.91211,6.391864,8.554153,3.147777,10.5,0.5')}}
]]></style>
<path id="globe-s-path1" d="M20.5,10.5c0,5.525-4.475,10-10,10s-10-4.475-10-10s4.475-10,10-10s10,4.475,10,10Z" transform="translate(1.5 1.5)" fill="none"/><path id="globe-s-path2" d="M20.5,10.5h-20" transform="translate(1.5 1.5)" fill="none"/><path id="globe-s-path3" d="M10.5,20.5c1.992546-2.900962,3.872-5.891864,3.872-10s-2.168187-7.570574-3.872-10" transform="translate(1.5 1.5)" fill="none"/><path id="globe-s-path4" d="M10.5,20.5c-2.218528-2.807383-3.58789-5.891864-3.58789-10s1.642043-7.352223,3.58789-10" transform="translate(1.5 1.5)" fill="none"/><path id="globe-s-path5" d="M10.5,20.5c-5.525,0-10-4.475-10-10s4.475-10,10-10" transform="translate(1.5 1.5)" fill="none"/></svg>