<svg id="hand-waving" xmlns="http://www.w3.org/2000/svg" xmlns:xlink="http://www.w3.org/1999/xlink" viewBox="0 0 24 24" stroke="currentColor" stroke-linecap="round" stroke-linejoin="round" shape-rendering="geometricPrecision" text-rendering="geometricPrecision">
<style><![CDATA[
#hand-waving{pointer-events: all}#hand-waving #hand-waving-s-path1_tr {animation: hand-waving-s-path1_tr__tr 900ms linear infinite normal backwards}@keyframes hand-waving-s-path1_tr__tr { 0% {transform: translate(17px,20.660258px) rotate(-30deg);animation-timing-function: cubic-bezier(0.215,0.61,0.355,1)} 22.222222% {transform: translate(17px,20.660258px) rotate(-40deg);animation-timing-function: cubic-bezier(0.215,0.61,0.355,1)} 44.444444% {transform: translate(17px,20.660258px) rotate(-18deg);animation-timing-function: cubic-bezier(0.215,0.61,0.355,1)} 66.666667% {transform: translate(17px,20.660258px) rotate(-40deg);animation-timing-function: cubic-bezier(0.215,0.61,0.355,1)} 100% {transform: translate(17px,20.660258px) rotate(-30deg)}} #hand-waving #hand-waving-s-g1_to {animation: hand-waving-s-g1_to__to 900ms linear infinite normal backwards}@keyframes hand-waving-s-g1_to__to { 0% {transform: translate(4.584579px,16.061864px)} 28.888889% {transform: translate(4.584579px,16.061864px)} 51.111111% {transform: translate(3.584579px,17.061864px)} 100% {transform: translate(3.584579px,17.061864px)}} #hand-waving #hand-waving-s-g1 {animation: hand-waving-s-g1_c_o 900ms linear infinite normal backwards}@keyframes hand-waving-s-g1_c_o { 0% {opacity: 0} 28.888889% {opacity: 0} 40% {opacity: 1} 51.111111% {opacity: 0} 100% {opacity: 0}} #hand-waving #hand-waving-s-g2_to {animation: hand-waving-s-g2_to__to 900ms linear infinite normal backwards}@keyframes hand-waving-s-g2_to__to { 0% {transform: translate(16.499416px,4.674325px)} 22.222222% {transform: translate(17.499416px,3.674325px)} 55.555556% {transform: translate(16.499416px,4.674325px)} 77.777778% {transform: translate(17.499416px,3.674325px)} 100% {transform: translate(17.499416px,3.674325px)}} #hand-waving #hand-waving-s-g2 {animation: hand-waving-s-g2_c_o 900ms linear infinite normal backwards}@keyframes hand-waving-s-g2_c_o { 0% {opacity: 0} 11.111111% {opacity: 1} 22.222222% {opacity: 0} 55.555556% {opacity: 0} 66.666667% {opacity: 1} 77.777778% {opacity: 0} 100% {opacity: 0}}
]]></style>
<g id="hand-waving-s-path1_tr" transform="translate(17,20.660258) rotate(-30)"><path id="hand-waving-s-path1" d="M3.5,5.03782c0-.8354-.67157-1.51261-1.5-1.51261s-1.5.67721-1.5,1.51261v7.89918C0.5,17.1139,3.85786,20.5,8,20.5s7.5-3.3861,7.5-7.563v-5.29414c0-.27846-.2239-.5042-.5-.5042-1.0435,0-1.9625.53722-2.5,1.35237m-9-3.45321v-2.01681c0-.83539.67157-1.51261,1.5-1.51261s1.5.67722,1.5,1.51261m-3,2.01681v5.37818m9-1.92497v-5.47002c0-.83539-.6716-1.51261-1.5-1.51261s-1.5.67722-1.5,1.51261m3,5.47002c-.3159.47915-.5,1.05428-.5,1.67287v1.3184c0,.1172-.0708.2227-.1788.2663C10.4193,12.3141,9.5,13.6833,9.5,15.2059M6.5,3.02101v-1.0084C6.5,1.17721,7.1716,0.5,8,0.5s1.5.67721,1.5,1.51261v1.0084m-3,0v6.38655m3-6.38655v6.38655" transform="translate(-8.000001,-20.500005)" fill="none"/></g><g id="hand-waving-s-g1_to" transform="translate(4.584579,16.061864)"><g id="hand-waving-s-g1" transform="translate(-3.584579,-17.061864)" opacity="0"><path id="hand-waving-u-ellipse" d="M-10,-6c0-2.209139,1.790861-4,4-4" transform="matrix(0.258819 -0.965926 0.965926 0.258819 14.348466 10.88737)" fill="none"/><path id="hand-waving-u-ellipse2" d="M-10,-6c0-2.209139,1.790861-4,4-4" transform="matrix(0.258819 -0.965926 0.965926 0.258819 12.416614 11.922646)" fill="none"/></g></g><g id="hand-waving-s-g2_to" transform="translate(16.499416,4.674325)"><g id="hand-waving-s-g2" transform="translate(-16.499416,-4.674325)" opacity="0"><path id="hand-waving-u-ellipse3" d="M-10,-6c0-2.209139,1.790861-4,4-4" transform="matrix(-0.965926 0.258819 0.258819 0.965926 10.324922 15.438211)" fill="none"/><path id="hand-waving-u-ellipse4" d="M-10,-6c0-2.209139,1.790861-4,4-4" transform="matrix(-0.965926 0.258819 0.258819 0.965926 11.360198 13.506359)" fill="none"/></g></g></svg>