<svg id="happy-sad-masks" xmlns="http://www.w3.org/2000/svg" xmlns:xlink="http://www.w3.org/1999/xlink" viewBox="0 0 24 24" stroke="currentColor" stroke-linecap="round" stroke-linejoin="round" shape-rendering="geometricPrecision" text-rendering="geometricPrecision">
<style><![CDATA[
#happy-sad-masks{pointer-events: all}#happy-sad-masks #happy-sad-masks-u-sad_to {animation: happy-sad-masks-u-sad_to__to 3000ms linear infinite normal backwards}@keyframes happy-sad-masks-u-sad_to__to { 0% {transform: translate(15.78925px,10.182761px);animation-timing-function: cubic-bezier(0.86,0,0.07,1)} 16.666667% {transform: translate(8.20395px,13.81724px);animation-timing-function: step-end} 50% {transform: translate(8.20395px,13.81724px);animation-timing-function: cubic-bezier(0.86,0,0.07,1)} 66.666667% {transform: translate(15.78925px,10.182761px)} 100% {transform: translate(15.78925px,10.182761px)}} #happy-sad-masks #happy-sad-masks-u-copy-of-happy_to {animation: happy-sad-masks-u-copy-of-happy_to__to 3000ms linear infinite normal backwards}@keyframes happy-sad-masks-u-copy-of-happy_to__to { 0% {transform: translate(8.20395px,13.817254px);animation-timing-function: cubic-bezier(0.86,0,0.07,1)} 16.666667% {transform: translate(15.79395px,10.179935px);animation-timing-function: step-end} 50% {transform: translate(15.79395px,10.179935px);animation-timing-function: cubic-bezier(0.86,0,0.07,1)} 66.666667% {transform: translate(8.20395px,13.817254px)} 100% {transform: translate(8.20395px,13.817254px)}} #happy-sad-masks #happy-sad-masks-u-copy-of-happy {animation: happy-sad-masks-u-copy-of-happy_c_o 3000ms linear infinite normal backwards}@keyframes happy-sad-masks-u-copy-of-happy_c_o { 0% {opacity: 1;animation-timing-function: step-end} 6.666667% {opacity: 1} 16.666667% {opacity: 0;animation-timing-function: step-end} 50% {opacity: 0;animation-timing-function: step-end} 56.666667% {opacity: 0} 66.666667% {opacity: 1} 100% {opacity: 1}} #happy-sad-masks #happy-sad-masks-u-happy_to {animation: happy-sad-masks-u-happy_to__to 3000ms linear infinite normal backwards}@keyframes happy-sad-masks-u-happy_to__to { 0% {transform: translate(8.20395px,13.817254px);animation-timing-function: cubic-bezier(0.86,0,0.07,1)} 16.666667% {transform: translate(15.79395px,10.179935px);animation-timing-function: step-end} 50% {transform: translate(15.79395px,10.179935px);animation-timing-function: cubic-bezier(0.86,0,0.07,1)} 66.666667% {transform: translate(8.20395px,13.817254px)} 100% {transform: translate(8.20395px,13.817254px)}} #happy-sad-masks #happy-sad-masks-u-copy-of-sad_to {animation: happy-sad-masks-u-copy-of-sad_to__to 3000ms linear infinite normal backwards}@keyframes happy-sad-masks-u-copy-of-sad_to__to { 0% {transform: translate(15.78925px,10.182761px);animation-timing-function: cubic-bezier(0.86,0,0.07,1)} 16.666667% {transform: translate(8.20395px,13.81724px);animation-timing-function: step-end} 50% {transform: translate(8.20395px,13.81724px);animation-timing-function: cubic-bezier(0.86,0,0.07,1)} 66.666667% {transform: translate(15.78925px,10.182761px)} 100% {transform: translate(15.78925px,10.182761px)}} #happy-sad-masks #happy-sad-masks-u-copy-of-sad {animation: happy-sad-masks-u-copy-of-sad_c_o 3000ms linear infinite normal backwards}@keyframes happy-sad-masks-u-copy-of-sad_c_o { 0% {opacity: 0;animation-timing-function: step-end} 6.666667% {opacity: 0} 16.666667% {opacity: 1;animation-timing-function: step-end} 50% {opacity: 1;animation-timing-function: step-end} 56.666667% {opacity: 1} 66.666667% {opacity: 0} 100% {opacity: 0}}
]]></style>
<g id="happy-sad-masks-u-mask-group" mask="url(#happy-sad-masks-u-masks)"><g id="happy-sad-masks-u-sad_to" transform="translate(15.78925,10.182761)"><g id="happy-sad-masks-u-sad" transform="translate(-15.756049,-9.380827)"><path id="happy-sad-masks-s-path1" d="M14.2957,1.52399C11.0438,1.52399,8.0918,0.5,8.0918,0.5v7.78393c0,3.93597,3.252,7.15597,6.2039,7.15597s6.204-3.22,6.204-7.15597v-7.78393c0,0-2.952,1.02399-6.204,1.02399Z" transform="translate(1.4603 1.410877)" fill="none"/><path id="happy-sad-masks-s-path2" d="M17.2046,11.8757c0-1.6039-1.3-2.90793-2.908-2.90793-1.6079,0-2.9079,1.30003-2.9079,2.90793c0,0,1.3-.5799,2.9079-.5799c1.608,0,2.908.5799,2.908.5799Z" transform="translate(1.4603 1.410877)" fill="none"/><path id="happy-sad-masks-s-path3" d="M14.2957,1.52399C11.0438,1.52399,8.0918,0.5,8.0918,0.5v7.78393c0,3.93597,3.252,7.15597,6.2039,7.15597s6.204-3.22,6.204-7.15597v-7.78393c0,0-2.952,1.02399-6.204,1.02399Z" transform="translate(1.4603 1.410877)" fill="none"/><path id="happy-sad-masks-s-path4" d="M10.7598,4.74805c.204.37599.604.63199,1.064.63199s.8479-.248,1.0519-.61599" transform="translate(1.4603 1.410877)" fill="none"/><path id="happy-sad-masks-s-path5" d="M15.7207,4.74805c.204.37599.604.63199,1.064.63199s.848-.248,1.052-.61599" transform="translate(1.4603 1.410877)" fill="none"/></g></g><mask id="happy-sad-masks-u-masks" mask-type="luminance" x="-150%" y="-150%" height="400%" width="400%"><g id="happy-sad-masks-s-g1"><rect id="happy-sad-masks-s-rect1" width="24" height="24" rx="0" ry="0" fill="#fff" stroke-width="0"/><g id="happy-sad-masks-u-copy-of-happy_to" transform="translate(8.20395,13.817254)"><path id="happy-sad-masks-u-copy-of-happy" d="M6.70394,5.24762C3.45197,5.24762,0.5,4.22363,0.5,4.22363v7.78397c0,3.9359,3.25197,7.1559,6.20394,7.1559s6.20396-3.22,6.20396-7.1559v-7.78397c0,0-2.95199,1.02399-6.20396,1.02399Z" transform="translate(-6.70395,-11.693565)" stroke-linecap="round" stroke-linejoin="round"/></g></g></mask></g><g id="happy-sad-masks-u-mask-group2" mask="url(#happy-sad-masks-u-masks2)"><g id="happy-sad-masks-u-happy_to" transform="translate(8.20395,13.817254)"><g id="happy-sad-masks-u-happy" transform="translate(-8.16425,-13.104442)"><path id="happy-sad-masks-s-path6" d="M6.70394,5.24762C3.45197,5.24762,0.5,4.22363,0.5,4.22363v7.78397c0,3.9359,3.25197,7.1559,6.20394,7.1559s6.20396-3.22,6.20396-7.1559v-7.78397c0,0-2.95199,1.02399-6.20396,1.02399Z" transform="translate(1.4603 1.410877)" fill="none"/><path id="happy-sad-masks-s-path7" d="M9.60891,12.8682c0,1.6039-1.29998,2.9079-2.90797,2.9079s-2.90797-1.3-2.90797-2.9079c0,0,1.29999.58,2.90797.58s2.90797-.58,2.90797-.58Z" transform="translate(1.4603 1.410877)" fill="none"/><path id="happy-sad-masks-s-path8" d="M3.16406,9.10758c.204-.376.604-.63199,1.06399-.63199s.848.24799,1.05199.61599" transform="translate(1.4603 1.410877)" fill="none"/><path id="happy-sad-masks-s-path9" d="M8.125,9.10758c.204-.376.60399-.63199,1.06399-.63199s.84801.24799,1.05201.61599" transform="translate(1.4603 1.410877)" fill="none"/></g></g><mask id="happy-sad-masks-u-masks2" mask-type="luminance" x="-150%" y="-150%" height="400%" width="400%"><g id="happy-sad-masks-u-group"><rect id="happy-sad-masks-s-rect2" width="24" height="24" rx="0" ry="0" fill="#fff" stroke-width="0"/><g id="happy-sad-masks-u-copy-of-sad_to" transform="translate(15.78925,10.182761)"><path id="happy-sad-masks-u-copy-of-sad" d="M6.70394,5.24762C3.45197,5.24762,0.5,4.22363,0.5,4.22363v7.78397c0,3.9359,3.25197,7.1559,6.20394,7.1559s6.20396-3.22,6.20396-7.1559v-7.78397c0,0-2.95199,1.02399-6.20396,1.02399Z" transform="translate(-6.70395,-11.693565)" opacity="0" stroke-linecap="round" stroke-linejoin="round"/></g></g></mask></g></svg>