<svg id="headphones" xmlns="http://www.w3.org/2000/svg" xmlns:xlink="http://www.w3.org/1999/xlink" viewBox="0 0 24 24" stroke="currentColor" stroke-linecap="round" stroke-linejoin="round" shape-rendering="geometricPrecision" text-rendering="geometricPrecision">
<style><![CDATA[
#headphones{pointer-events: all}#headphones #headphones-u-headphones_tk {animation: headphones-u-headphones_tk__tk 600ms linear infinite normal backwards}@keyframes headphones-u-headphones_tk__tk { 0% {transform: translate(12.067363px,21.223575px) skewX(-1deg) skewY(0deg)} 50% {transform: translate(12.067363px,21.223575px) skewX(1deg) skewY(0deg)} 100% {transform: translate(12.067363px,21.223575px) skewX(-1deg) skewY(0deg)}} #headphones #headphones-u-headphones_ts {animation: headphones-u-headphones_ts__ts 600ms linear infinite normal backwards}@keyframes headphones-u-headphones_ts__ts { 0% {transform: scale(1,1)} 50% {transform: scale(1,0.95)} 100% {transform: scale(1,1)}} #headphones #headphones-s-path7 {animation: headphones-s-path7_s_do 600ms linear infinite normal backwards}@keyframes headphones-s-path7_s_do { 0% {stroke-dashoffset: 0} 33.333333% {stroke-dashoffset: 2} 50% {stroke-dashoffset: 0} 66.666667% {stroke-dashoffset: 2} 100% {stroke-dashoffset: 0}} #headphones #headphones-s-path8 {animation: headphones-s-path8_s_do 600ms linear infinite normal backwards}@keyframes headphones-s-path8_s_do { 0% {stroke-dashoffset: 0} 66.666667% {stroke-dashoffset: 4} 100% {stroke-dashoffset: 0}} #headphones #headphones-s-path9 {animation: headphones-s-path9_s_do 600ms linear infinite normal backwards}@keyframes headphones-s-path9_s_do { 0% {stroke-dashoffset: 0} 33.333333% {stroke-dashoffset: 5} 100% {stroke-dashoffset: 0}} #headphones #headphones-s-path10 {animation: headphones-s-path10_s_do 600ms linear infinite normal backwards}@keyframes headphones-s-path10_s_do { 0% {stroke-dashoffset: 0} 50% {stroke-dashoffset: 3} 100% {stroke-dashoffset: 0}}
]]></style>
<g id="headphones-u-headphones_tk" transform="translate(12.067363,21.223575) skewX(-1) skewY(0)"><g id="headphones-u-headphones_ts" transform="scale(1,1)"><g id="headphones-u-headphones" transform="translate(-12.067363,-21.223573)"><path id="headphones-s-path1" d="M4.98769,10.1797l-1.29429.1708c-.97928.1298-1.69198,1.0351-1.57922,2.012l.57844,5.025c.11276.977,1.00587,1.6739,1.98858,1.5441l1.29087-.1708-.98438-8.5811Z" transform="translate(1.660661 2.276427)" fill="none"/><path id="headphones-s-path2" d="M2.12751,12.4531l-.72931.0957c-.55467.0717-.956473.5841-.890977,1.1375l.326225,2.8388c.06208.5533.567642.9462,1.122372.871l.72932-.0956" transform="translate(1.660661 2.276427)" fill="none"/><path id="headphones-s-path3" d="M15.808,10.1797l1.2883.1708c.9748.1298,1.6559,1.0351,1.509,2.012l-.7539,5.025c-.1468.977-1.0643,1.6739-2.0424,1.5441l-1.285-.1708l1.284-8.5811Z" transform="translate(1.660661 2.276427)" fill="none"/><path id="headphones-s-path4" d="M18.5895,12.4531l.726.0957c.5521.0717.9361.5841.8512,1.1375l-.4253,2.8388c-.0814.5533-.6007.9462-1.1528.871l-.7259-.0956" transform="translate(1.660661 2.276427)" fill="none"/><path id="headphones-s-path5" d="M4.35352,2.29688l.0611.41327c.34474,1.97418,1.80432,1.72826,2.60863,1.25009.41423-.24592.86449-.40304.86449-.40304l.03098-.01366c.76628-.25616,1.61593-.3962,2.59978-.3962h.0273c.9839,0,1.8287.14004,2.586.3962l.0305.01366c0,0,.4448.15712.8504.40304.7876.47817,2.2387.72067,2.6523-1.25009l.0717-.39278" transform="translate(1.660661 2.276427)" fill="none"/><path id="headphones-s-path6" d="M19.5715,12.586C20.2229,6.38926,18.7474,0.5,10.593,0.5h-.0273c-8.15094,0-9.832007,5.88926-9.39701,12.086" transform="translate(1.660661 2.276426)" fill="none"/></g></g></g><path id="headphones-s-path7" d="M7.68555,18.2624v-2.2272" transform="translate(1.660661 2.276427)" fill="none" stroke-dasharray="2.23"/><path id="headphones-s-path8" d="M9.39453,18.2636v-4.4511" transform="translate(1.660661 2.276427)" fill="none" stroke-dasharray="4.46"/><path id="headphones-s-path9" d="M11.1016,18.2658v-5.7424" transform="translate(1.660661 2.276427)" fill="none" stroke-dasharray="5.75"/><path id="headphones-s-path10" d="M12.8105,18.2657v-3.2657" transform="translate(1.660661 2.276427)" fill="none" stroke-dasharray="3.27"/></svg>