<svg id="gears" xmlns="http://www.w3.org/2000/svg" xmlns:xlink="http://www.w3.org/1999/xlink" viewBox="0 0 24 24" stroke="currentColor" stroke-linecap="round" stroke-linejoin="round" shape-rendering="geometricPrecision" text-rendering="geometricPrecision">
<style><![CDATA[
#gears{pointer-events: all}#gears #gears-u-gear-bottom_tr {animation: gears-u-gear-bottom_tr__tr 1000ms linear infinite normal backwards}@keyframes gears-u-gear-bottom_tr__tr { 0% {transform: translate(15.03025px,13.1328px) rotate(360deg)} 100% {transform: translate(15.03025px,13.1328px) rotate(0deg)}} #gears #gears-u-gear-top-right_tr {animation: gears-u-gear-top-right_tr__tr 1000ms linear infinite normal backwards}@keyframes gears-u-gear-top-right_tr__tr { 0% {transform: translate(18.3237px,8.29259px) rotate(720deg)} 100% {transform: translate(18.3237px,8.29259px) rotate(0deg)}} #gears #gears-u-gear-top-left_tr {animation: gears-u-gear-top-left_tr__tr 1000ms linear infinite normal backwards}@keyframes gears-u-gear-top-left_tr__tr { 0% {transform: translate(12.551715px,7.347415px) rotate(0deg)} 100% {transform: translate(12.551715px,7.347415px) rotate(360deg)}}
]]></style>
<path id="gears-u-head" d="M18.940004,22.165045c-.170248-.984424-.413921-2.586141-.317098-4.147829c0,0,.567427-2.559522,1.705611-4.194615c0,0,3.628268-6.186785-1.779035-10.167807c0,0-4.783193-3.543873-10.567635-.263615c0,0-3.2277,1.394861-2.543438,5.859736c0,0,.136854,1.248059-.257017,1.831978L3.045178,13.595628c0,0-.283724.747569.570766.817647l1.301765.266903c0,0,.544069,1.061157.597473,1.878704s-.136854,1.825363-.136854,1.825363-.463957,1.224707.263693,1.765267c.143521.036703.677575.640687,4.482687-.176859c0,0,.367224.173532.600811,2.162344" transform="translate(-0.195719 -0.165045)" fill="none"/><path id="gears-u-mouth" d="M5.65625,16.4961l1.62163.0265" fill="none"/><g id="gears-u-gear-bottom_tr" transform="translate(15.03025,13.1328) rotate(360)"><g id="gears-u-gear-bottom" transform="translate(-15.03025,-13.1328)"><path id="gears-s-path1" d="M14.4696,14.5479l-.4071,1.0292" fill="none"/><path id="gears-s-path2" d="M15.9955,10.6885l-.4037,1.0226" fill="none"/><path id="gears-s-path3" d="M13.6332,13.7354l-1.016.4401" fill="none"/><path id="gears-s-path4" d="M17.441,12.085l-1.0094.4401" fill="none"/><path id="gears-s-path5" d="M16.4453,13.6895l1.0293.407" fill="none"/><path id="gears-s-path6" d="M12.5859,12.1641l1.0227.407" fill="none"/><path id="gears-s-path7" d="M16.4215,13.6839c-.3045.7678-1.1749,1.145-1.9427.8406s-1.1451-1.1749-.8439-1.9427c.3045-.7678,1.1749-1.145,1.9427-.8406.7677.3045,1.145,1.1749.8439,1.9427Z" fill="none"/><path id="gears-s-path8" d="M15.6348,14.5303l.4401,1.0127" fill="none"/><path id="gears-s-path9" d="M13.9844,10.7217l.4401,1.0094" fill="none"/></g></g><g id="gears-u-gear-top-right_tr" transform="translate(18.3237,8.29259) rotate(720)"><g id="gears-u-gear-top-right" transform="translate(-18.3237,-8.29259)"><path id="gears-s-path10" d="M18.6953,7.38205l.2184-.52951" fill="none"/><path id="gears-s-path11" d="M17.7324,9.73264l.2151-.52952" fill="none"/><path id="gears-s-path12" d="M19.2833,8.16326c.0728.52952-.3011,1.01931-.8306,1.08881s-1.0194-.30116-1.0889-.83067.3012-1.01931.8307-1.08881s1.0193.30116,1.0888.83067Z" fill="none"/><path id="gears-s-path13" d="M19.2988,8.1601l.5693-.07612" fill="none"/><path id="gears-s-path14" d="M16.7793,8.50092l.5659-.07612" fill="none"/><path id="gears-s-path15" d="M18.9258,9.06934l.3508.45339" fill="none"/><path id="gears-s-path16" d="M17.3711,7.06055l.3475.45008" fill="none"/></g></g><g id="gears-u-gear-top-left_tr" transform="translate(12.551715,7.347415) rotate(0)"><g id="gears-u-gear-top-left" transform="translate(-12.551715,-7.347415)"><path id="gears-s-path17" d="M14.0898,5.80995l.8969-.89686" fill="none"/><path id="gears-s-path18" d="M10.1191,9.77794l.8936-.89024" fill="none"/><path id="gears-s-path19" d="M14.6906,7.34531c0,1.18148-.9597,2.14121-2.1412,2.14121s-2.1412-.95973-2.1412-2.14121.9597-2.14121,2.1412-2.14121s2.1412.95974,2.1412,2.14121Z" fill="none"/><path id="gears-s-path20" d="M12.5547,5.17474v-1.26751" fill="none"/><path id="gears-s-path21" d="M12.5547,10.7876v-1.26416" fill="none"/><path id="gears-s-path22" d="M14.7246,7.3457h1.2675" fill="none"/><path id="gears-s-path23" d="M9.11133,7.3457h1.26417" fill="none"/><path id="gears-s-path24" d="M11.0146,5.80995l-.8935-.89686" fill="none"/><path id="gears-s-path25" d="M14.9873,9.78125l-.8935-.89355" fill="none"/></g></g></svg>