<svg id="headache" xmlns="http://www.w3.org/2000/svg" xmlns:xlink="http://www.w3.org/1999/xlink" viewBox="0 0 24 24" stroke="currentColor" stroke-linecap="round" stroke-linejoin="round" shape-rendering="geometricPrecision" text-rendering="geometricPrecision">
<style><![CDATA[
#headache{pointer-events: all}#headache #headache-u-brain_ts {animation: headache-u-brain_ts__ts 1000ms linear infinite normal backwards}@keyframes headache-u-brain_ts__ts { 0% {transform: translate(12.800514px,11.918503px) scale(1,1)} 50% {transform: translate(12.800514px,11.918503px) scale(0.9,0.9)} 100% {transform: translate(12.800514px,11.918503px) scale(1,1)}} #headache #headache-s-path8 {animation: headache-s-path8_s_do 1000ms linear infinite normal backwards}@keyframes headache-s-path8_s_do { 0% {stroke-dashoffset: 0} 100% {stroke-dashoffset: 12}} #headache #headache-s-path9 {animation: headache-s-path9_s_do 1000ms linear infinite normal backwards}@keyframes headache-s-path9_s_do { 0% {stroke-dashoffset: 0} 100% {stroke-dashoffset: 12}} #headache #headache-s-path10 {animation: headache-s-path10_s_do 1000ms linear infinite normal backwards}@keyframes headache-s-path10_s_do { 0% {stroke-dashoffset: 36} 100% {stroke-dashoffset: 24}}
]]></style>
<g id="headache-u-brain_ts" transform="translate(12.800514,11.918503) scale(1,1)"><g id="headache-u-brain" transform="translate(-12.800514,-11.918503)"><path id="headache-s-path1" d="M8.50547,7.77414c0,0,3.40313-.48469,3.30003,2.62966c0,0,1.0175,1.791-1.2238,1.8356c0,0-1.11029,1.5985-2.86686.2132" transform="translate(5.200519 1.844937)" fill="none"/><path id="headache-s-path2" d="M4.49177,8.51662c-.06875-.33688.01375-1.1275,2.04187-1.36125.18906-.02063,2.21375-.28532,2.01781,1.47812" transform="translate(5.200518 1.844938)" fill="none"/><path id="headache-s-path3" d="M5.31153,10.5208c0,0-.26469,1.1206.42625,1.7531" transform="translate(5.20052 1.844937)" fill="none"/><path id="headache-s-path4" d="M6.80273,10.2421c0,0,1.11375.2715,1.92157-.36783" transform="translate(5.200519 1.844937)" fill="none"/><path id="headache-s-path5" d="M10.3828,10.0083c0,0,.7769-.29222,1.4919.6393" transform="translate(5.200519 1.844937)" fill="none"/><path id="headache-s-path6" d="M6.58352,8.92897c0,0-1.25469-.46062-2.02125-.29562l-.26812.06875c0,0-3.13844,2.5506,1.045,3.1384c0,0,1.22718,1.8047,2.70875.1341c0,0,.825-.6222,1.20656-.6359" transform="translate(5.20052 1.844937)" fill="none"/></g></g><path id="headache-s-path7" d="M11.5928,20.1551c-.1218-.7062-.2968-1.8562-.2281-2.9781c0,0,.4094-1.8375,1.225-3.0125c0,0,2.6031-4.44061-1.275-7.29998c0,0-3.43435-2.54375-7.58435-.19063c0,0-2.31563,1.00313-1.825,4.20941c0,0,.1.8968-.18438,1.3156L0.186598,14.002c0,0-.203125.5344.409375.5875l.934377.1938c0,0,.39062.7625.43125,1.35s-.09688,1.3093-.09688,1.3093-.33125.8813.19063,1.2657c.10312.025.48437.4593,3.21562-.1282c0,0,.2625.125.43125,1.5532" transform="translate(5.200518 1.844937)" fill="none"/><path id="headache-u-mouth" d="M4.47813,16.7363c-.34063-.3406-.78126-.5218-1.22813-.5437l-1.17188-.0188" transform="translate(5.200518 1.844938)" fill="none" stroke-dasharray="2.53,2.53"/><path id="headache-s-path8" d="M4.65117,4.48628l-1.2-1.95625-.42812,1.13125L1.73242,1.7644" transform="translate(5.200517 1.844938)" fill="none" stroke-dasharray="6"/><path id="headache-s-path9" d="M7.73906,4.04253v-2.29375l-.99687.7v-2.293751" transform="translate(5.200521 1.844936)" fill="none" stroke-dasharray="6"/><path id="headache-s-path10" d="M12.7488,1.7644l-1.2,1.95625-.4281-1.13125L9.83008,4.48628" transform="translate(5.20052 1.844938)" fill="none" stroke-dashoffset="36" stroke-dasharray="6"/></svg>