<svg id="images" xmlns="http://www.w3.org/2000/svg" xmlns:xlink="http://www.w3.org/1999/xlink" viewBox="0 0 24 24" stroke="currentColor" stroke-linecap="round" stroke-linejoin="round" shape-rendering="geometricPrecision" text-rendering="geometricPrecision">
<style><![CDATA[
#images{pointer-events: all}#images #images-s-g1_ts {animation: images-s-g1_ts__ts 1000ms linear infinite normal backwards}@keyframes images-s-g1_ts__ts { 0% {transform: translate(22px,1.999991px) scale(0.85,0.85);animation-timing-function: cubic-bezier(0.55,0.055,0.675,0.19)} 20% {transform: translate(22px,1.999991px) scale(1,1)} 60% {transform: translate(22px,1.999991px) scale(1,1);animation-timing-function: cubic-bezier(0.215,0.61,0.355,1)} 80% {transform: translate(22px,1.999991px) scale(0.85,0.85)} 100% {transform: translate(22px,1.999991px) scale(0.85,0.85)}} #images #images-u-rectangle_to {animation: images-u-rectangle_to__to 1000ms linear infinite normal backwards}@keyframes images-u-rectangle_to__to { 0% {transform: translate(-5.000198px,34.916725px)} 50% {transform: translate(-5.000198px,34.916725px);animation-timing-function: cubic-bezier(0.005,0.66,0.355,1.2)} 100% {transform: translate(16.442136px,21.822441px)}} #images #images-u-copy-of-rectangle-2_to {animation: images-u-copy-of-rectangle-2_to__to 1000ms linear infinite normal backwards}@keyframes images-u-copy-of-rectangle-2_to__to { 0% {transform: translate(16.442136px,21.820221px)} 10% {transform: translate(16.442136px,21.820221px);animation-timing-function: cubic-bezier(0.84,-0.275,1,-0.075)} 60% {transform: translate(39.442136px,21.820221px)} 100% {transform: translate(39.442136px,21.820221px)}} #images #images-u-copy-of-path3_to {animation: images-u-copy-of-path3_to__to 1000ms linear infinite normal backwards}@keyframes images-u-copy-of-path3_to__to { 0% {transform: translate(-2.713034px,8.110955px)} 50% {transform: translate(-2.713034px,8.110955px);animation-timing-function: cubic-bezier(0.005,0.66,0.355,1.2)} 100% {transform: translate(8.11667px,8.110955px)}} #images #images-u-rectangle2_to {animation: images-u-rectangle2_to__to 1000ms linear infinite normal backwards}@keyframes images-u-rectangle2_to__to { 0% {transform: translate(16.442136px,21.820221px)} 10% {transform: translate(16.442136px,21.820221px);animation-timing-function: cubic-bezier(0.84,-0.275,1,-0.075)} 60% {transform: translate(39.442136px,21.820221px)} 100% {transform: translate(39.442136px,21.820221px)}} #images #images-s-path1_to {animation: images-s-path1_to__to 1000ms linear infinite normal backwards}@keyframes images-s-path1_to__to { 0% {transform: translate(8.11178px,8.110955px)} 10% {transform: translate(8.11178px,8.110955px);animation-timing-function: cubic-bezier(0.84,-0.275,1,-0.075)} 60% {transform: translate(31.11178px,8.110955px)} 100% {transform: translate(31.11178px,8.110955px)}}
]]></style>
<path id="images-u-copy-of-path" d="M0.5,2.72222v15.55558c0,1.2273.99492,2.2222,2.22222,2.2222h15.55558" transform="translate(1.4998 1.49995)" fill="none"/><g id="images-s-g1_ts" transform="translate(22,1.999991) scale(0.85,0.85)"><g id="images-s-g1" transform="translate(-21.9998,-1.99995)"><g id="images-u-mask-group" mask="url(#images-u-masks2)"><g id="images-u-mask-group2" mask="url(#images-u-masks)"><g id="images-u-rectangle_to" transform="translate(-5.000198,34.916725)"><rect id="images-u-rectangle" width="20" height="20" rx="0" ry="0" transform="rotate(45) translate(-8.515292,-8.515292)" fill="none"/></g><mask id="images-u-masks" mask-type="luminance" x="-150%" y="-150%" height="400%" width="400%"><g id="images-s-g2" transform="translate(0 0.000001)"><path id="images-u-copy-of-path2" d="M18.2778,0.5h-15.55558C1.49492,0.5,0.5,1.49492,0.5,2.72222v15.55558c0,1.2273.99492,2.2222,2.22222,2.2222h15.55558c1.2273,0,2.2222-.9949,2.2222-2.2222v-15.55558C20.5,1.49492,19.5051,0.5,18.2778,0.5Z" transform="translate(1.4998 1.49995)" fill="#fff" stroke-width="0" stroke-linecap="round" stroke-linejoin="round"/><g id="images-u-copy-of-rectangle-2_to" transform="translate(16.442136,21.820221)"><rect id="images-u-copy-of-rectangle-2" width="20" height="20" rx="0" ry="0" transform="rotate(45) translate(-8.515292,-8.515292)" stroke-width="0" stroke-linecap="round" stroke-linejoin="round"/></g></g></mask></g><g id="images-u-copy-of-path3_to" transform="translate(-2.713034,8.110955)"><path id="images-u-copy-of-path3" d="M6.61198,8.27767c.92047,0,1.66667-.74619,1.66667-1.66667s-.7462-1.66666-1.66667-1.66666-1.66667.74619-1.66667,1.66666.74619,1.66667,1.66667,1.66667Z" transform="translate(-6.61198,-6.611005)" fill="none"/></g><g id="images-u-rectangle2_to" transform="translate(16.442136,21.820221)"><rect id="images-u-rectangle2" width="20" height="20" rx="0" ry="0" transform="rotate(45) translate(-8.515292,-8.515292)" fill="none"/></g><g id="images-s-path1_to" transform="translate(8.11178,8.110955)"><path id="images-s-path1" d="M6.61198,8.27767c.92047,0,1.66667-.74619,1.66667-1.66667s-.7462-1.66666-1.66667-1.66666-1.66667.74619-1.66667,1.66666.74619,1.66667,1.66667,1.66667Z" transform="translate(-6.61198,-6.611005)" fill="none"/></g><mask id="images-u-masks2" mask-type="luminance" x="-150%" y="-150%" height="400%" width="400%"><path id="images-u-copy-of-path4" d="M18.2778,0.5h-15.55558C1.49492,0.5,0.5,1.49492,0.5,2.72222v15.55558c0,1.2273.99492,2.2222,2.22222,2.2222h15.55558c1.2273,0,2.2222-.9949,2.2222-2.2222v-15.55558C20.5,1.49492,19.5051,0.5,18.2778,0.5Z" transform="translate(1.4998 1.49995)" fill="#fff" stroke-width="0" stroke-linecap="round" stroke-linejoin="round"/></mask></g><path id="images-s-path2" d="M18.2778,0.5h-15.55558C1.49492,0.5,0.5,1.49492,0.5,2.72222v15.55558c0,1.2273.99492,2.2222,2.22222,2.2222h15.55558c1.2273,0,2.2222-.9949,2.2222-2.2222v-15.55558C20.5,1.49492,19.5051,0.5,18.2778,0.5Z" transform="translate(1.4998 1.49995)" fill="none"/></g></g></svg>