<svg id="inbox-arrow-down" xmlns="http://www.w3.org/2000/svg" xmlns:xlink="http://www.w3.org/1999/xlink" viewBox="0 0 24 24" stroke="currentColor" stroke-linecap="round" stroke-linejoin="round" shape-rendering="geometricPrecision" text-rendering="geometricPrecision">
<style><![CDATA[
#inbox-arrow-down{pointer-events: all}#inbox-arrow-down #inbox-arrow-down-u-arrow_to {animation: inbox-arrow-down-u-arrow_to__to 1300ms linear infinite normal backwards}@keyframes inbox-arrow-down-u-arrow_to__to { 0% {transform: translate(12px,-7.467257px);animation-timing-function: cubic-bezier(0.42,0,0.58,1)} 38.461538% {transform: translate(12px,8.532743px)} 61.538462% {transform: translate(12px,10.812191px)} 100% {transform: translate(12px,29.532743px)}}
]]></style>
<path id="inbox-arrow-down-s-path1" d="M21,12h-6l-2,3h-4L7,12h-6" transform="translate(1 2)" fill="none"/><path id="inbox-arrow-down-s-path2" d="M4.45,1.11L1,12v6c0,.5304.21071,1.0391.58579,1.4142s.88378.5858,1.41421.5858h16c.5304,0,1.0391-.2107,1.4142-.5858s.5858-.8838.5858-1.4142v-6L17.55,1.11c-.1656-.333213-.4208-.613629-.737-.80972s-.6809-.300083-1.053-.30028h-9.52c-.37208.000197-.73674.104188-1.05296.30028s-.57146.476507-.73704.80972Z" transform="translate(1 2)" fill="none"/><g id="inbox-arrow-down-u-mask-group" mask="url(#inbox-arrow-down-u-masks)"><g id="inbox-arrow-down-u-arrow_to" transform="translate(12,-7.467257)"><g id="inbox-arrow-down-u-arrow" transform="translate(-12,-9.532743)"><path id="inbox-arrow-down-s-path3" d="M7,8L4,11L1,8" transform="translate(8 3.532743)" fill="none"/><path id="inbox-arrow-down-s-path4" d="M8,1v10" transform="translate(4 3.532743)" fill="none"/></g></g><mask id="inbox-arrow-down-u-masks" mask-type="luminance" x="-150%" y="-150%" height="400%" width="400%"><g id="inbox-arrow-down-s-g1"><rect id="inbox-arrow-down-s-rect1" width="24" height="24" rx="0" ry="0" fill="#fff" stroke-width="0"/><path id="inbox-arrow-down-u-rectangle" d="M0,0h8l2,3h4l2-3h8v10h-24L0,0Z" transform="translate(0 14)" stroke-width="0"/></g></mask></g></svg>