<svg id="lock-shake" xmlns="http://www.w3.org/2000/svg" xmlns:xlink="http://www.w3.org/1999/xlink" viewBox="0 0 24 24" stroke="currentColor" stroke-linecap="round" stroke-linejoin="round" shape-rendering="geometricPrecision" text-rendering="geometricPrecision">
<style><![CDATA[
#lock-shake{pointer-events: all}#lock-shake #lock-shake-s-g1_to {animation: lock-shake-s-g1_to__to 700ms linear infinite normal backwards}@keyframes lock-shake-s-g1_to__to { 0% {transform: translate(12px,12px)} 28.571429% {transform: translate(9px,12px)} 57.142857% {transform: translate(14px,12px);animation-timing-function: cubic-bezier(0.215,0.61,0.355,2)} 85.714286% {transform: translate(12px,12px)} 100% {transform: translate(12px,12px)}} #lock-shake #lock-shake-s-g1_tr {animation: lock-shake-s-g1_tr__tr 700ms linear infinite normal backwards}@keyframes lock-shake-s-g1_tr__tr { 0% {transform: rotate(0deg)} 28.571429% {transform: rotate(-10deg)} 42.857143% {transform: rotate(-10deg)} 57.142857% {transform: rotate(10deg);animation-timing-function: cubic-bezier(0.215,0.61,0.355,2)} 85.714286% {transform: rotate(0deg)} 100% {transform: rotate(0deg)}} #lock-shake #lock-shake-s-path2_to {animation: lock-shake-s-path2_to__to 700ms linear infinite normal backwards}@keyframes lock-shake-s-path2_to__to { 0% {transform: translate(8.08447px,4.229555px)} 14.285714% {transform: translate(8.08447px,4.229555px)} 34.285714% {transform: translate(7.910822px,5.214363px)} 57.142857% {transform: translate(8.08447px,4.229555px)} 100% {transform: translate(8.08447px,4.229555px)}}
]]></style>
<g id="lock-shake-s-g1_to" transform="translate(12,12)"><g id="lock-shake-s-g1_tr" transform="rotate(0)"><g id="lock-shake-s-g1" transform="translate(-8.0875,-10.5)"><path id="lock-shake-s-path1" d="M13.1073,8.14941h-10.03962C1.64959,8.14941,0.5,9.299,0.5,10.7171v7.2152C0.5,19.3504,1.64959,20.5,3.06768,20.5h10.03962c1.4181,0,2.5677-1.1496,2.5677-2.5677v-7.2152c0-1.4181-1.1496-2.56769-2.5677-2.56769Z" fill="none"/><g id="lock-shake-u-mask-group" transform="translate(0.000001 0)" mask="url(#lock-shake-u-masks)"><g id="lock-shake-s-path2_to" transform="translate(8.08447,4.229555)"><path id="lock-shake-s-path2" d="M3.39844,7.95911v-2.77486C3.39844,2.59676,5.49599,0.5,8.08445,0.5s4.68605,2.09676,4.68605,4.68425v2.77486" transform="translate(-8.08447,-4.229555)" fill="none"/></g><mask id="lock-shake-u-masks" mask-type="luminance" x="-150%" y="-150%" height="400%" width="400%"><g id="lock-shake-s-g2"><rect id="lock-shake-s-rect1" width="24" height="24" rx="0" ry="0" transform="translate(-3.9125 -1.5)" fill="#fff" stroke-width="0"/><path id="lock-shake-u-copy-of-path" d="M13.1073,8.14941h-10.03962C1.64959,8.14941,0.5,9.299,0.5,10.7171v7.2152C0.5,19.3504,1.64959,20.5,3.06768,20.5h10.03962c1.4181,0,2.5677-1.1496,2.5677-2.5677v-7.2152c0-1.4181-1.1496-2.56769-2.5677-2.56769Z" stroke-width="0" stroke-linecap="round" stroke-linejoin="round"/></g></mask></g><path id="lock-shake-s-path3" d="M8.09219,14.7548c.76931,0,1.39296-.6236,1.39296-1.393s-.62365-1.3929-1.39296-1.3929-1.39297.6236-1.39297,1.3929.62365,1.393,1.39297,1.393Z" fill="none"/><path id="lock-shake-s-path4" d="M8.09375,16.809v-2.0541" fill="none"/></g></g></g></svg>