<svg id="log-out" xmlns="http://www.w3.org/2000/svg" xmlns:xlink="http://www.w3.org/1999/xlink" viewBox="0 0 24 24" stroke="currentColor" stroke-linecap="round" stroke-linejoin="round" shape-rendering="geometricPrecision" text-rendering="geometricPrecision">
<style><![CDATA[
#log-out{pointer-events: all}#log-out #log-out-u-arrow-2_to {animation: log-out-u-arrow-2_to__to 900ms linear infinite normal backwards}@keyframes log-out-u-arrow-2_to__to { 0% {transform: translate(12px,34.33px);animation-timing-function: cubic-bezier(0,0,0.36,1.005)} 88.888889% {transform: translate(12px,8.332675px)} 100% {transform: translate(12px,8.332675px)}} #log-out #log-out-u-arrow-1_to {animation: log-out-u-arrow-1_to__to 900ms linear infinite normal backwards}@keyframes log-out-u-arrow-1_to__to { 0% {transform: translate(12px,8.333325px)} 33.333333% {transform: translate(12px,-11.67px)} 100% {transform: translate(12px,-11.67px)}}
]]></style>
<path id="log-out-s-path1" d="M20.5,13.832v4.4445c0,.5893-.2341,1.1546-.6509,1.5713-.4167.4168-.982.6509-1.5713.6509h-15.55558c-.58937,0-1.1546-.2341-1.57135-.6509-.416744-.4167-.65087-.982-.65087-1.5713v-4.4445" transform="matrix(0 1 -1 0 22.496323 1.5)" fill="none"/><g id="log-out-u-mask-group" transform="matrix(0 1 -1 0 24.001576 0)" mask="url(#log-out-u-masks)"><g id="log-out-u-arrow-2_to" transform="translate(12,34.33)"><g id="log-out-u-arrow-2" transform="rotate(180) translate(-12,-10.333325)"><path id="log-out-s-path2" d="M4.94531,8.27734L10.5009,13.8329l5.5555-5.55556" transform="translate(1.499145 2.8331)" fill="none"/><path id="log-out-s-path3" d="M10.5,12.5v-12" transform="translate(1.5 3.50065)" fill="none"/></g></g><g id="log-out-u-arrow-1_to" transform="translate(12,8.333325)"><g id="log-out-u-arrow-1" transform="rotate(180) translate(-12,-10.333325)"><path id="log-out-s-path4" d="M4.94531,8.27734L10.5009,13.8329l5.5555-5.55556" transform="translate(1.499145 2.8331)" fill="none"/><path id="log-out-s-path5" d="M10.5,12.5v-12" transform="translate(1.5 3.50065)" fill="none"/></g></g><mask id="log-out-u-masks" mask-type="luminance" x="-150%" y="-150%" height="400%" width="400%"><g id="log-out-s-g1"><rect id="log-out-s-rect1" width="24" height="24" rx="0" ry="0" fill="#fff" stroke-width="0"/><rect id="log-out-s-rect2" width="24" height="3.132203" rx="0" ry="0" transform="matrix(1 0 0 0.639582 0 21.996699)" stroke-width="0"/></g></mask></g></svg>