<svg id="love-letter" xmlns="http://www.w3.org/2000/svg" xmlns:xlink="http://www.w3.org/1999/xlink" viewBox="0 0 24 24" stroke="currentColor" stroke-linecap="round" stroke-linejoin="round" shape-rendering="geometricPrecision" text-rendering="geometricPrecision">
<style><![CDATA[
#love-letter{pointer-events: all}#love-letter #love-letter-u-envelope_ts {animation: love-letter-u-envelope_ts__ts 3500ms linear infinite normal backwards}@keyframes love-letter-u-envelope_ts__ts { 0% {transform: translate(12px,17.17235px) scale(1,1)} 2.857143% {transform: translate(12px,17.17235px) scale(1,0.9)} 5.714286% {transform: translate(12px,17.17235px) scale(1,1)} 74% {transform: translate(12px,17.17235px) scale(1,1)} 76.857143% {transform: translate(12px,17.17235px) scale(1,0.9)} 79.714286% {transform: translate(12px,17.17235px) scale(1,1)} 100% {transform: translate(12px,17.17235px) scale(1,1)}} #love-letter #love-letter-u-copy-of-path2 {animation: love-letter-u-copy-of-path2__m 3500ms linear infinite normal backwards}@keyframes love-letter-u-copy-of-path2__m { 0% {d: path('M14.5,0.5L7.49822,6.4368L0.5,0.5')} 5.714286% {d: path('M14.5,0.5L7.49822,6.4368L0.5,0.5')} 14.285714% {d: path('M14.5,0.5L7.49822,-5.4368L0.5,0.5')} 65.714286% {d: path('M14.5,0.5L7.49822,-5.4368L0.5,0.5')} 74.285714% {d: path('M14.5,0.5L7.49822,6.4368L0.5,0.5')} 100% {d: path('M14.5,0.5L7.49822,6.4368L0.5,0.5')}} #love-letter #love-letter-u-copy-of-letter_to {animation: love-letter-u-copy-of-letter_to__to 3500ms linear infinite normal backwards}@keyframes love-letter-u-copy-of-letter_to__to { 0% {transform: translate(12px,21.000001px)} 5.714286% {transform: translate(12px,21.000001px);animation-timing-function: cubic-bezier(0.65,0.05,0.28,1.24)} 20% {transform: translate(12px,8.000001px)} 57.142857% {transform: translate(12px,8.000001px);animation-timing-function: cubic-bezier(0.625,-0.18,0.715,0.335)} 71.428571% {transform: translate(12px,21.000001px)} 100% {transform: translate(12px,21.000001px)}} #love-letter #love-letter-u-letter_to {animation: love-letter-u-letter_to__to 3500ms linear infinite normal backwards}@keyframes love-letter-u-letter_to__to { 0% {transform: translate(12px,21.000001px)} 5.714286% {transform: translate(12px,21.000001px);animation-timing-function: cubic-bezier(0.65,0.05,0.28,1.24)} 20% {transform: translate(12px,8.000001px)} 57.142857% {transform: translate(12px,8.000001px);animation-timing-function: cubic-bezier(0.625,-0.18,0.715,0.335)} 71.428571% {transform: translate(12px,21.000001px)} 100% {transform: translate(12px,21.000001px)}}
]]></style>
<g id="love-letter-u-envelope_ts" transform="translate(12,17.17235) scale(1,1)"><g id="love-letter-u-envelope" transform="translate(-7.5,-10.8459)"><path id="love-letter-s-path1" d="M0.5,10.8471L6.02981,5.31641" fill="none"/><path id="love-letter-s-path2" d="M8.97021,5.31641L14.5,10.8469" fill="none"/><path id="love-letter-s-path3" d="M14.5,0.5L7.49822,6.4368L0.5,0.5" fill="none"/><path id="love-letter-u-copy-of-path" d="M0.5,0.5h14" transform="translate(0 10.3469)" fill="none"/><g id="love-letter-u-mask-group" mask="url(#love-letter-u-masks)"><path id="love-letter-u-copy-of-path2" d="M14.5,0.5L7.49822,6.4368L0.5,0.5" fill="none"/><path id="love-letter-u-copy-of-path3" d="M14.5,0.5v10.3459h-14L0.5,0.5" transform="matrix(1 0 0 -1 0 11.3459)" fill="none"/><mask id="love-letter-u-masks" mask-type="luminance" x="-150%" y="-150%" height="400%" width="400%"><g id="love-letter-s-g1" transform="translate(-4.5 -6.326451)"><rect id="love-letter-s-rect1" width="24" height="24" rx="0" ry="0" transform="translate(0 0.000001)" fill="#fff" stroke-width="0"/><g id="love-letter-u-copy-of-letter_to" transform="translate(12,21.000001)"><g id="love-letter-u-copy-of-letter" transform="translate(-12,-8.000001)"><rect id="love-letter-s-rect2" width="10" height="12" rx="1" ry="1" transform="translate(7 2.000001)" stroke-linecap="round" stroke-linejoin="round"/></g></g></g></mask></g></g></g><g id="love-letter-u-mask-group2" mask="url(#love-letter-u-masks2)"><g id="love-letter-u-letter_to" transform="translate(12,21.000001)"><g id="love-letter-u-letter" transform="translate(-12,-8.000001)"><rect id="love-letter-s-rect3" width="10" height="12" rx="1" ry="1" transform="translate(7 2.000001)" fill="none"/><path id="love-letter-s-path4" d="M2.5,4.27c0,0,2.5-1.357821,2.5-2.980068C5,0.407347,4.299994,0,3.75,0c-.803576,0-1.25.707497-1.25.707497s-.446431-.707497-1.25-.707497C0.7,0,0,0.407347,0,1.289932C0,2.912179,2.5,4.27,2.5,4.27Z" transform="translate(9.5 3.730001)" fill="none"/></g></g><mask id="love-letter-u-masks2" mask-type="luminance" x="-150%" y="-150%" height="400%" width="400%"><path id="love-letter-u-rectangle" d="M0,0h24v2.76325L12,12.763251L0,2.76325L0,0Z" transform="translate(0 0.000001)" fill="#fff" stroke-width="0"/></mask></g></svg>