<svg id="maze" xmlns="http://www.w3.org/2000/svg" xmlns:xlink="http://www.w3.org/1999/xlink" viewBox="0 0 24 24" stroke="currentColor" stroke-linecap="round" stroke-linejoin="round" shape-rendering="geometricPrecision" text-rendering="geometricPrecision">
<style><![CDATA[
#maze{pointer-events: all}#maze #maze-u-sketch {animation-name: maze-u-sketch_c_o, maze-u-sketch_s_do;animation-duration: 6000ms;animation-fill-mode: backwards;animation-timing-function: linear;animation-direction: normal;animation-iteration-count: infinite;}@keyframes maze-u-sketch_c_o { 0% {opacity: 0} 7.666667% {opacity: 1} 66.666667% {opacity: 1} 76.666667% {opacity: 0} 100% {opacity: 0}}@keyframes maze-u-sketch_s_do { 0% {stroke-dashoffset: 58.16} 7.666667% {stroke-dashoffset: 58.16;animation-timing-function: cubic-bezier(0.42,0,1,1)} 11.166667% {stroke-dashoffset: 60} 30% {stroke-dashoffset: 89.5} 45.833333% {stroke-dashoffset: 114.66} 46.666667% {stroke-dashoffset: 116.32} 100% {stroke-dashoffset: 116.32}} #maze #maze-u-pen-copy_to {animation: maze-u-pen-copy_to__to 6000ms linear infinite normal backwards}@keyframes maze-u-pen-copy_to__to { 0% {offset-distance: 0%;animation-timing-function: cubic-bezier(0.392703,0.46162,0.64738,0.830282)} 7.5% {offset-distance: 17.902473%;animation-timing-function: cubic-bezier(0.42,0,1,1)} 11% {offset-distance: 19.719749%} 14.833333% {offset-distance: 26.417979%} 19.166667% {offset-distance: 33.985375%} 23.666667% {offset-distance: 41.589081%} 27.833333% {offset-distance: 49.250123%} 30% {offset-distance: 52.744165%} 32.166667% {offset-distance: 56.928032%} 34.5% {offset-distance: 61.037695%} 38.833333% {offset-distance: 68.75646%} 45.833333% {offset-distance: 80.823403%} 50% {offset-distance: 100%} 100% {offset-distance: 100%}} #maze #maze-u-pen-copy_tr {animation: maze-u-pen-copy_tr__tr 6000ms linear infinite normal backwards}@keyframes maze-u-pen-copy_tr__tr { 0% {transform: rotate(0deg)} 23.666667% {transform: rotate(0deg)} 28.333333% {transform: rotate(90deg)} 100% {transform: rotate(90deg)}} #maze #maze-u-circle-copy_ts {animation: maze-u-circle-copy_ts__ts 6000ms linear infinite normal backwards}@keyframes maze-u-circle-copy_ts__ts { 0% {transform: translate(18.316668px,5.516668px) scale(0,0)} 50% {transform: translate(18.316668px,5.516668px) scale(0,0)} 53.333333% {transform: translate(18.316668px,5.516668px) scale(1.1,1.1)} 56.666667% {transform: translate(18.316668px,5.516668px) scale(1,1)} 66.666667% {transform: translate(18.316668px,5.516668px) scale(1,1)} 71.666667% {transform: translate(18.316668px,5.516668px) scale(1.1,1.1)} 76.666667% {transform: translate(18.316668px,5.516668px) scale(0,0)} 100% {transform: translate(18.316668px,5.516668px) scale(0,0)}} #maze #maze-u-pen_to {animation: maze-u-pen_to__to 6000ms linear infinite normal backwards}@keyframes maze-u-pen_to__to { 0% {offset-distance: 0%;animation-timing-function: cubic-bezier(0.392703,0.46162,0.64738,0.830282)} 7.5% {offset-distance: 17.902473%;animation-timing-function: cubic-bezier(0.42,0,1,1)} 11% {offset-distance: 19.719749%} 14.833333% {offset-distance: 26.417979%} 19.166667% {offset-distance: 33.985375%} 23.666667% {offset-distance: 41.589081%} 27.833333% {offset-distance: 49.250123%} 30% {offset-distance: 52.744165%} 32.166667% {offset-distance: 56.928032%} 34.5% {offset-distance: 61.037695%} 38.833333% {offset-distance: 68.75646%} 45.833333% {offset-distance: 80.823403%} 50% {offset-distance: 100%} 100% {offset-distance: 100%}} #maze #maze-u-pen_tr {animation: maze-u-pen_tr__tr 6000ms linear infinite normal backwards}@keyframes maze-u-pen_tr__tr { 0% {transform: rotate(0deg)} 23.666667% {transform: rotate(0deg)} 28.333333% {transform: rotate(90deg)} 100% {transform: rotate(90deg)}} #maze #maze-u-check_ts {animation: maze-u-check_ts__ts 6000ms linear infinite normal backwards}@keyframes maze-u-check_ts__ts { 0% {transform: translate(18.316668px,5.516668px) scale(1,1)} 66.666667% {transform: translate(18.316668px,5.516668px) scale(1,1)} 71.666667% {transform: translate(18.316668px,5.516668px) scale(1.1,1.1)} 76.666667% {transform: translate(18.316668px,5.516668px) scale(0,0)} 100% {transform: translate(18.316668px,5.516668px) scale(0,0)}} #maze #maze-u-circle_ts {animation: maze-u-circle_ts__ts 6000ms linear infinite normal backwards}@keyframes maze-u-circle_ts__ts { 0% {transform: translate(17.808399px,6.079167px) scale(0,0)} 50% {transform: translate(17.808399px,6.079167px) scale(0,0)} 53.333333% {transform: translate(17.808399px,6.079167px) scale(1.1,1.1)} 56.666667% {transform: translate(17.808399px,6.079167px) scale(1,1)} 100% {transform: translate(17.808399px,6.079167px) scale(1,1)}} #maze #maze-s-polyline1 {animation: maze-s-polyline1_s_do 6000ms linear infinite normal backwards}@keyframes maze-s-polyline1_s_do { 0% {stroke-dashoffset: 5.13} 55% {stroke-dashoffset: 5.13} 60% {stroke-dashoffset: 0} 100% {stroke-dashoffset: 0}}
]]></style>
<g id="maze-u-mask-group" mask="url(#maze-u-masks)"><polyline id="maze-u-sketch" points="22.54518,10.205001 22.54518,11.772212 11.512997,11.772212 11.512997,18.685001 15.197547,18.685001 15.197547,14.935001 18.322997,14.935001 18.322997,21.795001 11.512997,21.795001 11.512997,28.575001 17.512997,28.575001 17.512997,30.205001" transform="translate(-8.012997 -8.205001)" opacity="0" fill="none" stroke-dashoffset="58.16" stroke-dasharray="58.16"/><g id="maze-u-maze" transform="translate(1.50025 1.499979)"><path id="maze-s-path1" d="M6.09543,20.5h-3.57491C1.40924,20.5,0.5,19.5908,0.5,18.4795v-15.95893c0-1.11129.90924-2.020528,2.02052-2.020528h8.34808" fill="none" stroke-miterlimit="10"/><path id="maze-s-path2" d="M14.8548,0.500042h3.624c1.1113,0,2.0207.909238,2.0207,2.020528v15.95893c0,1.1113-.9094,2.0205-2.0207,2.0205h-8.41435" fill="none" stroke-miterlimit="10"/><path id="maze-s-path3" d="M13.0771,7.18457h4.7735" fill="none" stroke-miterlimit="10"/><path id="maze-s-path4" d="M20.3548,10.4954h-6.5413v6.5974" fill="none" stroke-miterlimit="10"/><path id="maze-s-path5" d="M3.85254,7.85742v-3.98487h13.31386v-3.154048" fill="none" stroke-miterlimit="10"/><path id="maze-s-path6" d="M10.4928,3.90941v9.91189h-7.33753" fill="none" stroke-miterlimit="10"/><path id="maze-s-path7" d="M0.677734,10.4775h6.490936v-3.9905" fill="none" stroke-miterlimit="10"/><path id="maze-s-path8" d="M3.15527,17.1191h13.99413v-4.0414" fill="none" stroke-miterlimit="10"/></g><mask id="maze-u-masks" mask-type="luminance" x="-150%" y="-150%" height="400%" width="400%"><g id="maze-s-g1"><path id="maze-u-rectangle" d="M0,0h24v24h-24L0,0Z" transform="translate(0.000002 0)" fill="#fff" stroke-width="0"/><g id="maze-u-pen-copy_to" style="offset-path:path('M9.5,38.051977L9.502564,22.018839L9.502824,20.391319L3.504008,20.391323L3.504008,13.614097L10.313752,13.614097L10.313752,6.753003L7.18455,6.753003L7.18455,10.5L3.504008,10.5L3.504008,3.587211L14.310948,3.587211L14.310948,-13.58701');offset-rotate:0deg"><g id="maze-u-pen-copy_tr" transform="rotate(0)"><g id="maze-u-pen-copy" transform="translate(-29.97,-45.995014)"><path id="maze-s-path9" d="M32.860763,45.107698L29.97,45.995014l.920546-2.861906L37.68009,36.31369c.420701-.424912,1.107986-.424912,1.532854,0l.441528.441575c.420702.424912.420702,1.112269,0,1.537181l-6.789544,6.819418-.004165-.004166Z" stroke-linecap="round" stroke-linejoin="round"/></g></g></g><g id="maze-u-circle-copy_ts" transform="translate(18.316668,5.516668) scale(0,0)"><path id="maze-u-circle-copy" d="M50.97,8.77c0,2.210909-1.792727,4-4,4s-4-1.789091-4-4s1.792727-4,4-4s4,1.789091,4,4Z" transform="translate(-46.97,-8.77)" stroke-linecap="round" stroke-linejoin="round"/></g></g></mask></g><g id="maze-u-pen_to" style="offset-path:path('M9.5,38.051977L9.502564,22.018839L9.502824,20.391319L3.504008,20.391323L3.504008,13.614097L10.313752,13.614097L10.313752,6.753003L7.18455,6.753003L7.18455,10.5L3.504008,10.5L3.504008,3.587211L14.310948,3.587211L14.310948,-13.58701');offset-rotate:0deg"><g id="maze-u-pen_tr" transform="rotate(0)"><g id="maze-u-pen" transform="translate(-29.97,-45.995014)"><path id="maze-s-path10" d="M32.860763,45.107698L29.97,45.995014l.920546-2.861906L37.68009,36.31369c.420701-.424912,1.107986-.424912,1.532854,0l.441528.441575c.420702.424912.420702,1.112269,0,1.537181l-6.789544,6.819418-.004165-.004166Z" fill="none"/><line id="maze-s-line1" x1="47.56" y1="40.68" x2="46.07" y2="39.18" transform="translate(-9.285233 -1.60327)" fill="none"/></g></g></g><g id="maze-u-check_ts" transform="translate(18.316668,5.516668) scale(1,1)"><g id="maze-u-check" transform="translate(-17.808403,-6.079167)"><g id="maze-u-circle_ts" transform="translate(17.808399,6.079167) scale(0,0)"><path id="maze-u-circle" d="M50.97,8.77c0,2.210909-1.792727,4-4,4s-4-1.789091-4-4s1.792727-4,4-4s4,1.789091,4,4Z" transform="translate(-46.97,-8.77)" fill="none"/></g><polyline id="maze-s-polyline1" points="49.792225,13.582529 50.908004,14.91 52.98905,12.230549" transform="translate(-33.518265 -7.491107)" fill="none" stroke-dashoffset="5.13" stroke-dasharray="5.13"/></g></g></svg>