<svg id="play-circle" xmlns="http://www.w3.org/2000/svg" xmlns:xlink="http://www.w3.org/1999/xlink" viewBox="0 0 24 24" stroke="currentColor" stroke-linecap="round" stroke-linejoin="round" shape-rendering="geometricPrecision" text-rendering="geometricPrecision">
<style><![CDATA[
#play-circle{pointer-events: all}#play-circle #play-circle-s-path1_ts {animation: play-circle-s-path1_ts__ts 700ms linear infinite normal backwards}@keyframes play-circle-s-path1_ts__ts { 0% {transform: translate(12px,12px) scale(1,1);animation-timing-function: cubic-bezier(0.215,0.61,0.355,1)} 42.857143% {transform: translate(12px,12px) scale(0.9,0.9);animation-timing-function: cubic-bezier(0.215,0.61,0.355,1)} 85.714286% {transform: translate(12px,12px) scale(1,1)} 100% {transform: translate(12px,12px) scale(1,1)}} #play-circle #play-circle-s-path2_to {animation: play-circle-s-path2_to__to 700ms linear infinite normal backwards}@keyframes play-circle-s-path2_to__to { 0% {transform: translate(13px,12px);animation-timing-function: cubic-bezier(0.68,-0.2,1,0.2)} 57.142857% {transform: translate(31px,12px)} 100% {transform: translate(31px,12px)}} #play-circle #play-circle-s-path3_to {animation: play-circle-s-path3_to__to 700ms linear infinite normal backwards}@keyframes play-circle-s-path3_to__to { 0% {transform: translate(-7px,12px)} 42.857143% {transform: translate(-7px,12px);animation-timing-function: cubic-bezier(0.215,0.61,0.355,1.2)} 100% {transform: translate(13px,12px)}} #play-circle #play-circle-u-copy-of-path_ts {animation: play-circle-u-copy-of-path_ts__ts 700ms linear infinite normal backwards}@keyframes play-circle-u-copy-of-path_ts__ts { 0% {transform: translate(12px,12px) scale(1,1);animation-timing-function: cubic-bezier(0.215,0.61,0.355,1)} 42.857143% {transform: translate(12px,12px) scale(0.9,0.9);animation-timing-function: cubic-bezier(0.215,0.61,0.355,1)} 85.714286% {transform: translate(12px,12px) scale(1,1)} 100% {transform: translate(12px,12px) scale(1,1)}}
]]></style>
<g id="play-circle-s-path1_ts" transform="translate(12,12) scale(1,1)"><path id="play-circle-s-path1" d="M10.5,20.5c5.5228,0,10-4.4772,10-10s-4.4772-10-10-10-10,4.47715-10,10s4.47715,10,10,10Z" transform="translate(-10.5,-10.5)" fill="none"/></g><g id="play-circle-u-mask-group" mask="url(#play-circle-u-masks)"><g id="play-circle-s-path2_to" transform="translate(13,12)"><path id="play-circle-s-path2" d="M8.5,6.5l6,4-6,4v-8Z" transform="translate(-11.5,-10.5)" fill="none"/></g><g id="play-circle-s-path3_to" transform="translate(-7,12)"><path id="play-circle-s-path3" d="M8.5,6.5l6,4-6,4v-8Z" transform="translate(-11.5,-10.5)" fill="none"/></g><mask id="play-circle-u-masks" mask-type="luminance" x="-150%" y="-150%" height="400%" width="400%"><g id="play-circle-u-copy-of-path_ts" transform="translate(12,12) scale(1,1)"><path id="play-circle-u-copy-of-path" d="M10.5,20.5c5.5228,0,10-4.4772,10-10s-4.4772-10-10-10-10,4.47715-10,10s4.47715,10,10,10Z" transform="translate(-10.5,-10.5)" fill="#fff" stroke-width="0"/></g></mask></g></svg>