<svg id="recycle" xmlns="http://www.w3.org/2000/svg" xmlns:xlink="http://www.w3.org/1999/xlink" viewBox="0 0 24 24" stroke="currentColor" stroke-linecap="round" stroke-linejoin="round" shape-rendering="geometricPrecision" text-rendering="geometricPrecision">
<style><![CDATA[
#recycle{pointer-events: all}#recycle #recycle-u-outer {animation: recycle-u-outer_s_do 600ms linear infinite normal backwards}@keyframes recycle-u-outer_s_do { 0% {stroke-dashoffset: 51} 100% {stroke-dashoffset: 30.9}} #recycle #recycle-u-inner {animation: recycle-u-inner_s_do 600ms linear infinite normal backwards}@keyframes recycle-u-inner_s_do { 0% {stroke-dashoffset: 18.9} 100% {stroke-dashoffset: 33}} #recycle #recycle-u-copy-of-path_to {animation: recycle-u-copy-of-path_to__to 600ms linear infinite normal backwards}@keyframes recycle-u-copy-of-path_to__to { 0% {offset-distance: 0%} 50% {offset-distance: 50.476573%} 83.333333% {offset-distance: 79.963867%} 100% {offset-distance: 100%}} #recycle #recycle-u-copy-of-path2_to {animation: recycle-u-copy-of-path2_to__to 600ms linear infinite normal backwards}@keyframes recycle-u-copy-of-path2_to__to { 0% {offset-distance: 0%} 50% {offset-distance: 49.628067%} 83.333333% {offset-distance: 80.724532%} 100% {offset-distance: 100%}} #recycle #recycle-u-copy-of-path3_to {animation: recycle-u-copy-of-path3_to__to 600ms linear infinite normal backwards}@keyframes recycle-u-copy-of-path3_to__to { 0% {offset-distance: 0%} 50% {offset-distance: 49.529045%} 83.333333% {offset-distance: 71.229276%} 100% {offset-distance: 100%}} #recycle #recycle-s-path1 {animation: recycle-s-path1_s_do 600ms linear infinite normal backwards}@keyframes recycle-s-path1_s_do { 0% {stroke-dashoffset: 16.74} 50% {stroke-dashoffset: 8.37} 66.666667% {stroke-dashoffset: 8.37} 91.666667% {stroke-dashoffset: 0} 100% {stroke-dashoffset: 0}} #recycle #recycle-s-path2 {animation: recycle-s-path2_s_do 600ms linear infinite normal backwards}@keyframes recycle-s-path2_s_do { 0% {stroke-dashoffset: 16.74} 50% {stroke-dashoffset: 8.37} 66.666667% {stroke-dashoffset: 8.37} 91.666667% {stroke-dashoffset: 0} 100% {stroke-dashoffset: 0}} #recycle #recycle-s-path3 {animation: recycle-s-path3_s_do 600ms linear infinite normal backwards}@keyframes recycle-s-path3_s_do { 0% {stroke-dashoffset: 16.74} 50% {stroke-dashoffset: 8.37} 66.666667% {stroke-dashoffset: 8.37} 91.666667% {stroke-dashoffset: 0} 100% {stroke-dashoffset: 0}} #recycle #recycle-s-path4_to {animation: recycle-s-path4_to__to 600ms linear infinite normal backwards}@keyframes recycle-s-path4_to__to { 0% {offset-distance: 0%} 50% {offset-distance: 49.529045%} 83.333333% {offset-distance: 71.229276%} 100% {offset-distance: 100%}} #recycle #recycle-s-path5_to {animation: recycle-s-path5_to__to 600ms linear infinite normal backwards}@keyframes recycle-s-path5_to__to { 0% {offset-distance: 0%} 50% {offset-distance: 49.628067%} 83.333333% {offset-distance: 80.724532%} 100% {offset-distance: 100%}} #recycle #recycle-s-path6_to {animation: recycle-s-path6_to__to 600ms linear infinite normal backwards}@keyframes recycle-s-path6_to__to { 0% {offset-distance: 0%} 50% {offset-distance: 50.476573%} 83.333333% {offset-distance: 79.963867%} 100% {offset-distance: 100%}}
]]></style>
<g id="recycle-u-mask-group" mask="url(#recycle-u-masks)"><path id="recycle-u-outer" d="M12.9823,1.25507L20.299,13.929c.268.4681.268,1.042,0,1.5101L19.1248,17.474c-.268.4682-.7702.7551-1.3063.7551h-14.63705c-.53987,0-1.03822-.2869-1.30627-.7551L0.701038,15.4391c-.268051-.4681-.268051-1.042,0-1.5101L8.01392,1.25507C8.28197,0.786928,8.7841,0.5,9.3202,0.5h2.3521c.5398,0,1.0382.286928,1.3062.75507h.0038Z" transform="translate(1.5 2.575916)" fill="none" stroke-dashoffset="51" stroke-dasharray="15,5.1"/><path id="recycle-u-inner" d="M10.4977,2.99219L3.44531,15.2093h14.10479L10.4977,2.99219Z" transform="translate(1.5 2.575916)" fill="none" stroke-dashoffset="18.9" stroke-dasharray="10,4.1"/><mask id="recycle-u-masks" mask-type="luminance" x="-150%" y="-150%" height="400%" width="400%"><g id="recycle-s-g1"><rect id="recycle-s-rect1" width="24" height="24" rx="0" ry="0" fill="#fff" stroke-width="0"/><g id="recycle-u-copy-of-path_to" style="offset-path:path('M15.47623,8.208278L19.665324,15.451473C20.193135,16.495409,20.023755,19.489548,18.290383,19.489275L14.969339,19.446011');offset-rotate:auto"><path id="recycle-u-copy-of-path" d="M13.8352,1.19294l1.1411-.658769c.1341-.077392.2622.00118.3243.048202.1329.101965.2063.281928.1732.405701L14.3484,4.55855c-.0683.24428-.3186.38446-.561.31951l-3.6331-.87131c-.134-.03593-.25321-.18947-.27262-.34392-.0184-.13759.04571-.25307.17322-.32668l1.1313-.65311" transform="rotate(-59.085513) translate(-12.777968,-2.054298)" stroke-width="0" stroke-linecap="round" stroke-linejoin="round"/></g><g id="recycle-u-copy-of-path2_to" style="offset-path:path('M5.812139,12.854078L9.708238,6.070581C10.437737,4.843749,13.274259,4.273161,14,5.5L15.444656,8.172921');offset-rotate:auto"><path id="recycle-u-copy-of-path2" d="M1.76476,7.253L0.623665,6.59423c-.134054-.0774-.130111-.2277-.120403-.30492.021808-.16614.140963-.31968.264736-.35285l3.654782-.8108c.24565-.06307.49226.08366.55721.32605l1.06213,3.5819c.03593.13409-.03745.31405-.16149.40809-.10996.08474-.24202.08697-.36954.01335L4.37981,8.80194" transform="rotate(58.437199) translate(-3.275172,-7.309465)" stroke-width="0" stroke-linecap="round" stroke-linejoin="round"/></g><g id="recycle-u-copy-of-path3_to" style="offset-path:path('M14.028411,19.294748L5.327879,19.287812C3.872667,19.287812,2.964391,17.867047,3.69388,16.640213L6.39,12.365399');offset-rotate:auto"><path id="recycle-u-copy-of-path3" d="M13.242,15.1402v1.3176c0,.1548-.1322.2265-.2039.2567-.1548.0642-.3473.0378-.4379-.0528l-2.5295-2.7598c-.17748-.1812-.17371-.4682.0037-.6456l2.5711-2.7107c.0981-.0982.2907-.1246.4341-.0642.1284.0529.1963.1661.1963.3134v1.3062" transform="scale(-1,1) translate(-11.607676,-13.599555)" stroke-width="0" stroke-linecap="round" stroke-linejoin="round"/></g></g></mask></g><path id="recycle-s-path1" d="M8.51278,15.2092h-6.22558c0,0-1.396887.0151-1.687591-1.0647" transform="translate(1.5 2.575916)" fill="none" stroke-dashoffset="16.74" stroke-dasharray="8.37"/><path id="recycle-s-path2" d="M7.96875,7.38429L11.0797,1.99306c0,0,.6871-1.21944,1.7668-.92874" transform="translate(1.5 2.575916)" fill="none" stroke-dashoffset="16.74" stroke-dasharray="8.37"/><path id="recycle-s-path3" d="M15.0215,10.8281l3.1147,5.3875c0,0,.7097,1.2043-.0793,1.9934" transform="translate(1.5 2.575917)" fill="none" stroke-dashoffset="16.74" stroke-dasharray="8.37"/><g id="recycle-s-path4_to" style="offset-path:path('M14.028411,19.294748L5.327879,19.287812C3.872667,19.287812,2.964391,17.867047,3.69388,16.640213L6.39,12.365399');offset-rotate:auto"><path id="recycle-s-path4" d="M13.242,15.1402v1.3176c0,.1548-.1322.2265-.2039.2567-.1548.0642-.3473.0378-.4379-.0528l-2.5295-2.7598c-.17748-.1812-.17371-.4682.0037-.6456l2.5711-2.7107c.0981-.0982.2907-.1246.4341-.0642.1284.0529.1963.1661.1963.3134v1.3062" transform="scale(-1,1) translate(-11.607676,-13.599555)" fill="none"/></g><g id="recycle-s-path5_to" style="offset-path:path('M5.812139,12.854078L9.708238,6.070581C10.437737,4.843749,13.274259,4.273161,14,5.5L15.444656,8.172921');offset-rotate:auto"><path id="recycle-s-path5" d="M1.76476,7.253L0.623665,6.59423c-.134054-.0774-.130111-.2277-.120403-.30492.021808-.16614.140963-.31968.264736-.35285l3.654782-.8108c.24565-.06307.49226.08366.55721.32605l1.06213,3.5819c.03593.13409-.03745.31405-.16149.40809-.10996.08474-.24202.08697-.36954.01335L4.37981,8.80194" transform="rotate(58.437199) translate(-3.275172,-7.309465)" fill="none"/></g><g id="recycle-s-path6_to" style="offset-path:path('M15.47623,8.208278L19.665324,15.451473C20.193135,16.495409,20.023755,19.489548,18.290383,19.489275L14.969339,19.446011');offset-rotate:auto"><path id="recycle-s-path6" d="M13.8352,1.19294l1.1411-.658769c.1341-.077392.2622.00118.3243.048202.1329.101965.2063.281928.1732.405701L14.3484,4.55855c-.0683.24428-.3186.38446-.561.31951l-3.6331-.87131c-.134-.03593-.25321-.18947-.27262-.34392-.0184-.13759.04571-.25307.17322-.32668l1.1313-.65311" transform="rotate(-59.085513) translate(-12.777968,-2.054298)" fill="none"/></g></svg>