<svg id="shredder" xmlns="http://www.w3.org/2000/svg" xmlns:xlink="http://www.w3.org/1999/xlink" viewBox="0 0 24 24" stroke="currentColor" stroke-linecap="round" stroke-linejoin="round" shape-rendering="geometricPrecision" text-rendering="geometricPrecision">
<style><![CDATA[
#shredder{pointer-events: all}#shredder #shredder-s-path3 {animation: shredder-s-path3_c_o 2000ms linear infinite normal backwards}@keyframes shredder-s-path3_c_o { 0% {opacity: 1} 5% {opacity: 1} 20% {opacity: 0} 35% {opacity: 1} 50% {opacity: 0} 65% {opacity: 1} 80% {opacity: 0} 95% {opacity: 1} 100% {opacity: 1}} #shredder #shredder-s-g1_to {animation: shredder-s-g1_to__to 2000ms linear infinite normal backwards}@keyframes shredder-s-g1_to__to { 0% {transform: translate(12px,-9px)} 50% {transform: translate(12px,17px)} 100% {transform: translate(12px,17px)}} #shredder #shredder-s-path9 {animation: shredder-s-path9_s_do 2000ms linear infinite normal backwards}@keyframes shredder-s-path9_s_do { 0% {stroke-dashoffset: 46.08} 30% {stroke-dashoffset: 46.08} 80% {stroke-dashoffset: 16} 100% {stroke-dashoffset: 16}} #shredder #shredder-s-path10 {animation: shredder-s-path10_s_do 2000ms linear infinite normal backwards}@keyframes shredder-s-path10_s_do { 0% {stroke-dashoffset: 46.38} 30% {stroke-dashoffset: 46.38} 80% {stroke-dashoffset: 16} 100% {stroke-dashoffset: 16}} #shredder #shredder-s-path11 {animation: shredder-s-path11_s_do 2000ms linear infinite normal backwards}@keyframes shredder-s-path11_s_do { 0% {stroke-dashoffset: 42.63} 30% {stroke-dashoffset: 42.63} 80% {stroke-dashoffset: 15} 100% {stroke-dashoffset: 15}} #shredder #shredder-s-path12 {animation: shredder-s-path12_s_do 2000ms linear infinite normal backwards}@keyframes shredder-s-path12_s_do { 0% {stroke-dashoffset: 40.95} 30% {stroke-dashoffset: 40.95} 80% {stroke-dashoffset: 14} 100% {stroke-dashoffset: 14}} #shredder #shredder-s-path13 {animation: shredder-s-path13_s_do 2000ms linear infinite normal backwards}@keyframes shredder-s-path13_s_do { 0% {stroke-dashoffset: 42.63} 30% {stroke-dashoffset: 42.63} 80% {stroke-dashoffset: 15} 100% {stroke-dashoffset: 15}} #shredder #shredder-s-path14 {animation: shredder-s-path14_s_do 2000ms linear infinite normal backwards}@keyframes shredder-s-path14_s_do { 0% {stroke-dashoffset: 46.38} 30% {stroke-dashoffset: 46.38} 80% {stroke-dashoffset: 16} 100% {stroke-dashoffset: 16}} #shredder #shredder-s-path15 {animation: shredder-s-path15_s_do 2000ms linear infinite normal backwards}@keyframes shredder-s-path15_s_do { 0% {stroke-dashoffset: 46.08} 30% {stroke-dashoffset: 46.08} 80% {stroke-dashoffset: 16} 100% {stroke-dashoffset: 16}}
]]></style>
<path id="shredder-s-path1" d="M3.53172,10.8598h-2.00979C0.959868,10.8598,0.5,10.3999,0.5,9.83787v-8.31594C0.5,0.959868,0.959868,0.5,1.52193,0.5h17.95617c.562,0,1.0219.459868,1.0219,1.02193v8.31594c0,.56203-.4599,1.02193-1.0219,1.02193h-2.0481" transform="translate(1.5 6.3201)" fill="none"/><path id="shredder-s-path2" d="M17.7664,7.23633h-14.53691" transform="translate(1.5 6.3201)" fill="none"/><path id="shredder-s-path3" d="M3.206053,3.51758c.276142,0,.499997-.223861.499997-.500003s-.223855-.499997-.499997-.499997-.500003.223855-.500003.499997.223861.500003.500003.500003Z" transform="translate(1.5 6.3201)" fill="none"/><g id="shredder-u-mask-group" mask="url(#shredder-u-masks)"><g id="shredder-s-g1_to" transform="translate(12,-9)"><g id="shredder-s-g1" transform="translate(-6.5,-7.8831)"><path id="shredder-s-path4" d="M9.94534,11.4199h-6.8909" fill="none"/><path id="shredder-s-path5" d="M9.94534,9.45508h-6.8909" fill="none"/><path id="shredder-s-path6" d="M9.94534,7.48438h-6.8909" fill="none"/><path id="shredder-s-path7" d="M3.05444,3.54492h2.95324" fill="none"/><path id="shredder-s-path8" d="M12.5,0.5h-12v14.7662h12L12.5,0.5Z" fill="none"/></g></g><mask id="shredder-u-masks" mask-type="luminance" x="-150%" y="-150%" height="400%" width="400%"><rect id="shredder-s-rect1" width="24" height="4.258735" rx="0" ry="0" transform="matrix(1 0 0 1.596731 0 0)" fill="#fff" stroke-width="0"/></mask></g><g id="shredder-u-mask-group2" mask="url(#shredder-u-masks2)"><path id="shredder-s-path9" d="M5.25967,0.5c-.00163.14831,0,.50062,0,3.66437C5.25967,8.16156,4,13.4062,0.5,13.9062" transform="translate(1.4829 13.05643)" fill="none" stroke-miterlimit="1" stroke-dashoffset="46.08" stroke-dasharray="15.36"/><path id="shredder-s-path10" d="M7.01968,0.554688c-.00163.14831.0698,1.501382,0,4.664362-.08334,3.77658-1.25967,8.24185-4.75967,8.74185" transform="translate(1.4829 13.05643)" fill="none" stroke-miterlimit="1" stroke-dashoffset="46.38" stroke-dasharray="15.46"/><path id="shredder-s-path11" d="M8.63533,0.552734c0,1.604496,0,3.238966,0,4.764576c0,4.67108-.98719,8.07439-2.87971,8.43979" transform="translate(1.4829 13.05643)" fill="none" stroke-dashoffset="42.63" stroke-dasharray="14.21"/><path id="shredder-s-path12" d="M10.502,0.552734v13.640166" transform="translate(1.4829 13.05643)" fill="none" stroke-dashoffset="40.95" stroke-dasharray="13.65"/><path id="shredder-s-path13" d="M12.3818,0.552734c0,1.604496,0,3.238966,0,4.764576c0,4.67108.9872,8.07439,2.8797,8.43979" transform="translate(1.4829 13.05643)" fill="none" stroke-dashoffset="42.63" stroke-dasharray="14.21"/><path id="shredder-s-path14" d="M13.9974,0.554688c.0016.14831-.0698,1.501382,0,4.664362.0834,3.77658,1.2597,8.24185,4.7597,8.74185" transform="translate(1.4829 13.05643)" fill="none" stroke-miterlimit="1" stroke-dashoffset="46.38" stroke-dasharray="15.46"/><path id="shredder-s-path15" d="M15.7574,0.5c.0017.14831,0,.50062,0,3.66437c0,3.99719,1.2597,9.24183,4.7597,9.74183" transform="translate(1.4829 13.05643)" fill="none" stroke-miterlimit="1" stroke-dashoffset="46.08" stroke-dasharray="15.36"/><mask id="shredder-u-masks2" mask-type="luminance" x="-150%" y="-150%" height="400%" width="400%"><rect id="shredder-s-rect2" width="24" height="10.388882" rx="0" ry="0" transform="translate(0 13.611118)" fill="#fff" stroke-width="0"/></mask></g></svg>