<svg id="sparks" xmlns="http://www.w3.org/2000/svg" xmlns:xlink="http://www.w3.org/1999/xlink" viewBox="0 0 24 24" stroke="currentColor" stroke-linecap="round" stroke-linejoin="round" shape-rendering="geometricPrecision" text-rendering="geometricPrecision">
<style><![CDATA[
#sparks{pointer-events: all}#sparks #sparks-s-path1_ts {animation: sparks-s-path1_ts__ts 1100ms linear infinite normal backwards}@keyframes sparks-s-path1_ts__ts { 0% {transform: translate(9.72625px,14.2739px) scale(1,1);animation-timing-function: cubic-bezier(0.215,0.61,0.355,1)} 27.272727% {transform: translate(9.72625px,14.2739px) scale(0.6,0.6);animation-timing-function: cubic-bezier(0.215,0.61,0.355,1)} 54.545455% {transform: translate(9.72625px,14.2739px) scale(1.1,1.1);animation-timing-function: cubic-bezier(0.215,0.61,0.355,1)} 81.818182% {transform: translate(9.72625px,14.2739px) scale(1,1)} 100% {transform: translate(9.72625px,14.2739px) scale(1,1)}} #sparks #sparks-s-path2_ts {animation: sparks-s-path2_ts__ts 1100ms linear infinite normal backwards}@keyframes sparks-s-path2_ts__ts { 0% {transform: translate(17.98865px,5.98865px) scale(1,1)} 6.363636% {transform: translate(17.98865px,5.98865px) scale(1,1);animation-timing-function: cubic-bezier(0.215,0.61,0.355,1)} 33.636364% {transform: translate(17.98865px,5.98865px) scale(0.6,0.6);animation-timing-function: cubic-bezier(0.215,0.61,0.355,1)} 60.909091% {transform: translate(17.98865px,5.98865px) scale(1.1,1.1)} 90.909091% {transform: translate(17.98865px,5.98865px) scale(1,1)} 100% {transform: translate(17.98865px,5.98865px) scale(1,1)}} #sparks #sparks-s-path3_ts {animation: sparks-s-path3_ts__ts 1100ms linear infinite normal backwards}@keyframes sparks-s-path3_ts__ts { 0% {transform: translate(4.5001px,4.5px) scale(1,1)} 12.727273% {transform: translate(4.5001px,4.5px) scale(1,1);animation-timing-function: cubic-bezier(0.215,0.61,0.355,1)} 40% {transform: translate(4.5001px,4.5px) scale(0.6,0.6);animation-timing-function: cubic-bezier(0.215,0.61,0.355,1)} 67.272727% {transform: translate(4.5001px,4.5px) scale(1.1,1.1);animation-timing-function: cubic-bezier(0.215,0.61,0.355,1)} 100% {transform: translate(4.5001px,4.5px) scale(1,1)}}
]]></style>
<g id="sparks-s-path1_ts" transform="translate(9.72625,14.2739) scale(1,1)"><path id="sparks-s-path1" d="M8.22613,5.0918c.17705,0,.32192.06438.46678.16096.12877.09657.22535.24144.27364.4024l.83699,2.92949c.17706.62775.51506,1.20721.98186,1.67395s1.674.9819,1.674.9819l2.9295.837c.161.0483.3058.1449.4024.2736.0966.1449.161.3059.161.4668c0,.1771-.0644.338-.161.4668-.0966.1449-.2414.2254-.4024.2736l-2.9295.837c-.6277.1771-1.2072.5151-1.674.9819s-.8048,1.0462-.98186,1.674l-.83699,2.9295c-.04829.1609-.14487.3058-.27364.4024-.14486.0966-.30582.1609-.46678.1609-.17706,0-.33802-.0643-.46679-.1609s-.22535-.2415-.27363-.4024l-.837-2.9295c-.17706-.6278-.51508-1.2072-.98186-1.674s-1.04625-.8048-1.674-.9819l-2.92949-.837c-.160958-.0482-.305822-.1287-.402399-.2736C0.564384,13.1559,0.5,12.995,0.5,12.8179c0-.1609.064384-.3219.160961-.4668.096577-.1287.241441-.2253.402399-.2736l2.92949-.837c.62775-.1771,1.20721-.5151,1.674-.9819s.8048-1.0462.98186-1.67395l.837-2.92949c.04828-.16096.12876-.30583.27363-.4024.12877-.09658.28973-.16096.46679-.16096Z" transform="translate(-8.22615,-12.8179)" clip-rule="evenodd" fill="none" fill-rule="evenodd"/></g><g id="sparks-s-path2_ts" transform="translate(17.98865,5.98865) scale(1,1)"><path id="sparks-s-path2" d="M16.5111,0.5c.0831,0,.1828.033239.2493.083097s.0997.132955.133.216052l.4321,1.512361c.0997.33239.2659.63154.4985.86421s.8642.49858.8642.49858l1.5124.43211c.0831.03323.1662.06647.2161.13295s.0831.16619.0831.24929-.0333.16619-.0831.23267-.133.13296-.2161.14958l-1.5124.4321c-.3323.0831-.6315.28253-.8642.5152s-.3988.5152-.4985.84759l-.4321,1.52898c-.0333.0831-.0665.14958-.133.19943s-.1662.0831-.2493.0831-.1662-.03324-.2327-.0831-.1329-.11633-.1495-.19943l-.4321-1.52898c-.0831-.33239-.2826-.61492-.5152-.84759s-.5152-.4321-.8476-.5152l-1.5124-.4321c-.0831-.01662-.1662-.0831-.216-.14958-.0499-.06648-.0831-.14957-.0831-.23267s.0332-.18281.0831-.24929c.0498-.06648.1329-.09972.216-.13295L14.334,3.6743c.3324-.09971.6149-.26591.8476-.49858s.4321-.53182.5152-.86421l.4321-1.512361c.0166-.083097.0831-.166194.1495-.216052s.1496-.083097.2327-.083097Z" transform="translate(-16.51115,-4.48865)" clip-rule="evenodd" fill="none" fill-rule="evenodd"/></g><g id="sparks-s-path3_ts" transform="translate(4.5001,4.5) scale(1,1)"><path id="sparks-s-path3" d="M2.999967,0.5c.052091,0,.114575.020833.156258.052083s.062492.083334.083358.135417l.270834.947917c.062491.208333.166658.395833.31245.541666s.541658.3125.541658.3125l.947942.270834c.052083.020833.104175.041666.13545.083333s.052083.104167.052083.15625-.020875.104167-.052083.145833-.083367.083334-.13545.09375l-.947942.270834c-.208275.052083-.395808.177083-.541658.322916s-.249959.322917-.31245.53125l-.270834.958334c-.020866.052083-.041675.09375-.083358.125s-.104167.052083-.156258.052083-.104167-.020833-.14585-.052083-.0833-.072917-.0937-.125l-.270834-.958334c-.052083-.208333-.177125-.385416-.322916-.53125s-.322917-.270833-.531259-.322916l-.947939-.270834c-.052085-.010416-.10417-.052083-.135383-.09375s-.052086-.09375-.052086-.145833.020809-.114583.052086-.15625.083298-.0625.135383-.083333l.947939-.270834c.208342-.0625.385409-.166666.531259-.3125s.270833-.333333.322916-.541666L2.760417,0.6875c.0104-.052083.052083-.104167.0937-.135417s.093766-.052083.14585-.052083Z" transform="translate(-3,-3)" clip-rule="evenodd" fill="none" fill-rule="evenodd"/></g></svg>