<svg id="sunny-rainy" xmlns="http://www.w3.org/2000/svg" xmlns:xlink="http://www.w3.org/1999/xlink" viewBox="0 0 24 24" stroke="currentColor" stroke-linecap="round" stroke-linejoin="round" shape-rendering="geometricPrecision" text-rendering="geometricPrecision">
<style><![CDATA[
#sunny-rainy{pointer-events: all}#sunny-rainy #sunny-rainy-u-sun2_to {animation: sunny-rainy-u-sun2_to__to 5500ms linear infinite normal backwards}@keyframes sunny-rainy-u-sun2_to__to { 0% {transform: translate(17.084px,6.484806px)} 9.090909% {transform: translate(17.084px,6.484806px);animation-timing-function: cubic-bezier(0.825,-0.375,0.235,1.355)} 27.272727% {transform: translate(10.084px,16.484806px)} 72.727273% {transform: translate(10.084px,16.484806px);animation-timing-function: cubic-bezier(0.825,-0.375,0.235,1.355)} 90.909091% {transform: translate(17.084px,6.484806px)} 100% {transform: translate(17.084px,6.484806px)}} #sunny-rainy #sunny-rainy-s-g1_tr {animation: sunny-rainy-s-g1_tr__tr 5500ms linear infinite normal backwards}@keyframes sunny-rainy-s-g1_tr__tr { 0% {transform: translate(15.047044px,31.158075px) rotate(0deg)} 100% {transform: translate(15.047044px,31.158075px) rotate(360deg)}} #sunny-rainy #sunny-rainy-s-path8 {animation: sunny-rainy-s-path8_s_do 5500ms linear infinite normal backwards}@keyframes sunny-rainy-s-path8_s_do { 0% {stroke-dashoffset: 59.7} 20% {stroke-dashoffset: 59.7} 27.272727% {stroke-dashoffset: 54.7} 72.727273% {stroke-dashoffset: 54.7} 80% {stroke-dashoffset: 59.7} 100% {stroke-dashoffset: 59.7}} #sunny-rainy #sunny-rainy-s-path9 {animation: sunny-rainy-s-path9_s_do 5500ms linear infinite normal backwards}@keyframes sunny-rainy-s-path9_s_do { 0% {stroke-dashoffset: 0} 20% {stroke-dashoffset: 0} 27.272727% {stroke-dashoffset: 5} 72.727273% {stroke-dashoffset: 5} 80% {stroke-dashoffset: 0} 100% {stroke-dashoffset: 0}} #sunny-rainy #sunny-rainy-s-line1_to {animation: sunny-rainy-s-line1_to__to 5500ms linear infinite normal backwards}@keyframes sunny-rainy-s-line1_to__to { 0% {offset-distance: 0%} 27.272727% {offset-distance: 0%} 36.363636% {offset-distance: 50%} 63.636364% {offset-distance: 50%} 72.727273% {offset-distance: 100%} 100% {offset-distance: 100%}} #sunny-rainy #sunny-rainy-s-line1 {animation: sunny-rainy-s-line1_s_do 5500ms linear infinite normal backwards}@keyframes sunny-rainy-s-line1_s_do { 0% {stroke-dashoffset: 32} 36.363636% {stroke-dashoffset: 32} 63.636364% {stroke-dashoffset: 0} 100% {stroke-dashoffset: 0}} #sunny-rainy #sunny-rainy-s-line3_to {animation: sunny-rainy-s-line3_to__to 5500ms linear infinite normal backwards}@keyframes sunny-rainy-s-line3_to__to { 0% {offset-distance: 0%} 27.272727% {offset-distance: 0%} 36.363636% {offset-distance: 50%} 63.636364% {offset-distance: 50%} 72.727273% {offset-distance: 100%} 100% {offset-distance: 100%}} #sunny-rainy #sunny-rainy-s-line3 {animation: sunny-rainy-s-line3_s_do 5500ms linear infinite normal backwards}@keyframes sunny-rainy-s-line3_s_do { 0% {stroke-dashoffset: 32} 36.363636% {stroke-dashoffset: 32} 63.636364% {stroke-dashoffset: 0} 100% {stroke-dashoffset: 0}} #sunny-rainy #sunny-rainy-s-line5_to {animation: sunny-rainy-s-line5_to__to 5500ms linear infinite normal backwards}@keyframes sunny-rainy-s-line5_to__to { 0% {offset-distance: 0%} 27.272727% {offset-distance: 0%} 36.363636% {offset-distance: 50%} 63.636364% {offset-distance: 50%} 72.727273% {offset-distance: 100%} 100% {offset-distance: 100%}} #sunny-rainy #sunny-rainy-s-line5 {animation: sunny-rainy-s-line5_s_do 5500ms linear infinite normal backwards}@keyframes sunny-rainy-s-line5_s_do { 0% {stroke-dashoffset: 32} 36.363636% {stroke-dashoffset: 32} 63.636364% {stroke-dashoffset: 0} 100% {stroke-dashoffset: 0}}
]]></style>
<g id="sunny-rainy-u-sun" mask="url(#sunny-rainy-u-masks)"><g id="sunny-rainy-u-sun2_to" transform="translate(17.084,6.484806)"><g id="sunny-rainy-u-sun2" transform="translate(-15.5843,-30.18015)"><g id="sunny-rainy-s-g1_tr" transform="translate(15.047044,31.158075) rotate(0)"><g id="sunny-rainy-s-g1" transform="translate(-15.047044,-31.158074)"><path id="sunny-rainy-s-path1" d="M19.1367,30.741l1.3639-.1551" fill="none"/><path id="sunny-rainy-u-copy-of-path" d="M19.1367,30.741l1.3639-.1551" transform="matrix(0.027993 0.999608 -0.999608 0.027993 45.633045 15.259953)" fill="none"/><path id="sunny-rainy-u-copy-of-path-2" d="M19.1367,30.741l1.3639-.1551" transform="matrix(-0.70045 0.713702 -0.713702 -0.70045 47.804375 42.248242)" fill="none"/><path id="sunny-rainy-u-copy-of-path-3" d="M19.1367,30.741l1.3639-.1551" transform="matrix(-0.999776 -0.021176 0.021176 -0.999776 29.441808 62.800934)" fill="none"/><path id="sunny-rainy-s-path2" d="M18.2559,33.8008l1.0713.8564" fill="none"/><path id="sunny-rainy-s-path3" d="M10.668,27.7539l1.0748.8564" fill="none"/><path id="sunny-rainy-s-path4" d="M14.3789,25.7031l.1515,1.3639" fill="none"/><path id="sunny-rainy-s-path5" d="M18.4482,26.875l-.8564,1.0713" fill="none"/></g></g><path id="sunny-rainy-s-path6" d="M12.8418,29.8806c.4546-.7436,1.2828-1.237,2.2202-1.2159c1.4026.0282,2.5128,1.1877,2.4846,2.5903-.0176.874-.4758,1.6387-1.1595,2.0828" fill="none"/></g></g><mask id="sunny-rainy-u-masks" mask-type="luminance" x="-150%" y="-150%" height="400%" width="400%"><g id="sunny-rainy-s-g2"><rect id="sunny-rainy-s-rect1" width="24" height="24" rx="0" ry="0" transform="matrix(1 0 0 0.611596 0 0)" fill="#fff" stroke-width="0"/><path id="sunny-rainy-s-path7" d="M4.09714,4.77198L4.289,4.76472c.39774,0,.74115.03637,1.05145.11435v-.48389c0-2.14372,1.80352-3.897116,3.94756-3.897116c2.14339,0,3.94689,1.753396,3.94689,3.897116v.34349h.958c2.1434,0,3.8971,1.80386,3.8971,3.94724s-1.7537,3.94689-3.8971,3.94689h-10.16004C2.11528,12.6328,0.5,10.7199,0.5,8.70503c0-2.03658,1.59484-3.79262,3.59714-3.93305Z" transform="translate(1.499699 5.991936)" stroke-width="0" stroke-linejoin="round"/></g></mask></g><path id="sunny-rainy-s-path8" d="M9.31711,42.3103l4.90569.007c2.1286,0,3.8695-1.7409,3.8695-3.8695v-.148c0-2.1286-1.7409-3.8696-3.8695-3.8696h-.9833v-.3031c0-2.1779-1.7656-3.9435-3.94354-3.9435-1.822,0-3.35854,1.237-3.80963,2.918" transform="translate(1.4997 -23.695344)" fill="none" stroke-dashoffset="59.7" stroke-dasharray="29.85"/><path id="sunny-rainy-s-path9" d="M7.05497,35.6353c-.82114-.8528-1.53302-1.2017-2.76648-1.2017l-.19031.007C2.09645,34.5816,0.5,36.2626,0.5,38.3031v.1481c0,2.0158,1.58235,3.8554,3.53475,3.8554l5.22988.0071" transform="translate(1.499699 -23.695344)" fill="none" stroke-dasharray="20.28"/><g id="sunny-rainy-u-mask-group" transform="translate(2.565469 -0.65607)" mask="url(#sunny-rainy-u-masks2)"><g id="sunny-rainy-s-line1_to" style="offset-path:path('M10.93092,8.977642L4.93092,19.369947L4.93092,19.369947L-1.06908,29.762252');offset-rotate:0deg"><line id="sunny-rainy-s-line1" x1="4.729204" y1="0" x2="-3.270796" y2="0" transform="rotate(-60) translate(-0.729204,0)" fill="none" stroke-dashoffset="32" stroke-dasharray="1,2"/></g><mask id="sunny-rainy-u-masks2" mask-type="alpha" x="-150%" y="-150%" height="400%" width="400%"><line id="sunny-rainy-s-line2" x1="0" y1="-4.811437" x2="0" y2="3.188563" transform="matrix(0.866025 0.5 -0.5 0.866025 4.528813 20.072897)" fill="none"/></mask></g><g id="sunny-rainy-u-mask-group2" transform="translate(5.565469 -0.65607)" mask="url(#sunny-rainy-u-masks3)"><g id="sunny-rainy-s-line3_to" style="offset-path:path('M10.93092,8.977642L4.93092,19.369947L4.93092,19.369947L-1.06908,29.762252');offset-rotate:0deg"><line id="sunny-rainy-s-line3" x1="4.729204" y1="0" x2="-3.270796" y2="0" transform="rotate(-60) translate(-0.729204,0)" fill="none" stroke-dashoffset="32" stroke-dasharray="1,2"/></g><mask id="sunny-rainy-u-masks3" mask-type="alpha" x="-150%" y="-150%" height="400%" width="400%"><line id="sunny-rainy-s-line4" x1="0" y1="-4.811437" x2="0" y2="3.188563" transform="matrix(0.866025 0.5 -0.5 0.866025 4.528813 20.072897)" fill="none"/></mask></g><g id="sunny-rainy-u-mask-group3" transform="translate(8.565469 -0.65607)" mask="url(#sunny-rainy-u-masks4)"><g id="sunny-rainy-s-line5_to" style="offset-path:path('M10.93092,8.977642L4.93092,19.369947L4.93092,19.369947L-1.06908,29.762252');offset-rotate:0deg"><line id="sunny-rainy-s-line5" x1="4.729204" y1="0" x2="-3.270796" y2="0" transform="rotate(-60) translate(-0.729204,0)" fill="none" stroke-dashoffset="32" stroke-dasharray="1,2"/></g><mask id="sunny-rainy-u-masks4" mask-type="alpha" x="-150%" y="-150%" height="400%" width="400%"><line id="sunny-rainy-s-line6" x1="0" y1="-4.811437" x2="0" y2="3.188563" transform="matrix(0.866025 0.5 -0.5 0.866025 4.528813 20.072897)" fill="none"/></mask></g></svg>