<svg id="telescope" xmlns="http://www.w3.org/2000/svg" xmlns:xlink="http://www.w3.org/1999/xlink" viewBox="0 0 24 24" stroke="currentColor" stroke-linecap="round" stroke-linejoin="round" shape-rendering="geometricPrecision" text-rendering="geometricPrecision">
<style><![CDATA[
#telescope{pointer-events: all}#telescope #telescope-s-g1_tr {animation: telescope-s-g1_tr__tr 1500ms linear infinite normal backwards}@keyframes telescope-s-g1_tr__tr { 0% {transform: translate(11.999787px,12.912587px) rotate(0deg)} 20% {transform: translate(11.999787px,12.912587px) rotate(0deg);animation-timing-function: cubic-bezier(0.175,0.885,0.32,1.275)} 46.666667% {transform: translate(11.999787px,12.912587px) rotate(-22deg)} 60% {transform: translate(11.999787px,12.912587px) rotate(-22deg);animation-timing-function: cubic-bezier(0.175,0.885,0.32,1.275)} 100% {transform: translate(11.999787px,12.912587px) rotate(0deg)}} #telescope #telescope-s-line1 {animation: telescope-s-line1_s_do 1500ms linear infinite normal backwards}@keyframes telescope-s-line1_s_do { 0% {stroke-dashoffset: 14} 26.666667% {stroke-dashoffset: 14} 60% {stroke-dashoffset: 42} 100% {stroke-dashoffset: 42}} #telescope #telescope-s-line2 {animation: telescope-s-line2_s_do 1500ms linear infinite normal backwards}@keyframes telescope-s-line2_s_do { 0% {stroke-dashoffset: 14} 33.333333% {stroke-dashoffset: 42} 100% {stroke-dashoffset: 42}} #telescope #telescope-s-g2_tr {animation: telescope-s-g2_tr__tr 1500ms linear infinite normal backwards}@keyframes telescope-s-g2_tr__tr { 0% {transform: translate(6.030722px,3.612032px) rotate(0deg)} 60% {transform: translate(6.030722px,3.612032px) rotate(0deg)} 100% {transform: translate(6.030722px,3.612032px) rotate(360deg)}} #telescope #telescope-s-g2_ts {animation: telescope-s-g2_ts__ts 1500ms linear infinite normal backwards}@keyframes telescope-s-g2_ts__ts { 0% {transform: scale(0,0)} 60% {transform: scale(0,0)} 80% {transform: scale(1,1)} 100% {transform: scale(0,0)}} #telescope #telescope-u-group_tr {animation: telescope-u-group_tr__tr 1500ms linear infinite normal backwards}@keyframes telescope-u-group_tr__tr { 0% {transform: translate(19px,15px) rotate(0deg)} 20% {transform: translate(19px,15px) rotate(0deg)} 60% {transform: translate(19px,15px) rotate(360deg)} 100% {transform: translate(19px,15px) rotate(360deg)}} #telescope #telescope-u-group_ts {animation: telescope-u-group_ts__ts 1500ms linear infinite normal backwards}@keyframes telescope-u-group_ts__ts { 0% {transform: scale(0,0)} 20% {transform: scale(0,0)} 40% {transform: scale(1,1)} 60% {transform: scale(0,0)} 100% {transform: scale(0,0)}}
]]></style>
<g id="telescope-s-g1_tr" transform="translate(11.999787,12.912587) rotate(0)"><g id="telescope-s-g1" transform="translate(-11.999787,-12.912587)"><path id="telescope-s-path1" d="M8.52538,9.98009L2.21168,11.3266c-.24507.0532-.50123.0078-.71306-.1265s-.36233-.3464-.41891-.5907L0.531091,8.4129c-.0645-.26465-.027873-.54384.102708-.78289s.345708-.42074.603241-.50948L15.0332,2.58447" transform="translate(1.499472 2.414247)" fill="none"/><path id="telescope-s-path2" d="M12.0938,9.2184l4.4257-.94399" transform="translate(1.499472 2.414248)" fill="none"/><path id="telescope-s-path3" d="M15.0844,3.28573c-.1314-.52565-.0485-1.08193.2302-1.54653s.7306-.799451,1.2563-.930935l1.1135-.277885c.2627-.065528.5407-.024112.7728.115149s.3996.364981.4655.627581l1.5477,6.19111c.0659.26282.0246.54103-.1147.77344s-.3652.39995-.628.4658l-1.1136.27788c-.5256.13133-1.0819.04851-1.5465-.23024s-.7995-.73063-.9309-1.25623L15.0844,3.28573Z" transform="translate(1.499472 2.414247)" fill="none"/><path id="telescope-s-path4" d="M4.53125,6.03662L5.66935,10.589" transform="translate(1.499472 2.414247)" fill="none"/></g></g><path id="telescope-s-path5" d="M14.5862,18.6715l-3.1721-6.3444" transform="translate(1.499472 2.414248)" fill="none"/><path id="telescope-s-path6" d="M6.41406,18.6715l3.17218-6.3444" transform="translate(1.499472 2.414248)" fill="none"/><path id="telescope-s-path7" d="M10.5003,12.5416c1.1285,0,2.0433-.9148,2.0433-2.0433s-.9148-2.04322-2.0433-2.04322-2.04327.9148-2.04327,2.04322.9148,2.0433,2.04327,2.0433Z" transform="translate(1.499472 2.414247)" fill="none"/><line id="telescope-s-line1" x1="-6.552369" y1="0" x2="7.447631" y2="0" transform="matrix(0.707107 -0.707107 0.707107 0.707107 7.359355 3.928555)" fill="none" stroke-dashoffset="14" stroke-dasharray="14"/><line id="telescope-s-line2" x1="-6.552369" y1="0" x2="7.447631" y2="0" transform="matrix(0.707107 -0.707107 0.707107 0.707107 6.359355 2.928555)" fill="none" stroke-dashoffset="14" stroke-dasharray="14"/><g id="telescope-s-g2_tr" transform="translate(6.030722,3.612032) rotate(0)"><g id="telescope-s-g2_ts" transform="scale(0,0)"><g id="telescope-s-g2" transform="translate(-6.030722,-3.612032)"><line id="telescope-s-line3" x1="0" y1="-1.193343" x2="0" y2="0.806657" transform="translate(6.030722 3.805375)" fill="none"/><line id="telescope-s-line4" x1="0" y1="-1.193343" x2="0" y2="0.806657" transform="matrix(0 1 -1 0 5.837379 3.612032)" fill="none"/></g></g></g><g id="telescope-u-group_tr" transform="translate(19,15) rotate(0)"><g id="telescope-u-group_ts" transform="scale(0,0)"><g id="telescope-u-group" transform="translate(-6.030722,-3.612032)"><line id="telescope-s-line5" x1="0" y1="-1.193343" x2="0" y2="0.806657" transform="translate(6.030722 3.805375)" fill="none"/><line id="telescope-s-line6" x1="0" y1="-1.193343" x2="0" y2="0.806657" transform="matrix(0 1 -1 0 5.837379 3.612032)" fill="none"/></g></g></g></svg>