<svg id="touch-id" xmlns="http://www.w3.org/2000/svg" xmlns:xlink="http://www.w3.org/1999/xlink" viewBox="0 0 24 24" stroke="currentColor" stroke-linecap="round" stroke-linejoin="round" shape-rendering="geometricPrecision" text-rendering="geometricPrecision">
<style><![CDATA[
#touch-id{pointer-events: all}#touch-id #touch-id-u-bg {animation: touch-id-u-bg_c_o 3000ms linear infinite normal backwards}@keyframes touch-id-u-bg_c_o { 0% {opacity: 0.1;animation-timing-function: step-end} 40% {opacity: 0} 100% {opacity: 0}} #touch-id #touch-id-u-fingerprint {animation: touch-id-u-fingerprint_c_o 3000ms linear infinite normal backwards}@keyframes touch-id-u-fingerprint_c_o { 0% {opacity: 1} 40% {opacity: 1} 53.333333% {opacity: 0} 100% {opacity: 0}} #touch-id #touch-id-s-path11 {animation: touch-id-s-path11_s_do 3000ms linear infinite normal backwards}@keyframes touch-id-s-path11_s_do { 0% {stroke-dashoffset: 3.89;animation-timing-function: cubic-bezier(0,0,0.58,1)} 33.333333% {stroke-dashoffset: 7.78} 100% {stroke-dashoffset: 7.78}} #touch-id #touch-id-s-path12 {animation: touch-id-s-path12_s_do 3000ms linear infinite normal backwards}@keyframes touch-id-s-path12_s_do { 0% {stroke-dashoffset: 4.59;animation-timing-function: cubic-bezier(0,0,0.58,1)} 33.333333% {stroke-dashoffset: 9.18} 100% {stroke-dashoffset: 9.18}} #touch-id #touch-id-s-path13 {animation: touch-id-s-path13_s_do 3000ms linear infinite normal backwards}@keyframes touch-id-s-path13_s_do { 0% {stroke-dashoffset: 28.84;animation-timing-function: cubic-bezier(0,0,0.58,1)} 40% {stroke-dashoffset: 57.68} 100% {stroke-dashoffset: 57.68}} #touch-id #touch-id-s-path14 {animation: touch-id-s-path14_s_do 3000ms linear infinite normal backwards}@keyframes touch-id-s-path14_s_do { 0% {stroke-dashoffset: 3.27;animation-timing-function: cubic-bezier(0,0,0.58,1)} 33.333333% {stroke-dashoffset: 0} 100% {stroke-dashoffset: 0}} #touch-id #touch-id-s-path15 {animation: touch-id-s-path15_s_do 3000ms linear infinite normal backwards}@keyframes touch-id-s-path15_s_do { 0% {stroke-dashoffset: 13.64;animation-timing-function: cubic-bezier(0,0,0.58,1)} 40% {stroke-dashoffset: 0} 100% {stroke-dashoffset: 0}} #touch-id #touch-id-s-path16 {animation: touch-id-s-path16_s_do 3000ms linear infinite normal backwards}@keyframes touch-id-s-path16_s_do { 0% {stroke-dashoffset: 13.27;animation-timing-function: cubic-bezier(0,0,0.58,1)} 40% {stroke-dashoffset: 0} 100% {stroke-dashoffset: 0}} #touch-id #touch-id-s-path17 {animation: touch-id-s-path17_s_do 3000ms linear infinite normal backwards}@keyframes touch-id-s-path17_s_do { 0% {stroke-dashoffset: 37.08;animation-timing-function: cubic-bezier(0,0,0.58,1)} 40% {stroke-dashoffset: 0} 100% {stroke-dashoffset: 0}} #touch-id #touch-id-s-path18 {animation: touch-id-s-path18_s_do 3000ms linear infinite normal backwards}@keyframes touch-id-s-path18_s_do { 0% {stroke-dashoffset: 3.88;animation-timing-function: cubic-bezier(0,0,0.58,1)} 33.333333% {stroke-dashoffset: 7.76} 100% {stroke-dashoffset: 7.76}} #touch-id #touch-id-s-path19 {animation: touch-id-s-path19_s_do 3000ms linear infinite normal backwards}@keyframes touch-id-s-path19_s_do { 0% {stroke-dashoffset: 17.36;animation-timing-function: cubic-bezier(0,0,0.58,1)} 40% {stroke-dashoffset: 34.72} 100% {stroke-dashoffset: 34.72}} #touch-id #touch-id-s-path20 {animation: touch-id-s-path20_s_do 3000ms linear infinite normal backwards}@keyframes touch-id-s-path20_s_do { 0% {stroke-dashoffset: 9.39;animation-timing-function: cubic-bezier(0,0,0.58,1)} 33.333333% {stroke-dashoffset: 18.78} 100% {stroke-dashoffset: 18.78}} #touch-id #touch-id-s-path21 {animation: touch-id-s-path21_s_do 3000ms linear infinite normal backwards}@keyframes touch-id-s-path21_s_do { 0% {stroke-dashoffset: 54} 53.333333% {stroke-dashoffset: 54} 63.333333% {stroke-dashoffset: 32} 100% {stroke-dashoffset: 32}} #touch-id #touch-id-s-path22 {animation: touch-id-s-path22_s_do 3000ms linear infinite normal backwards}@keyframes touch-id-s-path22_s_do { 0% {stroke-dashoffset: 63} 40% {stroke-dashoffset: 63} 53.333333% {stroke-dashoffset: 0} 100% {stroke-dashoffset: 0}}
]]></style>
<g id="touch-id-u-bg" opacity="0.1"><path id="touch-id-s-path1" d="M8.21875,20.1461c1.07913-.9433,1.63069-1.7946,2.16225-3.1734" transform="translate(1.500103 1.5081)" fill="none"/><path id="touch-id-s-path2" d="M10.9027,15.0979c.2158-1.3589.2158-3.0855-.4476-4.4963" transform="translate(1.500103 1.5081)" fill="none"/><path id="touch-id-s-path3" d="M6.16797,19.2562c2.01438-1.8945,2.59791-4.6043,1.80654-7.5819s.98721-3.75293,1.99839-3.96076c1.3589-.27578,2.7338.60751,3.2414,2.49396.2958,1.0991,1.179,6.4908-2.4061,10.2757" transform="translate(1.500103 1.5081)" fill="none"/><path id="touch-id-s-path4" d="M5.95466,15.3125c-.31575,1.0951-.93924,1.9184-1.87849,2.5979" transform="translate(1.500103 1.5081)" fill="none"/><path id="touch-id-s-path5" d="M12.9632,6.08888c-.9952-.93924-4.10473-1.28695-6.03518.64748C4.48999,9.17838,5.64106,12.6516,6.07671,13.295" transform="translate(1.500103 1.5081)" fill="none"/><path id="touch-id-s-path6" d="M14.1934,19.7648c2.382-3.2134,1.7825-8.2054,1.5627-9.6602-.1559-1.01918-.6475-2.04635-1.3709-2.89366" transform="translate(1.500103 1.5081)" fill="none"/><path id="touch-id-s-path7" d="M17.598,17.5178c.8713-2.2222,1.0072-5.2198.5875-7.65382-.8913-5.15182-5.1119-7.63381-9.1806-6.81048-4.44842.89927-6.97838,5.11186-5.64745,9.7361.44364,1.5388.02797,2.5859-.86331,3.4172" transform="translate(1.500103 1.5081)" fill="none"/><path id="touch-id-s-path8" d="M0.883691,13.294C0.631894,12.4147,0.5,11.4875,0.5,10.5283c0-.3638.019984-.71946.055955-1.07518" transform="translate(1.500103 1.5081)" fill="none"/><path id="touch-id-s-path9" d="M0.970703,7.47434C2.25767,3.42962,6.03462,0.5,10.495,0.5c1.6427,0,3.1895.395679,4.5564,1.09911" transform="translate(1.500103 1.5081)" fill="none"/><path id="touch-id-s-path10" d="M16.7227,2.68359c2.2981,1.83851,3.9608,4.8121,3.7609,8.20931" transform="translate(1.500103 1.5081)" fill="none"/></g><g id="touch-id-u-fingerprint"><path id="touch-id-s-path11" d="M8.21875,20.1461c1.07913-.9433,1.63069-1.7946,2.16225-3.1734" transform="translate(1.500103 1.5081)" fill="none" stroke-dashoffset="3.89" stroke-dasharray="3.89"/><path id="touch-id-s-path12" d="M10.9027,15.0979c.2158-1.3589.2158-3.0855-.4476-4.4963" transform="translate(1.500103 1.5081)" fill="none" stroke-dashoffset="4.59" stroke-dasharray="4.59"/><path id="touch-id-s-path13" d="M6.16797,19.2562c2.01438-1.8945,2.59791-4.6043,1.80654-7.5819s.98721-3.75293,1.99839-3.96076c1.3589-.27578,2.7338.60751,3.2414,2.49396.2958,1.0991,1.179,6.4908-2.4061,10.2757" transform="translate(1.500103 1.5081)" fill="none" stroke-dashoffset="28.84" stroke-dasharray="28.84"/><path id="touch-id-s-path14" d="M5.95466,15.3125c-.31575,1.0951-.93924,1.9184-1.87849,2.5979" transform="translate(1.500103 1.5081)" fill="none" stroke-dashoffset="3.27" stroke-dasharray="3.27"/><path id="touch-id-s-path15" d="M12.9632,6.08888c-.9952-.93924-4.10473-1.28695-6.03518.64748C4.48999,9.17838,5.64106,12.6516,6.07671,13.295" transform="translate(1.500103 1.5081)" fill="none" stroke-dashoffset="13.64" stroke-dasharray="13.64"/><path id="touch-id-s-path16" d="M14.1934,19.7648c2.382-3.2134,1.7825-8.2054,1.5627-9.6602-.1559-1.01918-.6475-2.04635-1.3709-2.89366" transform="translate(1.500103 1.5081)" fill="none" stroke-dashoffset="13.27" stroke-dasharray="13.27"/><path id="touch-id-s-path17" d="M17.598,17.5178c.8713-2.2222,1.0072-5.2198.5875-7.65382-.8913-5.15182-5.1119-7.63381-9.1806-6.81048-4.44842.89927-6.97838,5.11186-5.64745,9.7361.44364,1.5388.02797,2.5859-.86331,3.4172" transform="translate(1.500103 1.5081)" fill="none" stroke-dashoffset="37.08" stroke-dasharray="37.08"/><path id="touch-id-s-path18" d="M0.883691,13.294C0.631894,12.4147,0.5,11.4875,0.5,10.5283c0-.3638.019984-.71946.055955-1.07518" transform="translate(1.500103 1.5081)" fill="none" stroke-dashoffset="3.88" stroke-dasharray="3.88"/><path id="touch-id-s-path19" d="M0.970703,7.47434C2.25767,3.42962,6.03462,0.5,10.495,0.5c1.6427,0,3.1895.395679,4.5564,1.09911" transform="translate(1.500103 1.5081)" fill="none" stroke-dashoffset="17.36" stroke-dasharray="17.36"/><path id="touch-id-s-path20" d="M16.7227,2.68359c2.2981,1.83851,3.9608,4.8121,3.7609,8.20931" transform="translate(1.500103 1.5081)" fill="none" stroke-dashoffset="9.39" stroke-dasharray="9.39"/></g><g id="touch-id-u-check"><path id="touch-id-s-path21" d="M17.8045,3.66797c-.052.06-8.84401,9.94003-8.84401,9.94003l-2.46-3.144" transform="translate(1.5 1.5)" fill="none" stroke-dashoffset="54" stroke-dasharray="18"/><path id="touch-id-s-path22" d="M17.804,3.672C19.476,5.46,20.5,7.86,20.5,10.5c0,5.524-4.476,10-10,10s-10-4.476-10-10s4.476-10,10-10c2.884,0,5.48,1.22,7.304,3.172Z" transform="translate(1.5 1.5)" fill="none" stroke-dashoffset="63" stroke-dasharray="63"/></g></svg>