<svg id="watch" xmlns="http://www.w3.org/2000/svg" xmlns:xlink="http://www.w3.org/1999/xlink" viewBox="0 0 24 24" stroke="currentColor" stroke-linecap="round" stroke-linejoin="round" shape-rendering="geometricPrecision" text-rendering="geometricPrecision">
<style><![CDATA[
#watch{pointer-events: all}#watch #watch-s-path4_tr {animation: watch-s-path4_tr__tr 1200ms linear infinite normal backwards}@keyframes watch-s-path4_tr__tr { 0% {transform: translate(11.993455px,12px) rotate(0deg);animation-timing-function: cubic-bezier(0.785,0.135,0.15,0.86)} 100% {transform: translate(11.993455px,12px) rotate(360deg)}} #watch #watch-s-path5_tr {animation: watch-s-path5_tr__tr 1200ms linear infinite normal backwards}@keyframes watch-s-path5_tr__tr { 0% {transform: translate(11.993455px,12.005343px) rotate(0deg);animation-timing-function: cubic-bezier(0.785,0.135,0.15,0.86)} 100% {transform: translate(11.993455px,12.005343px) rotate(720deg)}}
]]></style>
<path id="watch-s-path1" d="M10.963,15.3638l-.3182,3.4818c-.041.4533-.2505.8748-.5871,1.1811s-.77592.4753-1.23108.4734h-3.93635c-.45516.0019-.89445-.1671-1.23109-.4734s-.54613-.7278-.58709-1.1811l-.31818-3.4818" transform="translate(5.135 1.499943)" fill="none"/><path id="watch-s-path2" d="M2.76172,5.63637L3.0799,2.15456c.04082-.45175.24903-.87192.58374-1.178043s.77176-.476075,1.22535-.476502h3.95454c.45515-.001847.89445.167089,1.23107.473429s.5461.727806.5871,1.181116l.3182,3.48181" transform="translate(5.135 1.499943)" fill="none"/><path id="watch-s-path3" d="M6.865,16.8701c3.5153,0,6.365-2.8497,6.365-6.365s-2.8497-6.36496-6.365-6.36496-6.365,2.8497-6.365,6.36496s2.84971,6.365,6.365,6.365Z" transform="translate(5.135 1.499943)" fill="none"/><g id="watch-s-path4_tr" transform="translate(11.993455,12) rotate(0)"><path id="watch-s-path4" d="M6.86328,10.5054l2.546,1.273" transform="translate(-6.858455,-10.500057)" fill="none"/></g><g id="watch-s-path5_tr" transform="translate(11.993455,12.005343) rotate(0)"><path id="watch-s-path5" d="M6.86328,6.68604v3.81896" transform="translate(-6.858455,-10.5054)" fill="none"/></g></svg>