<svg xmlns="http://www.w3.org/2000/svg" width="21.5" height="17.5" viewBox="0 0 21.5 17.5" stroke="#0d6efd" stroke-width="1" stroke-linecap="round" stroke-linejoin="round" fill="none"><path d="M7.54,3.74C9.04,1.01,12.58-.05,15.42,1.4c2.3,1.16,3.51,3.64,2.99,6.08,2.43,1.56,3.06,4.7,1.45,7.02-.98,1.4-2.63,2.25-4.39,2.25H4.91c-2.3,0-4.16-1.79-4.16-4,0-1.36.72-2.63,1.93-3.37-.82-2.21.39-4.66,2.7-5.45.69-.23,1.44-.31,2.16-.2"/><line x1="10.75" y1="5.76" x2="10.75" y2="13.54"/><line x1="7.6" y1="10.4" x2="10.75" y2="13.54"/><line x1="13.89" y1="10.4" x2="10.75" y2="13.54"/></svg>