<svg width="48" height="48" viewBox="0 0 48 48" fill="none" xmlns="http://www.w3.org/2000/svg">
<path d="M20.2684 5.56594C25.2046 2.77494 31.4403 1.07071 36.9224 3.22144C39.5115 4.23732 41.726 5.92087 43.035 8.32609C44.3718 10.7826 44.5245 13.5584 43.7221 16.1964C42.1858 21.2464 37.2744 25.7196 30.2039 28.9423C24.1284 31.7115 18.1671 32.2969 13.0285 31.3512C13.2955 32.6119 13.8411 33.5887 14.509 34.3539C15.9338 35.9862 18.4048 37.2061 21.6906 37.5492C28.3486 38.2446 36.4767 35.1529 40.6263 28.3932C41.7922 26.4937 44.2528 25.9144 46.1219 27.0993C47.991 28.2841 48.5608 30.7845 47.3949 32.6839C41.3932 42.4608 30.0837 46.5756 20.8749 45.6138C16.227 45.1284 11.6572 43.3038 8.541 39.7338C5.88445 36.6904 4.5996 32.7372 4.92607 28.2045C3.41492 27.2295 2.08841 26.0842 0.987317 24.8056C-0.463528 23.1211 -0.295902 20.5603 1.36179 19.0858C3.01953 17.6115 5.5395 17.7819 6.99038 19.4664C9.96927 22.9252 17.6068 25.7986 26.9389 21.5452C33.1261 18.7251 35.5533 15.6004 36.1004 13.8021C36.3395 13.016 36.2199 12.5548 36.0539 12.2498C35.8601 11.8936 35.3407 11.2912 34.0488 10.7843C31.768 9.88957 28.1705 10.3758 24.1475 12.6504C20.4587 14.7361 17.2124 17.901 15.4164 21.0984C15.2117 21.463 15.0346 21.7227 14.6171 21.6994C9.67564 21.4239 9.06057 15.3585 12.4376 11.7404C14.7246 9.29022 17.4373 7.16668 20.2684 5.56594Z" fill="black"/>
</svg>