<svg viewBox="0 0 32 32" fill="none" xmlns="http://www.w3.org/2000/svg">
<path d="M13.5123 3.71063C16.8031 1.84996 20.9602 0.713804 24.6149 2.14763C26.341 2.82488 27.8173 3.94725 28.69 5.55073C29.5812 7.18837 29.683 9.03892 29.1481 10.7976C28.1239 14.1643 24.8496 17.1464 20.1359 19.2949C16.0856 21.141 12.1114 21.5313 8.68566 20.9008C8.86369 21.7413 9.22743 22.3925 9.67267 22.9026C10.6225 23.9908 12.2699 24.8041 14.4604 25.0328C18.8991 25.4964 24.3178 23.4353 27.0842 18.9288C27.8615 17.6625 29.5019 17.2763 30.7479 18.0662C31.994 18.8561 32.3739 20.523 31.5966 21.7893C27.5955 28.3072 20.0558 31.0504 13.9166 30.4092C10.818 30.0856 7.77145 28.8692 5.694 26.4892C3.92297 24.4603 3.0664 21.8248 3.28405 18.803C2.27661 18.153 1.39227 17.3895 0.658211 16.5371C-0.309019 15.4141 -0.197268 13.7069 0.907862 12.7239C2.01302 11.741 3.693 11.8546 4.66025 12.9776C6.64618 15.2835 11.7379 17.1991 17.9593 14.3635C22.0841 12.4834 23.7022 10.4003 24.0669 9.20137C24.2263 8.67733 24.1466 8.36987 24.0359 8.16653C23.9067 7.92909 23.5605 7.52747 22.6992 7.18956C21.1787 6.59305 18.7803 6.91718 16.0983 8.43359C13.6391 9.82406 11.4749 11.934 10.2776 14.0656C10.1411 14.3087 10.0231 14.4818 9.74473 14.4663C6.45043 14.2826 6.04038 10.239 8.29171 7.82696C9.81638 6.19348 11.6249 4.77779 13.5123 3.71063Z" fill="white"/>
</svg>