<svg width="16" height="16" viewBox="0 0 16 16" fill="none" stroke="currentColor" stroke-linecap="round" stroke-linejoin="round" xmlns="http://www.w3.org/2000/svg">
<path d="M7.9987 14.6668C11.6806 14.6668 14.6654 11.6821 14.6654 8.00016C14.6654 4.31826 11.6806 1.3335 7.9987 1.3335C4.3168 1.3335 1.33203 4.31826 1.33203 8.00016C1.33203 11.6821 4.3168 14.6668 7.9987 14.6668Z"/>
<path d="M2.91016 12.1105C3.39049 10.9499 4.53398 10.1333 5.8682 10.1333H10.1349C11.4691 10.1333 12.6126 10.9499 13.0929 12.1105"/>
<path d="M7.80659 3.3335C6.73549 3.3335 5.86719 4.2018 5.86719 5.2729V6.24261C5.86719 7.31371 6.73549 8.18201 7.80659 8.18201C8.87769 8.18201 9.746 7.31371 9.746 6.24261V5.2729C9.746 4.2018 8.87769 3.3335 7.80659 3.3335Z"/>
</svg>